<svg xmlns="http://www.w3.org/2000/svg" version="1.1" xmlns:xlink="http://www.w3.org/1999/xlink" xmlns:svgjs="http://svgjs.dev/svgjs" viewBox="0 0 800 800"><defs><filter id="uuunion-blur" x="-100%" y="-100%" width="400%" height="400%" color-interpolation-filters="sRGB">
        <feGaussianBlur in="SourceGraphic" stdDeviation="7.5 0" result="blur"></feGaussianBlur>
        <feDropShadow stdDeviation="12.307692307692308" in="blur" dx="10" dy="10" flood-color="hsl(219, 77%, 61%)" flood-opacity="0.25" x="0%" y="0%" width="100%" height="100%"></feDropShadow>
      </filter><filter id="uuunion-blur2" x="-100%" y="-100%" width="400%" height="400%" color-interpolation-filters="sRGB">
        <feGaussianBlur in="SourceGraphic" stdDeviation="7.5 0" result="blur"></feGaussianBlur>
        <feDropShadow stdDeviation="12.307692307692308" in="blur" dx="-10" dy="-10" flood-color="hsl(219, 77%, 61%)" flood-opacity="0.25" x="0%" y="0%" width="100%" height="100%"></feDropShadow>
      </filter><linearGradient gradientTransform="rotate(0, 0.5, 0.5)" x1="50%" y1="0%" x2="50%" y2="100%" id="uuunion-grad"><stop stop-color="hsl(0, 0%, 96%)" offset="10%"></stop><stop stop-color="hsl(219, 77%, 61%)" offset="90%"></stop></linearGradient><linearGradient gradientTransform="rotate(135, 0.5, 0.5)" x1="50%" y1="0%" x2="50%" y2="100%" id="uuunion-grad2"><stop stop-color="hsl(0, 0%, 96%)" offset="25%"></stop><stop stop-color="hsl(219, 77%, 61%)" offset="100%"></stop></linearGradient><linearGradient gradientTransform="rotate(333, 0.5, 0.5)" x1="50%" y1="0%" x2="50%" y2="100%" id="uuunion-grad3"><stop stop-color="hsl(0, 0%, 96%)" offset="0%"></stop><stop stop-color="hsl(219, 77%, 61%)" offset="75%"></stop></linearGradient></defs><path d="M-79.49 -88.16Q-64.67 -85.46 -49.85 -81.34 -35.03 -76.86 -20.21 -73.21 -5.39 -71.33 9.42 -71.71 24.24 -74.27 39.06 -78.32 53.88 -82.81 68.7 -86.57 83.52 -88.6 98.34 -88.38 113.16 -85.97 127.98 -82 142.8 -77.5 157.62 -73.65 172.44 -71.47 187.26 -71.51 202.08 -73.77 216.9 -77.67 231.72 -82.17 246.54 -86.1 261.36 -88.44 276.18 -88.56 291 -86.45 305.82 -82.65 320.64 -78.15 335.46 -74.14 350.28 -71.66 365.1 -71.36 379.92 -73.32 394.74 -77.03 409.56 -81.51 424.38 -85.6 439.2 -88.22 454.02 -88.69 468.84 -86.89 483.66 -83.28 498.48 -78.81 513.3 -74.65 528.12 -71.89 542.94 -71.25 557.76 -72.9 572.58 -76.4 587.4 -80.85 602.22 -85.07 617.04 -87.96 631.86 -88.77 646.68 -87.28 661.5 -83.89 676.32 -79.48 691.14 -75.2 705.96 -72.18 720.78 -71.2 735.6 -72.52 750.42 -75.8 765.24 -80.18 780.06 -84.5 794.87 -87.65 809.69 -88.79 824.51 -87.64 839.33 -84.48 854.15 -80.15 868.97 -75.78 860.05 -60.67 856.01 -45.56 857.84 -30.45 865.09 -15.35 876 -0.24 887.88 14.86 897.83 29.97 903.42 45.07 903.27 60.18 897.42 75.29 887.31 90.4 875.4 105.51 864.62 120.61 857.61 135.72 856.07 150.83 860.39 165.94 869.52 181.04 881.2 196.15 892.59 211.26 900.9 226.37 904.09 241.48 901.38 256.58 893.43 271.69 882.2 286.8 870.42 301.91 860.99 317.01 856.21 332.12 857.26 347.23 863.87 362.34 874.43 377.45 886.35 392.55 896.72 407.66 902.99 422.77 903.63 437.88 898.49 452.98 888.81 468.09 876.98 483.2 865.89 498.31 858.25 513.42 855.93 528.52 859.51 543.63 868.1 558.74 879.6 573.85 891.2 588.96 900.06 604.06 904 619.17 902.07 634.28 894.73 649.39 883.78 664.49 871.91 679.6 862.01 694.71 856.52 709.82 856.78 724.93 862.72 740.03 872.89 755.14 884.8 770.25 895.53 785.36 902.46 800.46 903.89 815.57 899.47 830.68 890.28 845.79 878.57 860.9 867.21 876 858.98 891.11 844.33 879.59 829.67 868.17 815.01 859.85 800.36 856.8 785.7 859.81 771.04 868.11 756.39 879.52 741.73 891.05 727.07 899.69 712.42 903.18 697.76 900.6 683.1 892.63 668.45 881.36 653.79 869.73 639.13 860.78 624.48 856.87 609.82 859 595.16 866.63 580.51 877.75 565.85 889.46 551.19 898.7 536.54 903.04 521.88 901.35 507.22 894.08 492.57 883.12 477.91 871.34 463.25 861.83 448.6 857.07 433.94 858.31 419.28 865.22 404.63 876 389.97 887.82 375.31 897.6 360.66 902.77 346 901.98 331.34 895.44 316.69 884.86 302.03 873.01 287.37 862.98 272.71 857.41 258.06 857.74 243.4 863.9 228.74 874.27 214.09 886.13 199.43 896.39 184.77 902.36 170.12 902.48 155.46 896.72 140.8 886.58 126.15 874.71 111.49 864.23 96.83 857.88 82.18 857.31 67.52 862.67 52.86 872.57 38.21 884.41 23.55 895.1 8.89 901.83 -5.75 902.85 -20.41 897.89 -35.07 888.25 -49.72 876.45 -64.38 865.58 -79.04 858.48 -79.41 843.68 -79.93 828.89 -80.46 814.1 -80.88 799.31 -81.09 784.52 -81.02 769.73 -80.7 754.94 -80.21 740.15 -79.67 725.35 -79.21 710.56 -78.94 695.77 -78.92 680.98 -79.17 666.19 -79.63 651.4 -80.17 636.61 -80.67 621.81 -81 607.02 -81.09 592.23 -80.91 577.44 -80.51 562.65 -79.98 547.86 -79.45 533.07 -79.06 518.28 -78.9 503.48 -79 488.69 -79.35 473.9 -79.86 459.11 -80.4 444.32 -80.84 429.53 -81.07 414.74 -81.04 399.95 -80.76 385.15 -80.29 370.36 -79.74 355.57 -79.26 340.78 -78.96 325.99 -78.91 311.2 -79.13 296.41 -79.56 281.61 -80.1 266.82 -80.61 252.03 -80.97 237.24 -81.09 222.45 -80.95 207.66 -80.57 192.87 -80.05 178.08 -79.52 163.28 -79.1 148.49 -78.9 133.7 -78.97 118.91 -79.29 104.12 -79.79 89.33 -80.33 74.54 -80.79 59.75 -81.06 44.95 -81.06 30.16 -80.81 15.37 -80.35 0.58 -79.81 -14.2 -79.31 -28.99 -78.98 -43.78 -78.9 -58.57 -79.08 -73.37 -79.49 -88.16" fill="url(#uuunion-grad)"></path><path d="M-79.49 -88.16Q-79.08 -73.37 -78.9 -58.57 -78.98 -43.78 -79.31 -28.99 -79.81 -14.2 -80.35 0.58 -80.81 15.37 -81.06 30.16 -81.06 44.95 -80.79 59.75 -80.33 74.54 -79.79 89.33 -79.29 104.12 -78.97 118.91 -78.9 133.7 -79.1 148.49 -79.52 163.28 -80.05 178.08 -80.57 192.87 -80.95 207.66 -81.09 222.45 -80.97 237.24 -80.61 252.03 -80.1 266.82 -79.56 281.61 -79.13 296.41 -78.91 311.2 -78.96 325.99 -79.26 340.78 -79.74 355.57 -80.29 370.36 -80.76 385.15 -70.58 388.05 -60.39 392.35 -50.21 397.55 -40.03 403.04 -29.85 408.17 -19.67 412.34 -0.58 415.74 2.72 415.96 15.18 407.71 27.51 396.97 39.68 384.56 51.7 371.62 63.6 359.38 75.4 348.9 87.13 340.93 98.86 335.76 110.63 333.15 122.49 332.41 134.49 332.53 146.7 332.33 159.13 330.73 171.83 326.9 184.81 320.44 198.06 311.41 211.58 300.35 225.33 288.15 239.25 275.92 253.3 264.73 267.39 255.46 281.45 248.63 295.4 244.32 309.14 242.14 322.6 241.33 335.72 240.88 348.43 239.73 360.7 236.99 372.5 232.02 383.85 224.64 394.77 215.07 405.3 203.96 415.52 192.2 425.52 180.8 435.4 170.68 445.28 162.53 455.28 156.67 465.52 152.98 476.12 150.97 487.18 149.85 498.78 148.68 511 146.54 523.87 142.7 537.41 136.76 551.58 128.68 566.35 118.84 581.62 107.9 597.3 96.75 613.24 86.26 629.31 77.19 645.35 70.03 661.18 64.91 676.66 61.59 691.63 59.52 705.95 57.91 719.54 55.93 732.3 52.79 744.19 47.97 755.23 41.23 765.43 32.7 774.89 22.82 783.7 12.26 792.01 1.83 800 -7.72 787.88 -25.02 779.77 -42.31 778.35 -59.61 784.09 -76.91 795.09 -94.21 807.71 -111.5 812.23 -135.82 791.38 -138.85 776.08 -135.16 760.78 -132.71 745.49 -132.15 730.19 -133.61 714.89 -136.73 699.59 -140.69 684.3 -144.47 669 -147.09 653.7 -147.88 638.41 -146.63 623.11 -143.67 607.81 -139.76 592.52 -135.9 577.22 -133.11 561.92 -132.1 546.62 -133.12 531.33 -135.92 516.03 -139.78 500.73 -143.69 485.44 -146.65 470.14 -147.88 454.84 -147.08 439.54 -144.45 424.25 -140.66 408.95 -136.71 393.65 -133.6 378.36 -132.15 363.06 -132.72 347.76 -135.17 332.46 -138.87 317.17 -142.86 301.87 -146.11 286.57 -147.78 271.28 -147.44 255.98 -145.17 240.68 -141.56 225.38 -137.55 210.09 -134.18 194.79 -132.3 179.49 -132.41 164.2 -134.49 148.9 -137.98 133.6 -142 118.3 -145.5 103.01 -147.57 87.71 -147.69 72.41 -145.82 57.12 -142.44 41.82 -138.43 26.52 -134.83 11.22 -132.56 -4.06 -132.21 -19.36 -133.87 -34.66 -137.12 -49.95 -141.11 -65.25 -144.81 -80.55 -147.27 -95.85 -147.84 -111.14 -146.39 -126.44 -143.29 -136.22 -127.6 -118.03 -115.23 -108.24 -109.6 -98.53 -103.29 -88.95 -96.16 -79.49 -88.16" fill="url(#uuunion-grad2)" filter="url(#uuunion-blur)"></path><path d="M815.26 387.64Q825.44 384.93 835.63 384 845.81 384.95 855.99 387.67 866.17 391.84 876.35 396.97 886.54 402.46 896.72 407.66 902.99 422.77 903.63 437.88 898.49 452.98 888.81 468.09 876.98 483.2 865.89 498.31 858.25 513.42 855.93 528.52 859.51 543.63 868.1 558.74 879.6 573.85 891.2 588.96 900.06 604.06 904 619.17 902.07 634.28 894.73 649.39 883.78 664.49 871.91 679.6 862.01 694.71 856.52 709.82 856.78 724.93 862.72 740.03 872.89 755.14 884.8 770.25 895.53 785.36 902.46 800.46 903.89 815.57 899.47 830.68 890.28 845.79 878.57 860.9 867.21 876 858.98 891.11 845.53 880.58 832.08 869.91 818.63 861.48 805.18 857.14 791.73 857.85 778.28 863.46 764.83 872.73 751.38 883.6 737.93 893.68 724.48 900.73 711.03 903.19 697.58 900.53 684.13 893.33 670.67 883.17 657.22 872.32 643.77 863.16 630.32 857.73 616.87 857.21 603.42 861.74 589.97 870.3 576.52 881.01 563.07 891.49 549.62 899.43 536.17 903.07 522.72 901.61 509.27 895.37 495.82 885.73 482.37 874.82 468.92 865.06 455.47 858.6 442.02 856.87 428.56 860.25 415.11 868 401.66 878.4 388.21 889.16 374.76 897.89 361.31 902.66 347.86 902.42 334.41 897.22 320.96 888.22 307.51 877.39 294.06 867.14 280.61 859.74 267.16 856.81 253.71 859.01 240.26 865.85 226.81 875.82 213.36 886.71 199.9 896.12 186.45 901.96 173 902.95 159.55 898.86 146.1 890.6 132.65 879.99 119.2 869.39 105.75 861.13 92.3 857.04 78.85 858.03 65.4 863.88 51.95 873.28 38.5 884.18 25.05 894.14 4.97 897.01 -1.37 882.88 -1.05 872.73 -0.73 862.58 -0.44 852.43 -0.21 842.28 0.2 827.06 0.99 822 13.78 813.65 26.48 801.69 39.06 787.2 51.49 771.69 63.74 756.87 75.83 744.28 87.74 735.07 99.52 729.74 111.17 728.09 122.76 729.25 134.33 731.85 145.93 734.26 157.64 734.91 169.5 732.55 181.57 726.5 193.91 716.76 206.53 704 219.48 689.43 232.74 674.58 246.31 661.03 260.16 650.09 274.24 642.59 288.49 638.73 302.82 638.03 317.17 639.46 331.43 641.6 345.51 642.91 359.33 642.02 372.79 637.98 385.84 630.42 398.42 619.61 410.49 606.4 422.06 592.1 433.14 578.18 443.76 566.03 453.99 556.71 463.92 550.75 473.66 548.06 483.31 547.96 493.02 549.31 502.92 550.71 513.12 550.76 523.76 548.33 534.93 542.75 546.73 533.93 559.21 522.38 572.39 509.08 586.29 495.34 600.85 482.53 616.02 471.83 631.69 464.03 647.74 459.38 664.02 457.55 680.37 457.72 696.62 458.68 712.59 459.12 728.13 457.82 743.07 453.91 757.28 446.99 770.67 437.2 783.18 425.24 794.76 412.16 810.35 393.43 815.26 387.64" fill="url(#uuunion-grad3)" filter="url(#uuunion-blur2)"></path></svg>