<svg width="440" height="956" viewBox="0 0 440 956" fill="none" xmlns="http://www.w3.org/2000/svg">
<rect width="440" height="956" fill="white"/>
<g clip-path="url(#clip0_18_2)">
<path d="M230.977 55.1264V84.3532C230.977 87.2743 228.603 89.6508 225.686 89.6508H200.944C198.027 89.6508 195.653 87.2743 195.653 84.3532V55.1264C195.653 52.2044 198.027 49.8279 200.944 49.8279H225.686C228.603 49.8279 230.977 52.2044 230.977 55.1264Z" fill="#E3EEFF"/>
<path d="M230.977 55.1264V84.3532C230.977 87.2743 228.603 89.6508 225.686 89.6508H213.313V49.8279H225.686C228.603 49.8279 230.977 52.2044 230.977 55.1264Z" fill="#D7E2F2"/>
<path d="M219.417 48.8094V52.8846C219.417 53.4469 218.961 53.903 218.4 53.903H208.226C207.665 53.903 207.209 53.4469 207.209 52.8846V48.8094C207.209 48.2467 207.665 47.7909 208.226 47.7909H210.235C210.352 47.7909 210.457 47.7213 210.503 47.6134C210.97 46.521 212.054 45.7537 213.314 45.7537C214.572 45.7537 215.656 46.521 216.121 47.6134C216.167 47.7213 216.273 47.7909 216.389 47.7909H218.4C218.961 47.7909 219.417 48.2467 219.417 48.8094Z" fill="#FFDE00"/>
<path d="M225.525 62.618C225.525 63.3286 224.951 63.904 224.241 63.904H210.652C209.942 63.904 209.367 63.3286 209.367 62.618C209.367 61.9083 209.942 61.3319 210.652 61.3319H224.241C224.951 61.3319 225.525 61.9083 225.525 62.618Z" fill="#697E97"/>
<path d="M202.598 65.0253C202.863 65.2909 203.212 65.4235 203.561 65.4235C203.909 65.4235 204.258 65.2909 204.524 65.0253L207.538 62.0071C208.04 61.5051 208.04 60.6906 207.538 60.1886C207.037 59.6862 206.223 59.6862 205.722 60.1886L203.561 62.3521L203.165 61.9559C202.664 61.4539 201.851 61.4539 201.349 61.9559C200.847 62.4582 200.847 63.2724 201.349 63.7748L202.598 65.0253Z" fill="#AAB5C6"/>
<path d="M225.496 71.7506C225.496 72.4616 224.921 73.0367 224.211 73.0367H210.622C209.913 73.0367 209.338 72.4616 209.338 71.7506C209.338 71.0409 209.913 70.4646 210.622 70.4646H224.211C224.921 70.4646 225.496 71.0409 225.496 71.7506Z" fill="#697E97"/>
<path d="M202.567 74.1569C202.825 74.4155 203.167 74.5575 203.532 74.5575C203.896 74.5575 204.238 74.4155 204.495 74.1582L207.509 71.1401C208.01 70.638 208.01 69.8235 207.509 69.3215C207.007 68.8191 206.194 68.8191 205.693 69.3215L203.532 71.4847L203.136 71.0888C202.634 70.5868 201.821 70.5868 201.32 71.0888C200.818 71.5912 200.818 72.4053 201.32 72.9077L202.567 74.1569Z" fill="#AAB5C6"/>
<path d="M225.687 80.7934C225.687 81.5041 225.111 82.0795 224.402 82.0795H210.813C210.103 82.0795 209.529 81.5041 209.529 80.7934C209.529 80.0834 210.104 79.5074 210.813 79.5074H224.402C225.111 79.5074 225.687 80.0834 225.687 80.7934Z" fill="#697E97"/>
<path d="M205.883 78.3637L203.722 80.5272L203.327 80.1313C202.826 79.629 202.012 79.629 201.511 80.1313C201.009 80.6334 201.009 81.4478 201.511 81.9499L202.761 83.2018C203.026 83.4663 203.374 83.5986 203.722 83.5986C204.071 83.5986 204.42 83.466 204.686 83.2004L207.7 80.1826C208.201 79.6802 208.201 78.866 207.7 78.3637C207.198 77.8613 206.385 77.8613 205.883 78.3637Z" fill="#AAB5C6"/>
<path d="M218.4 53.903H213.313V45.7537C214.572 45.7537 215.655 46.521 216.121 47.6134C216.167 47.7213 216.273 47.7909 216.389 47.7909H218.4C218.961 47.7909 219.417 48.2467 219.417 48.8094V52.8846C219.417 53.4469 218.961 53.903 218.4 53.903Z" fill="#FFBC17"/>
<path d="M224.211 73.0366H213.313V70.4645H224.211C224.921 70.4645 225.496 71.0409 225.496 71.7506C225.496 72.4616 224.921 73.0366 224.211 73.0366Z" fill="#38506E"/>
<path d="M224.241 63.904H213.313V61.3319H224.241C224.95 61.3319 225.525 61.9083 225.525 62.618C225.525 63.3286 224.951 63.904 224.241 63.904Z" fill="#38506E"/>
<path d="M225.687 80.7934C225.687 81.5041 225.111 82.0795 224.402 82.0795H213.313V79.5074H224.402C225.111 79.5074 225.687 80.0834 225.687 80.7934Z" fill="#38506E"/>
</g>
<circle cx="213.315" cy="67.7022" r="32.3741" stroke="#464040" stroke-width="1.09743"/>
<circle cx="213.315" cy="34.7794" r="8.77941" fill="#464040"/>
<path d="M213.089 38.7921V32.416H211.926V31.0003H214.67V38.7921H213.089Z" fill="white"/>
<path d="M156.024 111.824C157.017 111.824 157.783 112.072 158.322 112.569C158.86 113.057 159.13 113.672 159.13 114.412C159.13 115.145 158.873 115.767 158.359 116.281C157.854 116.786 157.076 117.038 156.024 117.038H154.433V120.599H152.994V111.824H156.024ZM154.433 115.915H156.024C156.571 115.915 156.979 115.784 157.248 115.523C157.518 115.262 157.652 114.9 157.652 114.438C157.652 113.966 157.518 113.6 157.248 113.339C156.979 113.078 156.571 112.948 156.024 112.948H154.433V115.915ZM161.942 113.642V114.854C162.388 113.97 163.082 113.529 164.025 113.529V115.018H163.659C163.095 115.018 162.665 115.161 162.371 115.448C162.085 115.734 161.942 116.23 161.942 116.937V120.599H160.502V113.642H161.942ZM168.277 120.712C167.267 120.712 166.446 120.384 165.815 119.728C165.184 119.071 164.868 118.2 164.868 117.114C164.868 116.028 165.188 115.161 165.828 114.513C166.467 113.857 167.292 113.529 168.302 113.529C169.321 113.529 170.146 113.844 170.777 114.475C171.408 115.098 171.724 115.915 171.724 116.925C171.724 117.169 171.707 117.396 171.673 117.607H166.345C166.379 118.187 166.573 118.65 166.926 118.995C167.288 119.332 167.738 119.5 168.277 119.5C169.06 119.5 169.611 119.176 169.931 118.528H171.484C171.273 119.168 170.89 119.694 170.335 120.106C169.779 120.51 169.093 120.712 168.277 120.712ZM170.221 116.622C170.213 116.049 170.023 115.595 169.653 115.258C169.283 114.913 168.832 114.741 168.302 114.741C167.772 114.741 167.326 114.913 166.964 115.258C166.61 115.595 166.408 116.049 166.358 116.622H170.221ZM178.178 118.819C178.599 118.381 178.809 117.804 178.809 117.089C178.809 116.373 178.599 115.81 178.178 115.397C177.765 114.985 177.269 114.778 176.688 114.778C176.116 114.778 175.619 114.989 175.198 115.41C174.786 115.831 174.579 116.399 174.579 117.114C174.579 117.83 174.786 118.402 175.198 118.831C175.619 119.252 176.116 119.462 176.688 119.462C177.26 119.462 177.757 119.248 178.178 118.819ZM177.004 113.529C177.938 113.529 178.716 113.861 179.339 114.526C179.962 115.182 180.274 116.041 180.274 117.102C180.274 118.154 179.958 119.021 179.327 119.702C178.704 120.376 177.929 120.712 177.004 120.712C176.456 120.712 175.977 120.586 175.564 120.334C175.152 120.073 174.824 119.728 174.579 119.298V123.907H173.14V113.642H174.579V114.879C174.815 114.475 175.139 114.151 175.552 113.907C175.972 113.655 176.456 113.529 177.004 113.529ZM186.28 118.831C186.701 118.402 186.911 117.83 186.911 117.114C186.911 116.399 186.701 115.831 186.28 115.41C185.868 114.989 185.375 114.778 184.803 114.778C184.23 114.778 183.734 114.985 183.313 115.397C182.901 115.81 182.694 116.373 182.694 117.089C182.694 117.804 182.901 118.381 183.313 118.819C183.734 119.248 184.23 119.462 184.803 119.462C185.375 119.462 185.868 119.252 186.28 118.831ZM184.5 120.712C183.574 120.712 182.795 120.376 182.164 119.702C181.533 119.021 181.217 118.154 181.217 117.102C181.217 116.041 181.529 115.182 182.151 114.526C182.783 113.861 183.565 113.529 184.5 113.529C185.047 113.529 185.527 113.655 185.939 113.907C186.36 114.151 186.684 114.475 186.911 114.879V113.642H188.363V120.599H186.911V119.298C186.676 119.728 186.351 120.073 185.939 120.334C185.527 120.586 185.047 120.712 184.5 120.712ZM191.693 113.642V114.854C192.139 113.97 192.833 113.529 193.776 113.529V115.018H193.41C192.846 115.018 192.417 115.161 192.122 115.448C191.836 115.734 191.693 116.23 191.693 116.937V120.599H190.254V113.642H191.693ZM198.028 120.712C197.018 120.712 196.198 120.384 195.566 119.728C194.935 119.071 194.619 118.2 194.619 117.114C194.619 116.028 194.939 115.161 195.579 114.513C196.219 113.857 197.043 113.529 198.054 113.529C199.072 113.529 199.897 113.844 200.528 114.475C201.159 115.098 201.475 115.915 201.475 116.925C201.475 117.169 201.458 117.396 201.425 117.607H196.097C196.13 118.187 196.324 118.65 196.677 118.995C197.039 119.332 197.49 119.5 198.028 119.5C198.811 119.5 199.362 119.176 199.682 118.528H201.235C201.025 119.168 200.642 119.694 200.086 120.106C199.531 120.51 198.845 120.712 198.028 120.712ZM199.973 116.622C199.964 116.049 199.775 115.595 199.404 115.258C199.034 114.913 198.584 114.741 198.054 114.741C197.523 114.741 197.077 114.913 196.715 115.258C196.362 115.595 196.16 116.049 196.109 116.622H199.973ZM208.116 119.5H209.543C210.561 119.5 211.344 119.21 211.891 118.629C212.446 118.048 212.724 117.253 212.724 116.243C212.724 115.225 212.446 114.429 211.891 113.857C211.344 113.276 210.561 112.986 209.543 112.986H208.116V119.5ZM209.543 111.824C210.957 111.824 212.085 112.224 212.926 113.023C213.776 113.815 214.201 114.888 214.201 116.243C214.201 117.59 213.776 118.654 212.926 119.437C212.085 120.212 210.957 120.599 209.543 120.599H206.677V111.824H209.543ZM220.148 118.869C220.569 118.448 220.779 117.863 220.779 117.114C220.779 116.365 220.573 115.784 220.16 115.372C219.756 114.951 219.264 114.741 218.683 114.741C218.103 114.741 217.614 114.951 217.219 115.372C216.823 115.784 216.625 116.369 216.625 117.127C216.625 117.876 216.819 118.461 217.206 118.882C217.593 119.294 218.073 119.5 218.645 119.5C219.226 119.5 219.727 119.29 220.148 118.869ZM218.645 120.712C217.635 120.712 216.802 120.384 216.146 119.728C215.489 119.063 215.161 118.196 215.161 117.127C215.161 116.049 215.497 115.182 216.171 114.526C216.853 113.861 217.699 113.529 218.709 113.529C219.719 113.529 220.56 113.861 221.234 114.526C221.915 115.182 222.256 116.045 222.256 117.114C222.256 118.183 221.907 119.05 221.208 119.715C220.518 120.38 219.664 120.712 218.645 120.712ZM226.608 120.712C225.598 120.712 224.778 120.384 224.146 119.728C223.515 119.071 223.199 118.204 223.199 117.127C223.199 116.041 223.515 115.17 224.146 114.513C224.786 113.857 225.607 113.529 226.608 113.529C227.45 113.529 228.144 113.731 228.691 114.135C229.247 114.53 229.622 115.098 229.815 115.839H228.262C228.001 115.107 227.45 114.741 226.608 114.741C226.019 114.741 225.548 114.951 225.194 115.372C224.849 115.784 224.677 116.365 224.677 117.114C224.677 117.863 224.849 118.448 225.194 118.869C225.548 119.29 226.019 119.5 226.608 119.5C227.442 119.5 227.993 119.134 228.262 118.402H229.815C229.613 119.109 229.234 119.673 228.679 120.094C228.123 120.506 227.433 120.712 226.608 120.712ZM236.11 113.642H237.55V120.599H236.11V119.5C235.656 120.3 234.915 120.7 233.888 120.7C233.105 120.7 232.457 120.443 231.944 119.93C231.439 119.408 231.186 118.68 231.186 117.745V113.642H232.613V117.531C232.613 118.154 232.769 118.633 233.08 118.97C233.392 119.298 233.817 119.462 234.355 119.462C234.894 119.462 235.319 119.298 235.631 118.97C235.95 118.633 236.11 118.154 236.11 117.531V113.642ZM240.888 113.642V114.741C241.351 113.933 242.092 113.529 243.11 113.529C243.649 113.529 244.129 113.655 244.549 113.907C244.97 114.16 245.29 114.526 245.509 115.006C245.753 114.543 246.09 114.181 246.519 113.92C246.957 113.659 247.449 113.529 247.996 113.529C248.796 113.529 249.452 113.789 249.966 114.311C250.479 114.825 250.736 115.553 250.736 116.495V120.599H249.297V116.71C249.297 116.087 249.141 115.612 248.829 115.283C248.518 114.947 248.093 114.778 247.554 114.778C247.016 114.778 246.591 114.947 246.279 115.283C245.968 115.612 245.812 116.087 245.812 116.71V120.599H244.385V116.71C244.385 116.087 244.23 115.612 243.918 115.283C243.607 114.947 243.182 114.778 242.643 114.778C242.104 114.778 241.675 114.947 241.355 115.283C241.044 115.612 240.888 116.087 240.888 116.71V120.599H239.449V113.642H240.888ZM255.497 120.712C254.486 120.712 253.666 120.384 253.035 119.728C252.403 119.071 252.088 118.2 252.088 117.114C252.088 116.028 252.407 115.161 253.047 114.513C253.687 113.857 254.512 113.529 255.522 113.529C256.54 113.529 257.365 113.844 257.996 114.475C258.628 115.098 258.943 115.915 258.943 116.925C258.943 117.169 258.926 117.396 258.893 117.607H253.565C253.598 118.187 253.792 118.65 254.146 118.995C254.508 119.332 254.958 119.5 255.497 119.5C256.279 119.5 256.831 119.176 257.15 118.528H258.703C258.493 119.168 258.11 119.694 257.554 120.106C256.999 120.51 256.313 120.712 255.497 120.712ZM257.441 116.622C257.432 116.049 257.243 115.595 256.873 115.258C256.502 114.913 256.052 114.741 255.522 114.741C254.991 114.741 254.545 114.913 254.183 115.258C253.83 115.595 253.628 116.049 253.577 116.622H257.441ZM261.799 113.642V114.741C262.262 113.933 263.003 113.529 264.021 113.529C264.804 113.529 265.448 113.789 265.953 114.311C266.466 114.833 266.723 115.561 266.723 116.495V120.599H265.296V116.71C265.296 116.087 265.141 115.612 264.829 115.283C264.518 114.947 264.093 114.778 263.554 114.778C263.015 114.778 262.586 114.947 262.266 115.283C261.955 115.612 261.799 116.087 261.799 116.71V120.599H260.36V113.642H261.799ZM271.93 114.816H270.238V118.667C270.238 118.928 270.297 119.117 270.415 119.235C270.541 119.345 270.752 119.399 271.046 119.399H271.93V120.599H270.794C269.455 120.599 268.786 119.955 268.786 118.667V114.816H267.965V113.642H268.786V111.912H270.238V113.642H271.93V114.816Z" fill="black"/>
<g clip-path="url(#clip1_18_2)">
<path d="M213.496 246.145V247.902L206.939 248.346L199.978 247.902V246.145C199.978 245.84 200.225 245.593 200.529 245.593H212.944C213.249 245.593 213.496 245.84 213.496 246.145Z" fill="#7CA1B1"/>
<path d="M213.496 246.145V247.902L210.67 248.079V246.145C210.67 245.84 210.422 245.593 210.118 245.593H212.944C213.249 245.593 213.496 245.84 213.496 246.145Z" fill="#678D98"/>
<path d="M221.127 250.576V286.119C221.127 287.596 219.93 288.793 218.453 288.793H195.02C193.543 288.793 192.346 287.596 192.346 286.119V250.576C192.346 249.099 193.543 247.902 195.02 247.902H196.431L206.737 248.582L216.805 247.902H218.453C219.93 247.902 221.127 249.099 221.127 250.576Z" fill="#5986CB"/>
<path d="M221.127 250.576V286.119C221.127 287.596 219.93 288.793 218.453 288.793H216.804C218.281 288.793 219.478 287.596 219.478 286.119V250.576C219.478 247.809 217.111 247.902 217.111 247.902H218.453C219.93 247.902 221.127 249.099 221.127 250.576Z" fill="#4278C3"/>
<path d="M218.454 249.245V282.964C218.454 283.706 217.852 284.307 217.111 284.307H196.363C195.621 284.307 195.02 283.706 195.02 282.964V249.245C195.02 248.504 195.621 247.902 196.363 247.902H217.111C217.852 247.902 218.454 248.504 218.454 249.245Z" fill="#C8EFFE"/>
<path d="M218.454 249.245V282.964C218.454 283.706 217.852 284.307 217.111 284.307H214.742C215.484 284.307 216.085 283.706 216.085 282.964V249.245C216.085 248.504 215.484 247.902 214.742 247.902H217.111C217.852 247.902 218.454 248.504 218.454 249.245Z" fill="#99E6FC"/>
<path d="M214.877 257.178H199.001C198.709 257.178 198.473 256.942 198.473 256.651V255.055C198.473 254.764 198.709 254.528 199.001 254.528H214.877C215.168 254.528 215.404 254.764 215.404 255.055V256.651C215.404 256.942 215.168 257.178 214.877 257.178Z" fill="#7CA1B1"/>
<path d="M211.048 247.902V249.143C211.048 249.983 210.365 250.667 209.525 250.667H203.949C203.109 250.667 202.426 249.983 202.426 249.143V247.902H201.101V249.143C201.101 250.714 202.378 251.992 203.949 251.992H209.525C211.096 251.992 212.373 250.714 212.373 249.143V247.902H211.048Z" fill="#EAF6FF"/>
<path d="M202.83 262.211H199.136C198.77 262.211 198.473 261.915 198.473 261.549C198.473 261.183 198.77 260.887 199.136 260.887H202.83C203.196 260.887 203.492 261.183 203.492 261.549C203.492 261.915 203.196 262.211 202.83 262.211Z" fill="#7CA1B1"/>
<path d="M210.925 266.583H199.136C198.77 266.583 198.473 266.286 198.473 265.92C198.473 265.554 198.77 265.258 199.136 265.258H210.924C211.29 265.258 211.587 265.554 211.587 265.92C211.587 266.286 211.29 266.583 210.925 266.583Z" fill="#7CA1B1"/>
<path d="M209.753 270.954H199.136C198.77 270.954 198.473 270.657 198.473 270.291C198.473 269.925 198.77 269.629 199.136 269.629H209.753C210.119 269.629 210.416 269.925 210.416 270.291C210.416 270.657 210.119 270.954 209.753 270.954Z" fill="#7CA1B1"/>
<path d="M208.582 275.325H199.136C198.77 275.325 198.473 275.028 198.473 274.663C198.473 274.297 198.77 274 199.136 274H208.582C208.948 274 209.244 274.297 209.244 274.663C209.244 275.028 208.948 275.325 208.582 275.325Z" fill="#7CA1B1"/>
<path d="M202.83 279.696H199.136C198.77 279.696 198.473 279.4 198.473 279.034C198.473 278.668 198.77 278.371 199.136 278.371H202.83C203.196 278.371 203.492 278.668 203.492 279.034C203.492 279.4 203.196 279.696 202.83 279.696Z" fill="#7CA1B1"/>
<path d="M233.964 262.52L216.569 257.859C216.076 257.727 215.57 258.019 215.438 258.512L208.698 283.667C208.566 284.16 208.858 284.666 209.351 284.798L226.745 289.459C227.238 289.591 227.744 289.298 227.876 288.806L234.617 263.651C234.749 263.158 234.456 262.652 233.964 262.52Z" fill="#99E6FC"/>
<path d="M232.437 259.877L225.697 285.032C225.565 285.524 225.058 285.817 224.566 285.685L207.171 281.024C206.679 280.892 206.386 280.385 206.518 279.893L213.258 254.738C213.391 254.245 213.898 253.952 214.39 254.084L231.785 258.745C232.277 258.877 232.569 259.384 232.437 259.877Z" fill="#EAF6FF"/>
<path d="M232.437 259.876L225.697 285.032C225.565 285.524 225.058 285.817 224.566 285.685L221.779 284.938C222.271 285.07 222.779 284.777 222.91 284.285L229.65 259.13C229.782 258.64 229.493 258.135 229.005 258.001L231.784 258.746C232.277 258.877 232.569 259.383 232.437 259.876Z" fill="#C8EFFE"/>
<path d="M218.34 280.642C221.936 280.642 224.851 277.727 224.851 274.131C224.851 270.536 221.936 267.621 218.34 267.621C214.745 267.621 211.83 270.536 211.83 274.131C211.83 277.727 214.745 280.642 218.34 280.642Z" fill="#46CC8D"/>
<path d="M226.687 266.202L215.076 263.091C214.809 263.02 214.651 262.745 214.722 262.479L215.815 258.399C215.887 258.132 216.161 257.974 216.428 258.045L228.039 261.157C228.306 261.228 228.464 261.503 228.393 261.769L227.3 265.849C227.228 266.116 226.954 266.274 226.687 266.202Z" fill="#80B4FB"/>
<path d="M217.982 276.134C217.753 276.134 217.53 276.016 217.407 275.803L215.266 272.094C215.083 271.777 215.192 271.372 215.509 271.189C215.825 271.006 216.231 271.115 216.413 271.432L218.223 274.567L224.074 271.189C224.39 271.006 224.795 271.115 224.978 271.432C225.161 271.749 225.053 272.154 224.736 272.337L218.312 276.045C218.208 276.106 218.094 276.134 217.982 276.134Z" fill="#B0E7C9"/>
</g>
<circle cx="211.302" cy="267.542" r="32.3741" stroke="#464040" stroke-width="1.09743"/>
<circle cx="211.302" cy="234.619" r="8.77941" fill="#464040"/>
<path d="M208.558 238.522V237.392C208.748 237.223 209.041 236.971 209.436 236.634C209.831 236.291 210.128 236.031 210.325 235.855C210.523 235.68 210.764 235.449 211.049 235.164C211.342 234.871 211.558 234.626 211.697 234.429C212.055 233.916 212.235 233.463 212.235 233.068C212.235 232.292 211.876 231.904 211.159 231.904C210.808 231.904 210.534 232.022 210.336 232.256C210.139 232.49 210.036 232.812 210.029 233.221H208.536C208.544 232.365 208.792 231.714 209.283 231.268C209.78 230.822 210.428 230.599 211.225 230.599C212.022 230.599 212.648 230.825 213.102 231.279C213.555 231.733 213.782 232.303 213.782 232.991C213.782 233.503 213.65 233.979 213.387 234.418C213.255 234.652 213.127 234.86 213.003 235.043C212.878 235.219 212.699 235.424 212.465 235.658C212.238 235.892 212.059 236.075 211.927 236.206C211.796 236.338 211.594 236.525 211.324 236.766C211.06 237 210.877 237.165 210.775 237.26H213.969V238.522H208.558Z" fill="white"/>
<path d="M150.284 311.664H153.63C154.531 311.664 155.229 311.883 155.726 312.32C156.222 312.758 156.471 313.313 156.471 313.987C156.471 314.972 155.903 315.62 154.766 315.931C155.339 316.024 155.797 316.28 156.143 316.701C156.496 317.114 156.673 317.589 156.673 318.128C156.673 318.801 156.412 319.357 155.89 319.795C155.368 320.224 154.67 320.438 153.794 320.438H150.284V311.664ZM151.724 312.787V315.388H153.504C153.975 315.388 154.341 315.275 154.602 315.047C154.872 314.82 155.006 314.504 155.006 314.1C155.006 313.688 154.872 313.368 154.602 313.141C154.341 312.905 153.975 312.787 153.504 312.787H151.724ZM151.724 319.315H153.668C154.156 319.315 154.539 319.193 154.817 318.949C155.095 318.705 155.233 318.368 155.233 317.939C155.233 317.501 155.086 317.156 154.792 316.903C154.497 316.642 154.106 316.512 153.617 316.512H151.724V319.315ZM163.098 313.482H164.537V320.438H163.098V319.34C162.643 320.14 161.902 320.539 160.876 320.539C160.093 320.539 159.445 320.283 158.931 319.769C158.426 319.247 158.174 318.519 158.174 317.585V313.482H159.6V317.37C159.6 317.993 159.756 318.473 160.068 318.81C160.379 319.138 160.804 319.302 161.343 319.302C161.881 319.302 162.306 319.138 162.618 318.81C162.938 318.473 163.098 317.993 163.098 317.37V313.482ZM166.12 315.477C166.12 314.887 166.369 314.391 166.865 313.987C167.362 313.574 168.014 313.368 168.822 313.368C169.63 313.368 170.27 313.57 170.741 313.974C171.221 314.37 171.478 314.913 171.512 315.603H170.034C170.009 315.258 169.887 314.988 169.668 314.795C169.458 314.601 169.159 314.504 168.772 314.504C168.385 314.504 168.082 314.593 167.863 314.77C167.644 314.938 167.534 315.165 167.534 315.451C167.534 315.729 167.673 315.948 167.951 316.108C168.229 316.268 168.566 316.386 168.961 316.461C169.365 316.537 169.765 316.63 170.161 316.739C170.565 316.849 170.905 317.051 171.183 317.345C171.461 317.631 171.6 318.019 171.6 318.507C171.6 319.113 171.343 319.605 170.83 319.984C170.325 320.363 169.672 320.552 168.873 320.552C168.073 320.552 167.425 320.359 166.928 319.971C166.432 319.584 166.158 319.033 166.108 318.317H167.598C167.623 318.662 167.749 318.932 167.976 319.125C168.204 319.319 168.511 319.416 168.898 319.416C169.294 319.416 169.605 319.332 169.832 319.163C170.068 318.987 170.186 318.755 170.186 318.469C170.186 318.183 170.047 317.96 169.769 317.8C169.491 317.64 169.151 317.522 168.747 317.446C168.351 317.362 167.951 317.269 167.547 317.168C167.152 317.059 166.815 316.865 166.537 316.588C166.259 316.31 166.12 315.94 166.12 315.477ZM174.822 311.638C174.822 311.899 174.733 312.118 174.557 312.295C174.38 312.472 174.161 312.56 173.9 312.56C173.647 312.56 173.433 312.472 173.256 312.295C173.079 312.118 172.991 311.899 172.991 311.638C172.991 311.378 173.079 311.159 173.256 310.982C173.433 310.805 173.647 310.717 173.9 310.717C174.161 310.717 174.38 310.805 174.557 310.982C174.733 311.159 174.822 311.378 174.822 311.638ZM173.18 320.438V313.482H174.62V320.438H173.18ZM177.949 313.482V314.58C178.412 313.772 179.152 313.368 180.171 313.368C180.954 313.368 181.597 313.629 182.102 314.151C182.616 314.673 182.873 315.401 182.873 316.335V320.438H181.446V316.55C181.446 315.927 181.29 315.451 180.979 315.123C180.667 314.786 180.242 314.618 179.704 314.618C179.165 314.618 178.736 314.786 178.416 315.123C178.104 315.451 177.949 315.927 177.949 316.55V320.438H176.509V313.482H177.949ZM187.638 320.552C186.628 320.552 185.807 320.224 185.176 319.567C184.544 318.911 184.229 318.04 184.229 316.954C184.229 315.868 184.549 315.001 185.188 314.353C185.828 313.696 186.653 313.368 187.663 313.368C188.681 313.368 189.506 313.684 190.137 314.315C190.769 314.938 191.084 315.754 191.084 316.764C191.084 317.009 191.068 317.236 191.034 317.446H185.706C185.74 318.027 185.933 318.49 186.287 318.835C186.649 319.172 187.099 319.34 187.638 319.34C188.42 319.34 188.972 319.016 189.292 318.368H190.845C190.634 319.008 190.251 319.534 189.696 319.946C189.14 320.35 188.454 320.552 187.638 320.552ZM189.582 316.461C189.574 315.889 189.384 315.435 189.014 315.098C188.643 314.753 188.193 314.58 187.663 314.58C187.133 314.58 186.687 314.753 186.325 315.098C185.971 315.435 185.769 315.889 185.719 316.461H189.582ZM192.185 315.477C192.185 314.887 192.433 314.391 192.93 313.987C193.427 313.574 194.079 313.368 194.887 313.368C195.695 313.368 196.335 313.57 196.806 313.974C197.286 314.37 197.543 314.913 197.576 315.603H196.099C196.074 315.258 195.952 314.988 195.733 314.795C195.523 314.601 195.224 314.504 194.837 314.504C194.449 314.504 194.146 314.593 193.928 314.77C193.709 314.938 193.599 315.165 193.599 315.451C193.599 315.729 193.738 315.948 194.016 316.108C194.294 316.268 194.63 316.386 195.026 316.461C195.43 316.537 195.83 316.63 196.225 316.739C196.629 316.849 196.97 317.051 197.248 317.345C197.526 317.631 197.665 318.019 197.665 318.507C197.665 319.113 197.408 319.605 196.895 319.984C196.389 320.363 195.737 320.552 194.938 320.552C194.138 320.552 193.49 320.359 192.993 319.971C192.497 319.584 192.223 319.033 192.173 318.317H193.662C193.688 318.662 193.814 318.932 194.041 319.125C194.268 319.319 194.576 319.416 194.963 319.416C195.358 319.416 195.67 319.332 195.897 319.163C196.133 318.987 196.251 318.755 196.251 318.469C196.251 318.183 196.112 317.96 195.834 317.8C195.556 317.64 195.215 317.522 194.811 317.446C194.416 317.362 194.016 317.269 193.612 317.168C193.216 317.059 192.88 316.865 192.602 316.588C192.324 316.31 192.185 315.94 192.185 315.477ZM198.929 315.477C198.929 314.887 199.178 314.391 199.674 313.987C200.171 313.574 200.823 313.368 201.631 313.368C202.439 313.368 203.079 313.57 203.55 313.974C204.03 314.37 204.287 314.913 204.321 315.603H202.843C202.818 315.258 202.696 314.988 202.477 314.795C202.267 314.601 201.968 314.504 201.581 314.504C201.194 314.504 200.891 314.593 200.672 314.77C200.453 314.938 200.344 315.165 200.344 315.451C200.344 315.729 200.482 315.948 200.76 316.108C201.038 316.268 201.375 316.386 201.77 316.461C202.174 316.537 202.574 316.63 202.97 316.739C203.374 316.849 203.715 317.051 203.992 317.345C204.27 317.631 204.409 318.019 204.409 318.507C204.409 319.113 204.152 319.605 203.639 319.984C203.134 320.363 202.481 320.552 201.682 320.552C200.882 320.552 200.234 320.359 199.738 319.971C199.241 319.584 198.967 319.033 198.917 318.317H200.407C200.432 318.662 200.558 318.932 200.785 319.125C201.013 319.319 201.32 319.416 201.707 319.416C202.103 319.416 202.414 319.332 202.641 319.163C202.877 318.987 202.995 318.755 202.995 318.469C202.995 318.183 202.856 317.96 202.578 317.8C202.3 317.64 201.96 317.522 201.556 317.446C201.16 317.362 200.76 317.269 200.356 317.168C199.961 317.059 199.624 316.865 199.346 316.588C199.068 316.31 198.929 315.94 198.929 315.477ZM211.214 319.34H212.641C213.659 319.34 214.442 319.05 214.989 318.469C215.544 317.888 215.822 317.093 215.822 316.083C215.822 315.064 215.544 314.269 214.989 313.696C214.442 313.116 213.659 312.825 212.641 312.825H211.214V319.34ZM212.641 311.664C214.055 311.664 215.183 312.064 216.024 312.863C216.874 313.654 217.299 314.728 217.299 316.083C217.299 317.429 216.874 318.494 216.024 319.277C215.183 320.051 214.055 320.438 212.641 320.438H209.775V311.664H212.641ZM223.246 318.709C223.667 318.288 223.877 317.703 223.877 316.954C223.877 316.205 223.671 315.624 223.258 315.212C222.854 314.791 222.362 314.58 221.781 314.58C221.2 314.58 220.712 314.791 220.317 315.212C219.921 315.624 219.723 316.209 219.723 316.966C219.723 317.716 219.917 318.301 220.304 318.721C220.691 319.134 221.171 319.34 221.743 319.34C222.324 319.34 222.825 319.13 223.246 318.709ZM221.743 320.552C220.733 320.552 219.9 320.224 219.244 319.567C218.587 318.902 218.259 318.035 218.259 316.966C218.259 315.889 218.595 315.022 219.269 314.366C219.951 313.701 220.796 313.368 221.806 313.368C222.817 313.368 223.658 313.701 224.332 314.366C225.013 315.022 225.354 315.885 225.354 316.954C225.354 318.023 225.005 318.89 224.306 319.555C223.616 320.22 222.762 320.552 221.743 320.552ZM229.706 320.552C228.696 320.552 227.876 320.224 227.244 319.567C226.613 318.911 226.297 318.044 226.297 316.966C226.297 315.881 226.613 315.01 227.244 314.353C227.884 313.696 228.705 313.368 229.706 313.368C230.548 313.368 231.242 313.57 231.789 313.974C232.345 314.37 232.72 314.938 232.913 315.679H231.36C231.099 314.946 230.548 314.58 229.706 314.58C229.117 314.58 228.646 314.791 228.292 315.212C227.947 315.624 227.775 316.205 227.775 316.954C227.775 317.703 227.947 318.288 228.292 318.709C228.646 319.13 229.117 319.34 229.706 319.34C230.539 319.34 231.091 318.974 231.36 318.242H232.913C232.711 318.949 232.332 319.513 231.777 319.933C231.221 320.346 230.531 320.552 229.706 320.552ZM239.208 313.482H240.648V320.438H239.208V319.34C238.754 320.14 238.013 320.539 236.986 320.539C236.203 320.539 235.555 320.283 235.042 319.769C234.537 319.247 234.284 318.519 234.284 317.585V313.482H235.711V317.37C235.711 317.993 235.867 318.473 236.178 318.81C236.49 319.138 236.915 319.302 237.453 319.302C237.992 319.302 238.417 319.138 238.729 318.81C239.048 318.473 239.208 317.993 239.208 317.37V313.482ZM243.986 313.482V314.58C244.449 313.772 245.19 313.368 246.208 313.368C246.747 313.368 247.227 313.494 247.647 313.747C248.068 313.999 248.388 314.366 248.607 314.845C248.851 314.382 249.188 314.021 249.617 313.76C250.055 313.499 250.547 313.368 251.094 313.368C251.894 313.368 252.55 313.629 253.064 314.151C253.577 314.664 253.834 315.392 253.834 316.335V320.438H252.395V316.55C252.395 315.927 252.239 315.451 251.927 315.123C251.616 314.786 251.191 314.618 250.652 314.618C250.114 314.618 249.688 314.786 249.377 315.123C249.066 315.451 248.91 315.927 248.91 316.55V320.438H247.483V316.55C247.483 315.927 247.328 315.451 247.016 315.123C246.705 314.786 246.28 314.618 245.741 314.618C245.202 314.618 244.773 314.786 244.453 315.123C244.142 315.451 243.986 315.927 243.986 316.55V320.438H242.547V313.482H243.986ZM258.594 320.552C257.584 320.552 256.764 320.224 256.132 319.567C255.501 318.911 255.186 318.04 255.186 316.954C255.186 315.868 255.505 315.001 256.145 314.353C256.785 313.696 257.61 313.368 258.62 313.368C259.638 313.368 260.463 313.684 261.094 314.315C261.726 314.938 262.041 315.754 262.041 316.764C262.041 317.009 262.024 317.236 261.991 317.446H256.663C256.696 318.027 256.89 318.49 257.244 318.835C257.605 319.172 258.056 319.34 258.594 319.34C259.377 319.34 259.929 319.016 260.248 318.368H261.801C261.591 319.008 261.208 319.534 260.652 319.946C260.097 320.35 259.411 320.552 258.594 320.552ZM260.539 316.461C260.53 315.889 260.341 315.435 259.971 315.098C259.6 314.753 259.15 314.58 258.62 314.58C258.089 314.58 257.643 314.753 257.281 315.098C256.928 315.435 256.726 315.889 256.675 316.461H260.539ZM264.897 313.482V314.58C265.36 313.772 266.101 313.368 267.119 313.368C267.902 313.368 268.546 313.629 269.051 314.151C269.564 314.673 269.821 315.401 269.821 316.335V320.438H268.394V316.55C268.394 315.927 268.239 315.451 267.927 315.123C267.616 314.786 267.191 314.618 266.652 314.618C266.113 314.618 265.684 314.786 265.364 315.123C265.053 315.451 264.897 315.927 264.897 316.55V320.438H263.458V313.482H264.897ZM275.028 314.656H273.336V318.507C273.336 318.768 273.395 318.957 273.513 319.075C273.639 319.184 273.849 319.239 274.144 319.239H275.028V320.438H273.892C272.553 320.438 271.884 319.795 271.884 318.507V314.656H271.063V313.482H271.884V311.752H273.336V313.482H275.028V314.656Z" fill="black"/>
<g clip-path="url(#clip2_18_2)">
<path d="M223.699 448.675H221.735V487.46H223.699C225.399 487.46 226.776 485.986 226.776 484.167V451.967C226.776 450.149 225.399 448.675 223.699 448.675Z" fill="url(#paint0_linear_18_2)"/>
<path d="M223.699 448.675H221.735V487.46H223.699C225.399 487.46 226.776 485.986 226.776 484.167V451.967C226.776 450.149 225.399 448.675 223.699 448.675Z" fill="url(#paint1_linear_18_2)"/>
<path d="M223.342 449.409H221.735V486.726H223.342C224.732 486.726 225.86 485.307 225.86 483.558V452.577C225.86 450.828 224.733 449.409 223.342 449.409Z" fill="url(#paint2_linear_18_2)"/>
<path d="M214.918 489.33H203.239C202.706 489.33 202.273 488.898 202.273 488.364V446.399C202.273 445.865 202.706 445.433 203.239 445.433H214.918C215.452 445.433 215.884 445.865 215.884 446.399V488.364C215.884 488.898 215.452 489.33 214.918 489.33Z" fill="url(#paint3_linear_18_2)"/>
<path d="M218.117 448.979H212.103V447.88C212.103 447.446 212.454 447.095 212.888 447.095H217.332C217.766 447.095 218.118 447.446 218.118 447.88V448.979H218.117Z" fill="url(#paint4_linear_18_2)"/>
<path d="M223.788 449.698C223.26 449.143 222.54 448.772 221.735 448.692V487.46H223.699C225.399 487.46 226.776 485.986 226.776 484.168V452.686L223.788 449.698Z" fill="url(#paint5_linear_18_2)"/>
<path d="M221.404 487.46H199.645C198.76 487.46 198.043 486.743 198.043 485.858V450.277C198.043 449.392 198.76 448.675 199.645 448.675H221.404C223.222 448.675 224.697 450.149 224.697 451.967V484.167C224.696 485.986 223.222 487.46 221.404 487.46Z" fill="url(#paint6_linear_18_2)"/>
<path d="M224.696 466.043L215.994 457.34C214.862 456.1 213.239 455.401 211.436 455.382C211.414 455.381 211.325 455.381 211.303 455.382C207.903 455.417 205.231 458.089 205.196 461.489C205.195 461.512 205.195 461.6 205.196 461.622C205.215 463.426 205.914 465.048 207.154 466.18L224.697 483.722V466.043H224.696Z" fill="url(#paint7_linear_18_2)"/>
<path d="M217.629 461.622C217.63 461.6 217.631 461.577 217.631 461.556C217.631 461.534 217.63 461.512 217.629 461.489C217.594 458.089 214.836 455.331 211.436 455.296C211.413 455.295 211.391 455.294 211.369 455.294C211.348 455.294 211.325 455.295 211.303 455.296C207.903 455.331 205.145 458.089 205.11 461.489C205.108 461.512 205.108 461.534 205.108 461.556C205.108 461.577 205.108 461.6 205.11 461.622C205.145 465.022 207.903 467.78 211.303 467.816C211.325 467.817 211.348 467.817 211.369 467.817C211.391 467.817 211.413 467.817 211.436 467.816C214.836 467.78 217.593 465.022 217.629 461.622ZM214.035 462.853C214.07 462.431 214.089 461.997 214.089 461.556C214.089 461.114 214.07 460.681 214.035 460.259C215.624 460.599 216.467 461.194 216.467 461.556C216.467 461.917 215.624 462.513 214.035 462.853ZM211.369 466.654C211.008 466.654 210.412 465.81 210.072 464.221C210.494 464.256 210.928 464.275 211.369 464.275C211.81 464.275 212.244 464.256 212.666 464.221C212.326 465.81 211.731 466.654 211.369 466.654ZM211.369 463.112C210.836 463.112 210.342 463.085 209.888 463.037C209.84 462.583 209.813 462.089 209.813 461.556C209.813 461.022 209.84 460.528 209.888 460.074C210.342 460.027 210.836 459.999 211.369 459.999C211.903 459.999 212.397 460.027 212.851 460.074C212.898 460.528 212.926 461.022 212.926 461.556C212.926 462.089 212.898 462.583 212.851 463.037C212.397 463.085 211.903 463.112 211.369 463.112ZM206.271 461.556C206.271 461.194 207.115 460.599 208.704 460.259C208.669 460.681 208.65 461.114 208.65 461.556C208.65 461.997 208.669 462.431 208.704 462.853C207.115 462.513 206.271 461.917 206.271 461.556ZM211.369 456.457C211.731 456.457 212.326 457.301 212.666 458.89C212.244 458.855 211.81 458.836 211.369 458.836C210.928 458.836 210.494 458.855 210.072 458.89C210.412 457.301 211.008 456.457 211.369 456.457ZM216.128 459.73C215.966 459.651 215.788 459.574 215.591 459.5C215.084 459.309 214.505 459.157 213.879 459.046C213.768 458.42 213.616 457.841 213.426 457.334C213.351 457.137 213.274 456.959 213.195 456.797C214.54 457.315 215.61 458.385 216.128 459.73ZM209.543 456.797C209.464 456.959 209.387 457.137 209.313 457.334C209.122 457.841 208.97 458.42 208.86 459.046C208.234 459.157 207.655 459.309 207.148 459.5C206.951 459.574 206.773 459.651 206.611 459.73C207.128 458.385 208.199 457.315 209.543 456.797ZM206.611 463.382C206.773 463.461 206.951 463.538 207.148 463.612C207.655 463.802 208.234 463.955 208.86 464.065C208.97 464.691 209.122 465.27 209.313 465.777C209.387 465.974 209.464 466.152 209.543 466.314C208.199 465.797 207.128 464.726 206.611 463.382ZM213.195 466.314C213.274 466.152 213.351 465.974 213.426 465.777C213.616 465.27 213.768 464.691 213.879 464.065C214.505 463.955 215.084 463.802 215.591 463.612C215.788 463.538 215.966 463.461 216.128 463.382C215.61 464.726 214.54 465.797 213.195 466.314Z" fill="url(#paint8_linear_18_2)"/>
<path d="M218.665 476.793H204.074C203.722 476.793 203.437 476.507 203.437 476.155V475.05C203.437 474.698 203.722 474.413 204.074 474.413H218.665C219.017 474.413 219.302 474.698 219.302 475.05V476.155C219.302 476.507 219.017 476.793 218.665 476.793Z" fill="#F35227"/>
<path d="M215.247 480.841H207.492C207.14 480.841 206.855 480.556 206.855 480.203V479.099C206.855 478.747 207.14 478.461 207.492 478.461H215.247C215.599 478.461 215.884 478.747 215.884 479.099V480.203C215.884 480.556 215.599 480.841 215.247 480.841Z" fill="#F35227"/>
<path d="M201.004 448.675H199.645C198.76 448.675 198.043 449.392 198.043 450.277V485.858C198.043 486.743 198.76 487.46 199.645 487.46H201.004V448.675Z" fill="url(#paint9_linear_18_2)"/>
</g>
<circle cx="212.409" cy="467.382" r="32.3741" stroke="#464040" stroke-width="1.09743"/>
<circle cx="212.409" cy="434.459" r="8.77941" fill="#464040"/>
<path d="M209.641 432.567C209.663 431.85 209.916 431.294 210.398 430.899C210.889 430.497 211.525 430.296 212.308 430.296C213.098 430.296 213.716 430.497 214.163 430.899C214.609 431.294 214.832 431.795 214.832 432.403C214.832 432.871 214.711 433.266 214.47 433.588C214.228 433.902 213.958 434.111 213.658 434.213V434.257C214.536 434.557 214.975 435.219 214.975 436.244C214.975 436.924 214.741 437.473 214.272 437.89C213.804 438.307 213.16 438.515 212.341 438.515C211.521 438.515 210.852 438.307 210.333 437.89C209.813 437.473 209.542 436.862 209.52 436.057H211.013C211.028 436.416 211.148 436.705 211.375 436.924C211.609 437.136 211.92 437.242 212.308 437.242C212.696 437.242 212.988 437.14 213.186 436.935C213.391 436.723 213.493 436.423 213.493 436.035C213.493 435.647 213.354 435.362 213.076 435.179C212.805 434.989 212.374 434.894 211.781 434.894H211.463V433.632H211.781C212.82 433.632 213.34 433.284 213.34 432.589C213.34 432.289 213.244 432.051 213.054 431.876C212.864 431.7 212.593 431.613 212.242 431.613C211.891 431.613 211.628 431.711 211.452 431.909C211.276 432.106 211.174 432.326 211.145 432.567H209.641Z" fill="white"/>
<path d="M175.146 520.278L171.839 511.503H173.379L175.967 518.788L178.581 511.503H180.108L176.813 520.278H175.146ZM182.953 511.478C182.953 511.739 182.865 511.958 182.688 512.135C182.511 512.312 182.293 512.4 182.032 512.4C181.779 512.4 181.564 512.312 181.388 512.135C181.211 511.958 181.123 511.739 181.123 511.478C181.123 511.217 181.211 510.998 181.388 510.822C181.564 510.645 181.779 510.557 182.032 510.557C182.293 510.557 182.511 510.645 182.688 510.822C182.865 510.998 182.953 511.217 182.953 511.478ZM181.312 520.278V513.322H182.751V520.278H181.312ZM184.325 515.316C184.325 514.727 184.574 514.231 185.07 513.827C185.567 513.414 186.219 513.208 187.027 513.208C187.835 513.208 188.475 513.41 188.946 513.814C189.426 514.21 189.683 514.752 189.716 515.443H188.239C188.214 515.098 188.092 514.828 187.873 514.635C187.663 514.441 187.364 514.344 186.977 514.344C186.59 514.344 186.286 514.433 186.068 514.609C185.849 514.778 185.739 515.005 185.739 515.291C185.739 515.569 185.878 515.788 186.156 515.948C186.434 516.108 186.77 516.225 187.166 516.301C187.57 516.377 187.97 516.47 188.365 516.579C188.77 516.688 189.11 516.89 189.388 517.185C189.666 517.471 189.805 517.858 189.805 518.346C189.805 518.953 189.548 519.445 189.035 519.824C188.53 520.202 187.877 520.392 187.078 520.392C186.278 520.392 185.63 520.198 185.133 519.811C184.637 519.424 184.363 518.873 184.313 518.157H185.803C185.828 518.502 185.954 518.772 186.181 518.965C186.409 519.159 186.716 519.256 187.103 519.256C187.499 519.256 187.81 519.171 188.037 519.003C188.273 518.826 188.391 518.595 188.391 518.309C188.391 518.022 188.252 517.799 187.974 517.639C187.696 517.48 187.355 517.362 186.951 517.286C186.556 517.202 186.156 517.109 185.752 517.008C185.356 516.899 185.02 516.705 184.742 516.427C184.464 516.15 184.325 515.779 184.325 515.316ZM195.968 518.511C196.389 518.081 196.6 517.509 196.6 516.794C196.6 516.078 196.389 515.51 195.968 515.089C195.556 514.668 195.063 514.458 194.491 514.458C193.919 514.458 193.422 514.664 193.001 515.076C192.589 515.489 192.383 516.053 192.383 516.768C192.383 517.484 192.589 518.06 193.001 518.498C193.422 518.927 193.919 519.142 194.491 519.142C195.063 519.142 195.556 518.931 195.968 518.511ZM194.188 520.392C193.262 520.392 192.484 520.055 191.852 519.382C191.221 518.7 190.905 517.833 190.905 516.781C190.905 515.72 191.217 514.862 191.84 514.205C192.471 513.54 193.254 513.208 194.188 513.208C194.735 513.208 195.215 513.334 195.627 513.587C196.048 513.831 196.372 514.155 196.6 514.559V513.322H198.052V520.278H196.6V518.978C196.364 519.407 196.04 519.752 195.627 520.013C195.215 520.266 194.735 520.392 194.188 520.392ZM206.757 511.503C207.751 511.503 208.516 511.752 209.055 512.248C209.594 512.737 209.863 513.351 209.863 514.092C209.863 514.824 209.606 515.447 209.093 515.96C208.588 516.465 207.809 516.718 206.757 516.718H205.166V520.278H203.727V511.503H206.757ZM205.166 515.594H206.757C207.304 515.594 207.713 515.464 207.982 515.203C208.251 514.942 208.386 514.58 208.386 514.117C208.386 513.646 208.251 513.279 207.982 513.019C207.713 512.758 207.304 512.627 206.757 512.627H205.166V515.594ZM212.675 513.322V514.534C213.121 513.65 213.816 513.208 214.758 513.208V514.698H214.392C213.828 514.698 213.399 514.841 213.104 515.127C212.818 515.413 212.675 515.91 212.675 516.617V520.278H211.236V513.322H212.675ZM220.601 518.549C221.022 518.128 221.233 517.543 221.233 516.794C221.233 516.044 221.026 515.464 220.614 515.051C220.21 514.63 219.718 514.42 219.137 514.42C218.556 514.42 218.068 514.63 217.672 515.051C217.277 515.464 217.079 516.049 217.079 516.806C217.079 517.555 217.272 518.14 217.66 518.561C218.047 518.974 218.527 519.18 219.099 519.18C219.68 519.18 220.181 518.969 220.601 518.549ZM219.099 520.392C218.089 520.392 217.256 520.064 216.599 519.407C215.943 518.742 215.614 517.875 215.614 516.806C215.614 515.729 215.951 514.862 216.624 514.205C217.306 513.54 218.152 513.208 219.162 513.208C220.172 513.208 221.014 513.54 221.687 514.205C222.369 514.862 222.71 515.725 222.71 516.794C222.71 517.863 222.361 518.729 221.662 519.394C220.972 520.059 220.117 520.392 219.099 520.392ZM227.062 520.392C226.052 520.392 225.231 520.064 224.6 519.407C223.969 518.751 223.653 517.884 223.653 516.806C223.653 515.72 223.969 514.849 224.6 514.193C225.24 513.536 226.06 513.208 227.062 513.208C227.903 513.208 228.598 513.41 229.145 513.814C229.701 514.21 230.075 514.778 230.269 515.518H228.716C228.455 514.786 227.903 514.42 227.062 514.42C226.473 514.42 226.001 514.63 225.648 515.051C225.303 515.464 225.13 516.044 225.13 516.794C225.13 517.543 225.303 518.128 225.648 518.549C226.001 518.969 226.473 519.18 227.062 519.18C227.895 519.18 228.446 518.814 228.716 518.081H230.269C230.067 518.788 229.688 519.352 229.132 519.773C228.577 520.186 227.887 520.392 227.062 520.392ZM234.632 520.392C233.622 520.392 232.801 520.064 232.17 519.407C231.539 518.751 231.223 517.879 231.223 516.794C231.223 515.708 231.543 514.841 232.183 514.193C232.823 513.536 233.647 513.208 234.657 513.208C235.676 513.208 236.501 513.524 237.132 514.155C237.763 514.778 238.079 515.594 238.079 516.604C238.079 516.848 238.062 517.076 238.028 517.286H232.7C232.734 517.867 232.928 518.33 233.281 518.675C233.643 519.011 234.093 519.18 234.632 519.18C235.415 519.18 235.966 518.856 236.286 518.208H237.839C237.629 518.847 237.246 519.373 236.69 519.786C236.135 520.19 235.449 520.392 234.632 520.392ZM236.576 516.301C236.568 515.729 236.379 515.274 236.008 514.938C235.638 514.593 235.188 514.42 234.657 514.42C234.127 514.42 233.681 514.593 233.319 514.938C232.966 515.274 232.764 515.729 232.713 516.301H236.576ZM239.18 515.316C239.18 514.727 239.428 514.231 239.925 513.827C240.421 513.414 241.074 513.208 241.882 513.208C242.69 513.208 243.329 513.41 243.801 513.814C244.28 514.21 244.537 514.752 244.571 515.443H243.094C243.068 515.098 242.946 514.828 242.727 514.635C242.517 514.441 242.218 514.344 241.831 514.344C241.444 514.344 241.141 514.433 240.922 514.609C240.703 514.778 240.594 515.005 240.594 515.291C240.594 515.569 240.733 515.788 241.01 515.948C241.288 516.108 241.625 516.225 242.02 516.301C242.424 516.377 242.824 516.47 243.22 516.579C243.624 516.688 243.965 516.89 244.243 517.185C244.52 517.471 244.659 517.858 244.659 518.346C244.659 518.953 244.402 519.445 243.889 519.824C243.384 520.202 242.732 520.392 241.932 520.392C241.132 520.392 240.484 520.198 239.988 519.811C239.491 519.424 239.218 518.873 239.167 518.157H240.657C240.682 518.502 240.808 518.772 241.036 518.965C241.263 519.159 241.57 519.256 241.957 519.256C242.353 519.256 242.664 519.171 242.892 519.003C243.127 518.826 243.245 518.595 243.245 518.309C243.245 518.022 243.106 517.799 242.828 517.639C242.551 517.48 242.21 517.362 241.806 517.286C241.41 517.202 241.01 517.109 240.606 517.008C240.211 516.899 239.874 516.705 239.596 516.427C239.319 516.15 239.18 515.779 239.18 515.316ZM245.924 515.316C245.924 514.727 246.172 514.231 246.669 513.827C247.166 513.414 247.818 513.208 248.626 513.208C249.434 513.208 250.074 513.41 250.545 513.814C251.025 514.21 251.281 514.752 251.315 515.443H249.838C249.813 515.098 249.691 514.828 249.472 514.635C249.261 514.441 248.963 514.344 248.575 514.344C248.188 514.344 247.885 514.433 247.666 514.609C247.447 514.778 247.338 515.005 247.338 515.291C247.338 515.569 247.477 515.788 247.755 515.948C248.032 516.108 248.369 516.225 248.765 516.301C249.169 516.377 249.569 516.47 249.964 516.579C250.368 516.688 250.709 516.89 250.987 517.185C251.265 517.471 251.403 517.858 251.403 518.346C251.403 518.953 251.147 519.445 250.633 519.824C250.128 520.202 249.476 520.392 248.676 520.392C247.877 520.392 247.229 520.198 246.732 519.811C246.235 519.424 245.962 518.873 245.911 518.157H247.401C247.426 518.502 247.553 518.772 247.78 518.965C248.007 519.159 248.314 519.256 248.702 519.256C249.097 519.256 249.409 519.171 249.636 519.003C249.872 518.826 249.989 518.595 249.989 518.309C249.989 518.022 249.851 517.799 249.573 517.639C249.295 517.48 248.954 517.362 248.55 517.286C248.155 517.202 247.755 517.109 247.351 517.008C246.955 516.899 246.618 516.705 246.341 516.427C246.063 516.15 245.924 515.779 245.924 515.316Z" fill="black"/>
<g clip-path="url(#clip3_18_2)">
<path d="M234.29 667.165C234.314 676.645 228.327 684.73 219.927 687.824C219.078 688.136 218.177 687.509 218.177 686.605C218.177 683.429 215.602 680.854 212.426 680.854H196.495C195.618 680.854 194.79 680.431 194.29 679.709C191.833 676.164 190.393 671.861 190.393 667.221C190.393 655.114 200.196 645.297 212.298 645.273C224.375 645.249 234.26 655.088 234.29 667.165Z" fill="#5F55AF"/>
<path d="M233.262 667.05C233.262 677.278 224.971 685.569 214.743 685.569C204.515 685.569 196.224 677.278 196.224 667.05C196.224 656.822 204.515 648.531 214.743 648.531C224.971 648.531 233.262 656.822 233.262 667.05Z" fill="#6A61B4"/>
<path d="M219.973 658.562V687.807C217.596 688.688 215.025 689.17 212.342 689.17C206.166 689.17 200.585 686.619 196.597 682.513C195.08 680.952 194.252 678.848 194.252 676.672V658.562C194.252 658.088 194.635 657.704 195.109 657.704H219.115C219.589 657.704 219.973 658.088 219.973 658.562Z" fill="#A7D0FC"/>
<path d="M197.776 657.704C197.302 657.704 196.919 658.088 196.919 658.562V682.837C195.933 681.864 195.04 680.798 194.252 679.654V658.562C194.252 658.088 194.635 657.704 195.109 657.704H197.776Z" fill="#86BEFB"/>
<path d="M196.395 666.278C196.395 666.041 196.587 665.849 196.824 665.849H201.111C201.347 665.849 201.539 666.041 201.539 666.278C201.539 666.515 201.347 666.707 201.111 666.707H196.824C196.587 666.707 196.395 666.515 196.395 666.278ZM196.824 670.136H209.684C209.921 670.136 210.113 669.944 210.113 669.708C210.113 669.471 209.921 669.279 209.684 669.279H196.824C196.587 669.279 196.395 669.471 196.395 669.708C196.395 669.944 196.587 670.136 196.824 670.136ZM196.824 664.992H203.683C203.919 664.992 204.111 664.8 204.111 664.563C204.111 664.327 203.919 664.135 203.683 664.135H196.824C196.587 664.135 196.395 664.327 196.395 664.563C196.395 664.8 196.587 664.992 196.824 664.992ZM196.824 663.277H202.825C203.062 663.277 203.254 663.085 203.254 662.849C203.254 662.612 203.062 662.42 202.825 662.42H196.824C196.587 662.42 196.395 662.612 196.395 662.849C196.395 663.085 196.587 663.277 196.824 663.277ZM196.824 660.705H198.538C198.775 660.705 198.967 660.513 198.967 660.277C198.967 660.04 198.775 659.848 198.538 659.848H196.824C196.587 659.848 196.395 660.04 196.395 660.277C196.395 660.513 196.587 660.705 196.824 660.705ZM196.824 673.566H206.255C206.491 673.566 206.683 673.374 206.683 673.137C206.683 672.9 206.491 672.708 206.255 672.708H196.824C196.587 672.708 196.395 672.9 196.395 673.137C196.395 673.374 196.587 673.566 196.824 673.566ZM211.399 670.994H196.824C196.587 670.994 196.395 671.186 196.395 671.422C196.395 671.659 196.587 671.851 196.824 671.851H211.399C211.636 671.851 211.828 671.659 211.828 671.422C211.828 671.186 211.636 670.994 211.399 670.994ZM217.4 685.569H215.686C215.449 685.569 215.257 685.761 215.257 685.997C215.257 686.234 215.449 686.426 215.686 686.426H217.4C217.637 686.426 217.829 686.234 217.829 685.997C217.829 685.761 217.637 685.569 217.4 685.569ZM196.824 675.28H209.684C209.921 675.28 210.113 675.088 210.113 674.852C210.113 674.615 209.921 674.423 209.684 674.423H196.824C196.587 674.423 196.395 674.615 196.395 674.852C196.395 675.088 196.587 675.28 196.824 675.28ZM211.399 676.138H196.824C196.587 676.138 196.395 676.33 196.395 676.566C196.395 676.803 196.587 676.995 196.824 676.995H211.399C211.636 676.995 211.828 676.803 211.828 676.566C211.828 676.33 211.636 676.138 211.399 676.138Z" fill="#76B6FA"/>
<path d="M206.683 649.56V682.139C206.683 682.613 206.3 682.997 205.826 682.997H204.111C203.638 682.997 203.254 682.613 203.254 682.139V649.56C203.254 649.086 203.638 648.702 204.111 648.702H205.826C206.3 648.702 206.683 649.086 206.683 649.56Z" fill="#C8E2FD"/>
<path d="M228.975 649.56V682.139C228.975 682.613 228.591 682.997 228.117 682.997H205.826C205.352 682.997 204.969 682.613 204.969 682.139V649.56C204.969 649.086 205.352 648.702 205.826 648.702H228.117C228.591 648.702 228.975 649.086 228.975 649.56Z" fill="#E9F3FE"/>
<path d="M226.403 664.563V676.566C226.403 676.803 226.211 676.995 225.974 676.995H206.255C206.018 676.995 205.826 676.803 205.826 676.566V664.563C205.826 664.327 206.018 664.135 206.255 664.135H225.974C226.211 664.135 226.403 664.327 226.403 664.563Z" fill="#A7D0FC"/>
<path d="M205.826 651.703C205.826 651.466 206.018 651.274 206.255 651.274H207.969C208.206 651.274 208.398 651.466 208.398 651.703C208.398 651.94 208.206 652.132 207.969 652.132H206.255C206.018 652.132 205.826 651.94 205.826 651.703ZM207.969 661.563H206.255C206.018 661.563 205.826 661.755 205.826 661.991C205.826 662.228 206.018 662.42 206.255 662.42H207.969C208.206 662.42 208.398 662.228 208.398 661.991C208.398 661.755 208.206 661.563 207.969 661.563ZM206.255 654.704H212.256C212.493 654.704 212.685 654.512 212.685 654.275C212.685 654.038 212.493 653.846 212.256 653.846H206.255C206.018 653.846 205.826 654.038 205.826 654.275C205.826 654.512 206.018 654.704 206.255 654.704ZM225.974 679.567H224.259C224.023 679.567 223.831 679.759 223.831 679.996C223.831 680.233 224.023 680.425 224.259 680.425H225.974C226.211 680.425 226.403 680.233 226.403 679.996C226.403 679.759 226.211 679.567 225.974 679.567ZM210.541 657.276H206.255C206.018 657.276 205.826 657.468 205.826 657.704C205.826 657.941 206.018 658.133 206.255 658.133H210.541C210.778 658.133 210.97 657.941 210.97 657.704C210.97 657.468 210.778 657.276 210.541 657.276ZM213.114 655.561H206.255C206.018 655.561 205.826 655.753 205.826 655.99C205.826 656.226 206.018 656.418 206.255 656.418H213.114C213.35 656.418 213.542 656.226 213.542 655.99C213.542 655.753 213.35 655.561 213.114 655.561Z" fill="#8C96DD"/>
<path d="M226.403 666.707V667.564H205.826V666.707H226.403ZM205.826 670.994H226.403V670.136H205.826V670.994ZM205.826 674.423H226.403V673.566H205.826V674.423Z" fill="#76B6FA"/>
<path d="M226.403 670.693V671.551H225.687L219.799 675.925C219.725 675.98 219.635 676.009 219.544 676.009C219.515 676.009 219.486 676.006 219.457 676C219.337 675.975 219.233 675.901 219.172 675.795L216.724 671.551H214.4C214.249 671.551 214.109 671.472 214.032 671.343L211.047 666.367L207.903 671.351C207.825 671.475 207.688 671.551 207.541 671.551H205.826V670.693H207.304L210.693 665.321C210.772 665.196 210.909 665.121 211.056 665.121H211.061C211.209 665.122 211.347 665.201 211.423 665.329L214.642 670.693H216.972C217.125 670.693 217.266 670.775 217.343 670.908L219.675 674.949L225.29 670.778C225.364 670.723 225.453 670.694 225.545 670.694H226.403V670.693Z" fill="#5766CE"/>
<path d="M224.076 657.216L220.844 669.279L219.164 667.661L216.901 668.222L220.133 656.159L224.076 657.216Z" fill="#84B017"/>
<path d="M232.243 668.222L229.979 667.661L228.299 669.279L225.067 657.216L229.01 656.159L232.243 668.222Z" fill="#9BCF1B"/>
<path d="M232.558 648.525V655.889C232.558 660.02 229.124 663.462 224.571 664.228C220.019 663.462 216.584 660.02 216.584 655.889V648.525L224.571 645.783L232.558 648.525Z" fill="#FFF36C"/>
<path d="M221.352 647.957C221.352 647.574 221.595 647.233 221.957 647.109L224.435 646.259L232.07 648.88V654.797C232.07 655.292 231.669 655.693 231.174 655.693H231.174C230.679 655.693 230.277 655.292 230.277 654.797V650.16L224.571 648.205L222.676 648.856C222.094 649.056 221.352 648.572 221.352 647.957Z" fill="#FFF68E"/>
<path d="M232.725 648.042L224.737 645.3C224.63 645.264 224.513 645.264 224.406 645.3L216.419 648.042C216.212 648.113 216.074 648.307 216.074 648.525V655.889C216.074 660.193 219.612 663.911 224.487 664.731C224.515 664.736 224.543 664.738 224.572 664.738C224.6 664.738 224.628 664.736 224.656 664.731C229.531 663.911 233.069 660.193 233.069 655.889V648.525C233.069 648.307 232.931 648.113 232.725 648.042ZM232.049 655.889C232.049 659.668 228.909 662.945 224.572 663.71C220.234 662.945 217.095 659.668 217.095 655.889V648.889L224.572 646.323L232.049 648.889V655.889Z" fill="#E9CC5A"/>
<path d="M230.293 650.143V655.889C230.293 658.726 227.909 661.215 224.571 661.922C221.234 661.215 218.85 658.726 218.85 655.889V650.143L224.571 648.179L230.293 650.143Z" fill="#E1B91E"/>
<path d="M230.293 650.143V655.889C230.293 658.201 228.71 660.281 226.318 661.355C224.631 658.563 223.659 655.289 223.659 651.789C223.659 650.626 223.766 649.488 223.971 648.385L224.571 648.179L230.293 650.143Z" fill="#EAC23F"/>
<path d="M224.233 650.718C224.233 651.14 223.89 651.483 223.467 651.483C223.045 651.483 222.702 651.14 222.702 650.718C222.702 650.295 223.045 649.952 223.467 649.952C223.89 649.952 224.233 650.295 224.233 650.718Z" fill="#FFF36C"/>
<path d="M225.84 649.697C225.84 649.979 225.612 650.207 225.33 650.207C225.048 650.207 224.82 649.979 224.82 649.697C224.82 649.415 225.048 649.187 225.33 649.187C225.612 649.187 225.84 649.415 225.84 649.697Z" fill="#FFF68E"/>
<path d="M227.245 659.333H221.7C221.123 659.333 220.738 658.738 220.974 658.211L223.459 652.668H225.486L227.971 658.211C228.207 658.738 227.822 659.333 227.245 659.333Z" fill="#C8E2FD"/>
<path d="M223.407 659.333H221.7C221.123 659.333 220.738 658.738 220.974 658.211L223.459 652.668H225.167L222.681 658.211C222.445 658.738 222.83 659.333 223.407 659.333Z" fill="#A7D0FC"/>
<path d="M226.007 652.586V652.75C226.007 652.986 225.815 653.178 225.578 653.178H223.367C223.13 653.178 222.938 652.986 222.938 652.75V652.586C222.938 652.35 223.13 652.158 223.367 652.158H225.578C225.815 652.158 226.007 652.35 226.007 652.586Z" fill="#E9F3FE"/>
<path d="M226.797 658.229C226.777 658.261 226.717 658.334 226.604 658.334H222.341C222.228 658.334 222.169 658.261 222.148 658.229C222.128 658.198 222.086 658.113 222.132 658.01L223.511 654.935H225.435L226.814 658.01C226.86 658.113 226.817 658.198 226.797 658.229Z" fill="#5766CE"/>
<path d="M224.076 658.334H222.341C222.228 658.334 222.168 658.261 222.148 658.229C222.128 658.198 222.085 658.113 222.131 658.01L223.51 654.935H224.076V658.334H224.076Z" fill="#3D4EC6"/>
</g>
<circle cx="212.342" cy="667.221" r="32.3741" stroke="#464040" stroke-width="1.09743"/>
<circle cx="212.342" cy="634.298" r="8.77941" fill="#464040"/>
<path d="M212.17 635.414V632.078L209.975 635.414H212.17ZM212.071 638.311V636.753H208.241V635.546L211.818 630.41H213.607V635.414H214.573V636.753H213.607V638.311H212.071Z" fill="white"/>
<path d="M159.962 711.343H163.308C164.209 711.343 164.907 711.562 165.404 712C165.9 712.437 166.149 712.993 166.149 713.666C166.149 714.651 165.581 715.299 164.444 715.61C165.017 715.703 165.475 715.96 165.821 716.381C166.174 716.793 166.351 717.269 166.351 717.807C166.351 718.481 166.09 719.036 165.568 719.474C165.046 719.903 164.348 720.118 163.472 720.118H159.962V711.343ZM161.402 712.467V715.068H163.182C163.653 715.068 164.019 714.954 164.28 714.727C164.55 714.499 164.684 714.184 164.684 713.78C164.684 713.367 164.55 713.048 164.28 712.82C164.019 712.585 163.653 712.467 163.182 712.467H161.402ZM161.402 718.994H163.346C163.834 718.994 164.217 718.872 164.495 718.628C164.773 718.384 164.911 718.047 164.911 717.618C164.911 717.18 164.764 716.835 164.47 716.583C164.175 716.322 163.784 716.191 163.295 716.191H161.402V718.994ZM172.776 713.161H174.215V720.118H172.776V719.019C172.321 719.819 171.58 720.219 170.554 720.219C169.771 720.219 169.123 719.962 168.609 719.449C168.104 718.927 167.852 718.199 167.852 717.264V713.161H169.278V717.05C169.278 717.673 169.434 718.152 169.746 718.489C170.057 718.817 170.482 718.982 171.021 718.982C171.559 718.982 171.984 718.817 172.296 718.489C172.616 718.152 172.776 717.673 172.776 717.05V713.161ZM175.798 715.156C175.798 714.567 176.047 714.07 176.543 713.666C177.04 713.254 177.692 713.048 178.5 713.048C179.308 713.048 179.948 713.25 180.419 713.654C180.899 714.049 181.156 714.592 181.19 715.282H179.712C179.687 714.937 179.565 714.668 179.346 714.474C179.136 714.281 178.837 714.184 178.45 714.184C178.063 714.184 177.76 714.272 177.541 714.449C177.322 714.617 177.212 714.845 177.212 715.131C177.212 715.408 177.351 715.627 177.629 715.787C177.907 715.947 178.244 716.065 178.639 716.141C179.043 716.217 179.443 716.309 179.839 716.419C180.243 716.528 180.583 716.73 180.861 717.025C181.139 717.311 181.278 717.698 181.278 718.186C181.278 718.792 181.021 719.285 180.508 719.663C180.003 720.042 179.35 720.231 178.551 720.231C177.751 720.231 177.103 720.038 176.606 719.651C176.11 719.263 175.836 718.712 175.786 717.997H177.276C177.301 718.342 177.427 718.611 177.654 718.805C177.882 718.998 178.189 719.095 178.576 719.095C178.972 719.095 179.283 719.011 179.51 718.843C179.746 718.666 179.864 718.434 179.864 718.148C179.864 717.862 179.725 717.639 179.447 717.479C179.169 717.319 178.829 717.201 178.425 717.126C178.029 717.041 177.629 716.949 177.225 716.848C176.829 716.738 176.493 716.545 176.215 716.267C175.937 715.989 175.798 715.619 175.798 715.156ZM184.5 711.318C184.5 711.579 184.411 711.798 184.235 711.974C184.058 712.151 183.839 712.239 183.578 712.239C183.325 712.239 183.111 712.151 182.934 711.974C182.757 711.798 182.669 711.579 182.669 711.318C182.669 711.057 182.757 710.838 182.934 710.661C183.111 710.485 183.325 710.396 183.578 710.396C183.839 710.396 184.058 710.485 184.235 710.661C184.411 710.838 184.5 711.057 184.5 711.318ZM182.858 720.118V713.161H184.298V720.118H182.858ZM187.627 713.161V714.26C188.09 713.452 188.83 713.048 189.849 713.048C190.632 713.048 191.275 713.308 191.78 713.83C192.294 714.352 192.551 715.08 192.551 716.015V720.118H191.124V716.229C191.124 715.606 190.968 715.131 190.657 714.802C190.345 714.466 189.92 714.297 189.382 714.297C188.843 714.297 188.414 714.466 188.094 714.802C187.782 715.131 187.627 715.606 187.627 716.229V720.118H186.187V713.161H187.627ZM197.316 720.231C196.306 720.231 195.485 719.903 194.854 719.247C194.222 718.59 193.907 717.719 193.907 716.633C193.907 715.547 194.227 714.68 194.866 714.032C195.506 713.376 196.331 713.048 197.341 713.048C198.359 713.048 199.184 713.363 199.815 713.994C200.447 714.617 200.762 715.434 200.762 716.444C200.762 716.688 200.746 716.915 200.712 717.126H195.384C195.418 717.706 195.611 718.169 195.965 718.514C196.327 718.851 196.777 719.019 197.316 719.019C198.098 719.019 198.65 718.695 198.97 718.047H200.523C200.312 718.687 199.929 719.213 199.374 719.625C198.818 720.029 198.132 720.231 197.316 720.231ZM199.26 716.141C199.252 715.568 199.062 715.114 198.692 714.777C198.321 714.432 197.871 714.26 197.341 714.26C196.811 714.26 196.365 714.432 196.003 714.777C195.649 715.114 195.447 715.568 195.397 716.141H199.26ZM201.863 715.156C201.863 714.567 202.111 714.07 202.608 713.666C203.105 713.254 203.757 713.048 204.565 713.048C205.373 713.048 206.013 713.25 206.484 713.654C206.964 714.049 207.221 714.592 207.254 715.282H205.777C205.752 714.937 205.63 714.668 205.411 714.474C205.201 714.281 204.902 714.184 204.515 714.184C204.127 714.184 203.824 714.272 203.605 714.449C203.387 714.617 203.277 714.845 203.277 715.131C203.277 715.408 203.416 715.627 203.694 715.787C203.972 715.947 204.308 716.065 204.704 716.141C205.108 716.217 205.508 716.309 205.903 716.419C206.307 716.528 206.648 716.73 206.926 717.025C207.204 717.311 207.343 717.698 207.343 718.186C207.343 718.792 207.086 719.285 206.572 719.663C206.067 720.042 205.415 720.231 204.616 720.231C203.816 720.231 203.168 720.038 202.671 719.651C202.175 719.263 201.901 718.712 201.851 717.997H203.34C203.366 718.342 203.492 718.611 203.719 718.805C203.946 718.998 204.254 719.095 204.641 719.095C205.036 719.095 205.348 719.011 205.575 718.843C205.811 718.666 205.929 718.434 205.929 718.148C205.929 717.862 205.79 717.639 205.512 717.479C205.234 717.319 204.893 717.201 204.489 717.126C204.094 717.041 203.694 716.949 203.29 716.848C202.894 716.738 202.558 716.545 202.28 716.267C202.002 715.989 201.863 715.619 201.863 715.156ZM208.607 715.156C208.607 714.567 208.856 714.07 209.352 713.666C209.849 713.254 210.501 713.048 211.309 713.048C212.117 713.048 212.757 713.25 213.228 713.654C213.708 714.049 213.965 714.592 213.999 715.282H212.521C212.496 714.937 212.374 714.668 212.155 714.474C211.945 714.281 211.646 714.184 211.259 714.184C210.872 714.184 210.569 714.272 210.35 714.449C210.131 714.617 210.022 714.845 210.022 715.131C210.022 715.408 210.16 715.627 210.438 715.787C210.716 715.947 211.053 716.065 211.448 716.141C211.852 716.217 212.252 716.309 212.648 716.419C213.052 716.528 213.393 716.73 213.67 717.025C213.948 717.311 214.087 717.698 214.087 718.186C214.087 718.792 213.83 719.285 213.317 719.663C212.812 720.042 212.159 720.231 211.36 720.231C210.56 720.231 209.912 720.038 209.416 719.651C208.919 719.263 208.645 718.712 208.595 717.997H210.085C210.11 718.342 210.236 718.611 210.463 718.805C210.691 718.998 210.998 719.095 211.385 719.095C211.781 719.095 212.092 719.011 212.319 718.843C212.555 718.666 212.673 718.434 212.673 718.148C212.673 717.862 212.534 717.639 212.256 717.479C211.978 717.319 211.638 717.201 211.234 717.126C210.838 717.041 210.438 716.949 210.034 716.848C209.639 716.738 209.302 716.545 209.024 716.267C208.746 715.989 208.607 715.619 208.607 715.156ZM219.453 711.343H220.892V719.019H223.859V720.118H219.453V711.343ZM226.704 711.318C226.704 711.579 226.615 711.798 226.439 711.974C226.262 712.151 226.043 712.239 225.782 712.239C225.53 712.239 225.315 712.151 225.138 711.974C224.962 711.798 224.873 711.579 224.873 711.318C224.873 711.057 224.962 710.838 225.138 710.661C225.315 710.485 225.53 710.396 225.782 710.396C226.043 710.396 226.262 710.485 226.439 710.661C226.615 710.838 226.704 711.057 226.704 711.318ZM225.063 720.118V713.161H226.502V720.118H225.063ZM231.321 720.231C230.311 720.231 229.49 719.903 228.859 719.247C228.227 718.59 227.912 717.723 227.912 716.646C227.912 715.56 228.227 714.689 228.859 714.032C229.498 713.376 230.319 713.048 231.321 713.048C232.162 713.048 232.857 713.25 233.404 713.654C233.959 714.049 234.334 714.617 234.528 715.358H232.975C232.714 714.626 232.162 714.26 231.321 714.26C230.731 714.26 230.26 714.47 229.907 714.891C229.562 715.303 229.389 715.884 229.389 716.633C229.389 717.382 229.562 717.967 229.907 718.388C230.26 718.809 230.731 719.019 231.321 719.019C232.154 719.019 232.705 718.653 232.975 717.921H234.528C234.326 718.628 233.947 719.192 233.391 719.613C232.836 720.025 232.146 720.231 231.321 720.231ZM238.891 720.231C237.881 720.231 237.06 719.903 236.429 719.247C235.798 718.59 235.482 717.719 235.482 716.633C235.482 715.547 235.802 714.68 236.442 714.032C237.081 713.376 237.906 713.048 238.916 713.048C239.935 713.048 240.76 713.363 241.391 713.994C242.022 714.617 242.338 715.434 242.338 716.444C242.338 716.688 242.321 716.915 242.287 717.126H236.959C236.993 717.706 237.187 718.169 237.54 718.514C237.902 718.851 238.352 719.019 238.891 719.019C239.674 719.019 240.225 718.695 240.545 718.047H242.098C241.887 718.687 241.505 719.213 240.949 719.625C240.393 720.029 239.707 720.231 238.891 720.231ZM240.835 716.141C240.827 715.568 240.638 715.114 240.267 714.777C239.897 714.432 239.447 714.26 238.916 714.26C238.386 714.26 237.94 714.432 237.578 714.777C237.224 715.114 237.022 715.568 236.972 716.141H240.835ZM245.194 713.161V714.26C245.656 713.452 246.397 713.048 247.416 713.048C248.198 713.048 248.842 713.308 249.347 713.83C249.861 714.352 250.117 715.08 250.117 716.015V720.118H248.691V716.229C248.691 715.606 248.535 715.131 248.224 714.802C247.912 714.466 247.487 714.297 246.948 714.297C246.41 714.297 245.981 714.466 245.661 714.802C245.349 715.131 245.194 715.606 245.194 716.229V720.118H243.754V713.161H245.194ZM254.883 720.231C253.872 720.231 253.052 719.903 252.421 719.247C251.789 718.59 251.474 717.723 251.474 716.646C251.474 715.56 251.789 714.689 252.421 714.032C253.06 713.376 253.881 713.048 254.883 713.048C255.724 713.048 256.419 713.25 256.966 713.654C257.521 714.049 257.896 714.617 258.089 715.358H256.536C256.276 714.626 255.724 714.26 254.883 714.26C254.293 714.26 253.822 714.47 253.468 714.891C253.123 715.303 252.951 715.884 252.951 716.633C252.951 717.382 253.123 717.967 253.468 718.388C253.822 718.809 254.293 719.019 254.883 719.019C255.716 719.019 256.267 718.653 256.536 717.921H258.089C257.887 718.628 257.509 719.192 256.953 719.613C256.398 720.025 255.707 720.231 254.883 720.231ZM262.453 720.231C261.443 720.231 260.622 719.903 259.991 719.247C259.36 718.59 259.044 717.719 259.044 716.633C259.044 715.547 259.364 714.68 260.004 714.032C260.643 713.376 261.468 713.048 262.478 713.048C263.497 713.048 264.321 713.363 264.953 713.994C265.584 714.617 265.9 715.434 265.9 716.444C265.9 716.688 265.883 716.915 265.849 717.126H260.521C260.555 717.706 260.748 718.169 261.102 718.514C261.464 718.851 261.914 719.019 262.453 719.019C263.236 719.019 263.787 718.695 264.107 718.047H265.66C265.449 718.687 265.066 719.213 264.511 719.625C263.955 720.029 263.269 720.231 262.453 720.231ZM264.397 716.141C264.389 715.568 264.199 715.114 263.829 714.777C263.459 714.432 263.008 714.26 262.478 714.26C261.948 714.26 261.502 714.432 261.14 714.777C260.786 715.114 260.584 715.568 260.534 716.141H264.397Z" fill="black"/>
<path d="M209.845 861.578H206.496V882.872H209.845V861.578Z" fill="#FEC93E"/>
<path d="M210.419 865.055H205.922C205.591 865.055 205.322 864.787 205.322 864.455V862.417H211.019V864.455C211.019 864.787 210.751 865.055 210.419 865.055Z" fill="#F7A738"/>
<path d="M211.019 882.082H205.322V880.044C205.322 879.712 205.591 879.444 205.922 879.444H210.419C210.751 879.444 211.019 879.712 211.019 880.044V882.082Z" fill="#F7A738"/>
<path d="M218.819 861.578H215.47V882.872H218.819V861.578Z" fill="#FEC93E"/>
<path d="M219.393 865.055H214.896C214.565 865.055 214.296 864.787 214.296 864.455V862.417H219.993V864.455C219.993 864.787 219.724 865.055 219.393 865.055Z" fill="#F7A738"/>
<path d="M219.993 882.082H214.296V880.044C214.296 879.712 214.565 879.444 214.896 879.444H219.393C219.725 879.444 219.993 879.712 219.993 880.044V882.082Z" fill="#F7A738"/>
<path d="M227.792 861.578H224.443V882.872H227.792V861.578Z" fill="#FEC93E"/>
<path d="M228.366 865.055H223.869C223.537 865.055 223.269 864.787 223.269 864.455V862.417H228.966V864.455C228.966 864.787 228.697 865.055 228.366 865.055Z" fill="#F7A738"/>
<path d="M228.966 882.082H223.269V880.044C223.269 879.712 223.537 879.444 223.869 879.444H228.366C228.697 879.444 228.966 879.712 228.966 880.044V882.082Z" fill="#F7A738"/>
<path d="M200.873 861.578H197.524V882.872H200.873V861.578Z" fill="#FEC93E"/>
<path d="M201.447 865.055H196.95C196.618 865.055 196.35 864.787 196.35 864.455V862.417H202.047V864.455C202.047 864.787 201.778 865.055 201.447 865.055Z" fill="#F7A738"/>
<path d="M202.047 882.082H196.349V880.044C196.349 879.712 196.618 879.444 196.95 879.444H201.446C201.778 879.444 202.047 879.712 202.047 880.044V882.082H202.047Z" fill="#F7A738"/>
<path d="M231.391 862.417H193.924C193.6 862.417 193.337 862.154 193.337 861.83V859.324C193.337 859 193.6 858.737 193.924 858.737H231.391C231.715 858.737 231.977 859 231.977 859.324V861.83C231.977 862.154 231.715 862.417 231.391 862.417Z" fill="#FEC93E"/>
<path d="M231.391 858.737H227.341V862.417H231.391C231.715 862.417 231.977 862.154 231.977 861.83V859.324C231.977 859 231.715 858.737 231.391 858.737Z" fill="#EFB635"/>
<path d="M232.343 885.923H192.973V882.979C192.973 882.484 193.374 882.082 193.87 882.082H231.446C231.941 882.082 232.343 882.484 232.343 882.979V885.923H232.343Z" fill="#FEC93E"/>
<path d="M231.445 882.082H227.706V884.635H232.343V882.979C232.343 882.484 231.941 882.082 231.445 882.082Z" fill="#EFB635"/>
<path d="M233.654 887.187H191.662C191.491 887.187 191.353 887.049 191.353 886.879V885.532C191.353 885.036 191.755 884.635 192.251 884.635H233.065C233.561 884.635 233.962 885.036 233.962 885.532V886.879C233.962 887.049 233.824 887.187 233.654 887.187Z" fill="#F7A738"/>
<path d="M233.065 884.635H229.347V887.187H233.654C233.824 887.187 233.962 887.049 233.962 886.879V885.532C233.962 885.036 233.56 884.635 233.065 884.635Z" fill="#E8932E"/>
<path d="M212.68 847.008L191.593 858.07C191.476 858.131 191.403 858.252 191.403 858.384V859.517C191.403 859.713 191.562 859.872 191.758 859.872H233.558C233.754 859.872 233.913 859.713 233.913 859.517V858.381C233.913 858.251 233.841 858.131 233.727 858.069L213.281 847.012C213.094 846.911 212.869 846.909 212.68 847.008Z" fill="#F7A738"/>
<path d="M233.727 858.069L213.281 847.012C213.094 846.911 212.869 846.909 212.68 847.008L209.024 848.926L229.265 859.872H233.558C233.754 859.872 233.913 859.713 233.913 859.517V858.381C233.913 858.251 233.841 858.131 233.727 858.069Z" fill="#E8932E"/>
<circle cx="212.657" cy="867.061" r="32.3741" stroke="#464040" stroke-width="1.09743"/>
<circle cx="212.658" cy="834.138" r="8.77941" fill="#464040"/>
<path d="M209.124 830.128H214.03V831.478H210.529V833.3C210.683 833.132 210.895 832.993 211.165 832.883C211.436 832.766 211.765 832.707 212.153 832.707C212.541 832.707 212.907 832.788 213.251 832.949C213.602 833.11 213.869 833.326 214.052 833.596C214.418 834.123 214.6 834.708 214.6 835.352C214.6 836.201 214.355 836.881 213.865 837.393C213.382 837.898 212.709 838.151 211.846 838.151C210.983 838.151 210.302 837.949 209.805 837.547C209.314 837.137 209.025 836.603 208.938 835.945H210.452C210.518 836.23 210.668 836.457 210.902 836.625C211.144 836.793 211.462 836.878 211.857 836.878C212.259 836.878 212.57 836.742 212.79 836.472C213.009 836.201 213.119 835.842 213.119 835.396C213.119 834.95 213.005 834.606 212.779 834.365C212.559 834.123 212.263 834.002 211.89 834.002C211.187 834.002 210.756 834.284 210.595 834.847H209.124V830.128Z" fill="white"/>
<path d="M187.985 911.183H191.331C192.231 911.183 192.93 911.402 193.427 911.839C193.923 912.277 194.171 912.832 194.171 913.506C194.171 914.491 193.603 915.139 192.467 915.45C193.039 915.543 193.498 915.799 193.843 916.22C194.197 916.633 194.373 917.108 194.373 917.647C194.373 918.32 194.113 918.876 193.591 919.314C193.069 919.743 192.37 919.957 191.495 919.957H187.985V911.183ZM189.424 912.306V914.907H191.204C191.676 914.907 192.042 914.794 192.303 914.566C192.572 914.339 192.707 914.023 192.707 913.619C192.707 913.207 192.572 912.887 192.303 912.66C192.042 912.424 191.676 912.306 191.204 912.306H189.424ZM189.424 918.834H191.369C191.857 918.834 192.24 918.712 192.517 918.468C192.795 918.224 192.934 917.887 192.934 917.458C192.934 917.02 192.787 916.675 192.492 916.422C192.198 916.161 191.806 916.031 191.318 916.031H189.424V918.834ZM200.521 918.19C200.941 917.761 201.152 917.188 201.152 916.473C201.152 915.757 200.941 915.189 200.521 914.768C200.108 914.348 199.616 914.137 199.043 914.137C198.471 914.137 197.974 914.343 197.554 914.756C197.141 915.168 196.935 915.732 196.935 916.448C196.935 917.163 197.141 917.74 197.554 918.177C197.974 918.607 198.471 918.821 199.043 918.821C199.616 918.821 200.108 918.611 200.521 918.19ZM198.74 920.071C197.815 920.071 197.036 919.734 196.405 919.061C195.773 918.379 195.458 917.512 195.458 916.46C195.458 915.4 195.769 914.541 196.392 913.885C197.023 913.22 197.806 912.887 198.74 912.887C199.287 912.887 199.767 913.013 200.18 913.266C200.601 913.51 200.925 913.834 201.152 914.238V913.001H202.604V919.957H201.152V918.657C200.916 919.086 200.592 919.431 200.18 919.692C199.767 919.945 199.287 920.071 198.74 920.071ZM205.934 913.001V914.099C206.397 913.291 207.137 912.887 208.156 912.887C208.938 912.887 209.582 913.148 210.087 913.67C210.601 914.192 210.858 914.92 210.858 915.854V919.957H209.431V916.069C209.431 915.446 209.275 914.97 208.964 914.642C208.652 914.305 208.227 914.137 207.689 914.137C207.15 914.137 206.721 914.305 206.401 914.642C206.089 914.97 205.934 915.446 205.934 916.069V919.957H204.494V913.001H205.934ZM214.133 919.957H212.693V910.615H214.133V916.044L216.658 913.001H218.653L215.446 916.485L218.653 919.957H216.708L214.133 916.965V919.957ZM221.326 911.157C221.326 911.418 221.237 911.637 221.061 911.814C220.884 911.991 220.665 912.079 220.404 912.079C220.151 912.079 219.937 911.991 219.76 911.814C219.583 911.637 219.495 911.418 219.495 911.157C219.495 910.897 219.583 910.678 219.76 910.501C219.937 910.324 220.151 910.236 220.404 910.236C220.665 910.236 220.884 910.324 221.061 910.501C221.237 910.678 221.326 910.897 221.326 911.157ZM219.684 919.957V913.001H221.124V919.957H219.684ZM224.453 913.001V914.099C224.916 913.291 225.656 912.887 226.675 912.887C227.457 912.887 228.101 913.148 228.606 913.67C229.12 914.192 229.377 914.92 229.377 915.854V919.957H227.95V916.069C227.95 915.446 227.794 914.97 227.483 914.642C227.171 914.305 226.746 914.137 226.208 914.137C225.669 914.137 225.24 914.305 224.92 914.642C224.608 914.97 224.453 915.446 224.453 916.069V919.957H223.013V913.001H224.453ZM234.015 920.071C233.089 920.071 232.311 919.734 231.68 919.061C231.048 918.379 230.733 917.512 230.733 916.46C230.733 915.4 231.044 914.541 231.667 913.885C232.298 913.22 233.081 912.887 234.015 912.887C234.562 912.887 235.042 913.013 235.455 913.266C235.876 913.51 236.2 913.834 236.427 914.238V913.001H237.879V920.071C237.879 921.047 237.576 921.843 236.97 922.457C236.372 923.08 235.573 923.392 234.571 923.392C233.569 923.392 232.757 923.169 232.134 922.722C231.511 922.285 231.158 921.687 231.074 920.93H232.5C232.61 921.292 232.841 921.582 233.195 921.801C233.557 922.028 234.007 922.142 234.546 922.142C235.084 922.142 235.53 921.965 235.884 921.611C236.246 921.258 236.427 920.744 236.427 920.071V918.657C236.191 919.086 235.867 919.431 235.455 919.692C235.042 919.945 234.562 920.071 234.015 920.071ZM235.796 918.19C236.216 917.761 236.427 917.188 236.427 916.473C236.427 915.757 236.216 915.189 235.796 914.768C235.383 914.348 234.891 914.137 234.318 914.137C233.746 914.137 233.249 914.343 232.829 914.756C232.416 915.168 232.21 915.732 232.21 916.448C232.21 917.163 232.416 917.74 232.829 918.177C233.249 918.607 233.746 918.821 234.318 918.821C234.891 918.821 235.383 918.611 235.796 918.19Z" fill="black"/>
<path d="M213.646 212.354C213.842 212.549 214.158 212.549 214.354 212.354L217.536 209.172C217.731 208.976 217.731 208.66 217.536 208.464C217.34 208.269 217.024 208.269 216.828 208.464L214 211.293L211.172 208.464C210.976 208.269 210.66 208.269 210.464 208.464C210.269 208.66 210.269 208.976 210.464 209.172L213.646 212.354ZM213.5 132V212H214.5V132H213.5Z" fill="black"/>
<path d="M213.646 414.354C213.842 414.549 214.158 414.549 214.354 414.354L217.536 411.172C217.731 410.976 217.731 410.66 217.536 410.464C217.34 410.269 217.024 410.269 216.828 410.464L214 413.293L211.172 410.464C210.976 410.269 210.66 410.269 210.464 410.464C210.269 410.66 210.269 410.976 210.464 411.172L213.646 414.354ZM213.5 334V414H214.5V334H213.5Z" fill="black"/>
<path d="M213.646 616.354C213.842 616.549 214.158 616.549 214.354 616.354L217.536 613.172C217.731 612.976 217.731 612.66 217.536 612.464C217.34 612.269 217.024 612.269 216.828 612.464L214 615.293L211.172 612.464C210.976 612.269 210.66 612.269 210.464 612.464C210.269 612.66 210.269 612.976 210.464 613.172L213.646 616.354ZM213.5 536V616H214.5V536H213.5Z" fill="black"/>
<path d="M213.646 818.354C213.842 818.549 214.158 818.549 214.354 818.354L217.536 815.172C217.731 814.976 217.731 814.66 217.536 814.464C217.34 814.269 217.024 814.269 216.828 814.464L214 817.293L211.172 814.464C210.976 814.269 210.66 814.269 210.464 814.464C210.269 814.66 210.269 814.976 210.464 815.172L213.646 818.354ZM213.5 738V818H214.5V738H213.5Z" fill="black"/>
<defs>
<linearGradient id="paint0_linear_18_2" x1="213.897" y1="458.64" x2="236.062" y2="480.805" gradientUnits="userSpaceOnUse">
<stop stop-color="#FFA936"/>
<stop offset="0.4112" stop-color="#FF8548"/>
<stop offset="0.7781" stop-color="#FF6C54"/>
<stop offset="1" stop-color="#FF6359"/>
</linearGradient>
<linearGradient id="paint1_linear_18_2" x1="227.394" y1="468.067" x2="221.1" y2="468.067" gradientUnits="userSpaceOnUse">
<stop stop-color="#F82814" stop-opacity="0"/>
<stop offset="1" stop-color="#C0272D"/>
</linearGradient>
<linearGradient id="paint2_linear_18_2" x1="225.456" y1="468.068" x2="224.185" y2="468.068" gradientUnits="userSpaceOnUse">
<stop stop-color="#F8F6FB"/>
<stop offset="1" stop-color="#EFDCFB"/>
</linearGradient>
<linearGradient id="paint3_linear_18_2" x1="195.187" y1="455.873" x2="221.43" y2="477.614" gradientUnits="userSpaceOnUse">
<stop stop-color="#18CEFB"/>
<stop offset="0.2969" stop-color="#2BB9F9"/>
<stop offset="0.7345" stop-color="#42A0F7"/>
<stop offset="1" stop-color="#4A97F6"/>
</linearGradient>
<linearGradient id="paint4_linear_18_2" x1="215.11" y1="447.02" x2="215.11" y2="449.277" gradientUnits="userSpaceOnUse">
<stop stop-color="#CDEC7A"/>
<stop offset="0.2157" stop-color="#B0E995"/>
<stop offset="0.5613" stop-color="#87E4BB"/>
<stop offset="0.8347" stop-color="#6EE1D2"/>
<stop offset="1" stop-color="#65E0DB"/>
</linearGradient>
<linearGradient id="paint5_linear_18_2" x1="225.613" y1="468.076" x2="223.427" y2="468.076" gradientUnits="userSpaceOnUse">
<stop stop-color="#EFDCFB" stop-opacity="0"/>
<stop offset="0.0287" stop-color="#E9D6F7" stop-opacity="0.029"/>
<stop offset="0.2203" stop-color="#C5B5DE" stop-opacity="0.22"/>
<stop offset="0.4138" stop-color="#AA9BCB" stop-opacity="0.414"/>
<stop offset="0.6078" stop-color="#9688BD" stop-opacity="0.608"/>
<stop offset="0.8028" stop-color="#8A7DB5" stop-opacity="0.803"/>
<stop offset="1" stop-color="#8679B2"/>
</linearGradient>
<linearGradient id="paint6_linear_18_2" x1="196.817" y1="454.01" x2="229.867" y2="487.06" gradientUnits="userSpaceOnUse">
<stop stop-color="#FFA936"/>
<stop offset="0.4112" stop-color="#FF8548"/>
<stop offset="0.7781" stop-color="#FF6C54"/>
<stop offset="1" stop-color="#FF6359"/>
</linearGradient>
<linearGradient id="paint7_linear_18_2" x1="220.354" y1="470.54" x2="196.901" y2="447.087" gradientUnits="userSpaceOnUse">
<stop stop-color="#F82814" stop-opacity="0"/>
<stop offset="1" stop-color="#C0272D"/>
</linearGradient>
<linearGradient id="paint8_linear_18_2" x1="207.719" y1="457.905" x2="215.338" y2="465.524" gradientUnits="userSpaceOnUse">
<stop stop-color="#F8F6FB"/>
<stop offset="1" stop-color="#EFDCFB"/>
</linearGradient>
<linearGradient id="paint9_linear_18_2" x1="199.418" y1="468.067" x2="207.906" y2="468.067" gradientUnits="userSpaceOnUse">
<stop stop-color="#F82814" stop-opacity="0"/>
<stop offset="1" stop-color="#C0272D"/>
</linearGradient>
<clipPath id="clip0_18_2">
<rect width="43.8971" height="43.8971" fill="white" transform="translate(191.367 45.7537)"/>
</clipPath>
<clipPath id="clip1_18_2">
<rect width="43.8971" height="43.8971" fill="white" transform="translate(191.548 245.593)"/>
</clipPath>
<clipPath id="clip2_18_2">
<rect width="43.8971" height="43.8971" fill="white" transform="translate(190.461 445.433)"/>
</clipPath>
<clipPath id="clip3_18_2">
<rect width="43.8971" height="43.8971" fill="white" transform="translate(190.393 645.273)"/>
</clipPath>
</defs>
</svg>
