<svg width="728" height="90" viewBox="0 0 728 90" fill="none" xmlns="http://www.w3.org/2000/svg">
<rect width="728" height="90" fill="white"/>
<g clip-path="url(#clip0_13_2)">
<path d="M68.5275 30.4136V51.2477C68.5275 53.3299 66.8355 55.024 64.7559 55.024H47.119C45.0393 55.024 43.3474 53.3299 43.3474 51.2477V30.4136C43.3474 28.3306 45.0393 26.6365 47.119 26.6365H64.7559C66.8355 26.6365 68.5275 28.3306 68.5275 30.4136Z" fill="#E3EEFF"/>
<path d="M68.5275 30.4136V51.2477C68.5275 53.3299 66.8356 55.024 64.7559 55.024H55.9363V26.6365H64.7559C66.8356 26.6365 68.5275 28.3306 68.5275 30.4136Z" fill="#D7E2F2"/>
<path d="M60.2874 25.9105V28.8155C60.2874 29.2163 59.9625 29.5415 59.5621 29.5415H52.31C51.9096 29.5415 51.585 29.2163 51.585 28.8155V25.9105C51.585 25.5095 51.9096 25.1845 52.31 25.1845H53.7419C53.825 25.1845 53.9 25.1349 53.9329 25.058C54.2657 24.2792 55.0385 23.7323 55.9364 23.7323C56.8336 23.7323 57.6059 24.2792 57.938 25.058C57.9702 25.1349 58.0459 25.1845 58.129 25.1845H59.5621C59.9625 25.1845 60.2874 25.5095 60.2874 25.9105Z" fill="#FFDE00"/>
<path d="M64.6414 35.7539C64.6414 36.2605 64.2317 36.6706 63.7258 36.6706H54.0388C53.5327 36.6706 53.1233 36.2605 53.1233 35.7539C53.1233 35.248 53.5327 34.8371 54.0388 34.8371H63.7258C64.232 34.8371 64.6414 35.248 64.6414 35.7539Z" fill="#697E97"/>
<path d="M48.2979 37.4699C48.487 37.6592 48.7352 37.7538 48.984 37.7538C49.2323 37.7538 49.4811 37.6592 49.6706 37.4699L51.8192 35.3184C52.1769 34.9606 52.1769 34.38 51.8192 34.0221C51.4619 33.664 50.882 33.664 50.5246 34.0221L48.9842 35.5643L48.7023 35.2819C48.3449 34.924 47.765 34.924 47.4076 35.2819C47.05 35.64 47.05 36.2204 47.4076 36.5785L48.2979 37.4699Z" fill="#AAB5C6"/>
<path d="M64.6204 42.264C64.6204 42.7708 64.2107 43.1807 63.7048 43.1807H54.0179C53.5124 43.1807 53.1023 42.7708 53.1023 42.264C53.1023 41.7581 53.5124 41.3472 54.0179 41.3472H63.7048C64.2107 41.3472 64.6204 41.7581 64.6204 42.264Z" fill="#697E97"/>
<path d="M48.2761 43.9793C48.4594 44.1636 48.7037 44.2648 48.9634 44.2648C49.2231 44.2648 49.4671 44.1636 49.6498 43.9802L51.7984 41.8287C52.156 41.4709 52.156 40.8903 51.7984 40.5324C51.441 40.1743 50.8611 40.1743 50.5037 40.5324L48.9634 42.0744L48.6814 41.7922C48.3238 41.4344 47.7442 41.4344 47.3865 41.7922C47.0289 42.1503 47.0292 42.7307 47.3865 43.0888L48.2761 43.9793Z" fill="#AAB5C6"/>
<path d="M64.7564 48.7101C64.7564 49.2167 64.3462 49.6269 63.8408 49.6269H54.1538C53.6477 49.6269 53.2383 49.2167 53.2383 48.7101C53.2383 48.204 53.648 47.7934 54.1538 47.7934H63.8408C64.3462 47.7934 64.7564 48.204 64.7564 48.7101Z" fill="#697E97"/>
<path d="M50.6398 46.9781L49.0995 48.5203L48.8178 48.2381C48.4601 47.88 47.8805 47.88 47.5229 48.2381C47.1652 48.596 47.1652 49.1766 47.5229 49.5344L48.4141 50.4268C48.6029 50.6154 48.851 50.7097 49.0992 50.7097C49.3478 50.7097 49.5965 50.6152 49.7861 50.4259L51.9347 48.2746C52.2923 47.9165 52.2923 47.3362 51.9347 46.9781C51.5773 46.6199 50.9974 46.6199 50.6398 46.9781Z" fill="#AAB5C6"/>
<path d="M59.562 29.5415H55.9363V23.7323C56.8335 23.7323 57.6058 24.2792 57.9378 25.058C57.9701 25.1349 58.0458 25.1845 58.1288 25.1845H59.562C59.9623 25.1845 60.2873 25.5095 60.2873 25.9105V28.8155C60.2873 29.2163 59.9623 29.5415 59.562 29.5415Z" fill="#FFBC17"/>
<path d="M63.7048 43.1807H55.9363V41.3472H63.7048C64.2109 41.3472 64.6203 41.7581 64.6203 42.264C64.6203 42.7708 64.2107 43.1807 63.7048 43.1807Z" fill="#38506E"/>
<path d="M63.7255 36.6706H55.9363V34.8371H63.7255C64.2314 34.8371 64.6411 35.248 64.6411 35.7539C64.6411 36.2605 64.2317 36.6706 63.7255 36.6706Z" fill="#38506E"/>
<path d="M64.7564 48.7101C64.7564 49.2167 64.3463 49.6269 63.8409 49.6269H55.9363V47.7934H63.8409C64.3463 47.7934 64.7564 48.204 64.7564 48.7101Z" fill="#38506E"/>
</g>
<circle cx="55.9375" cy="39.3781" r="23.0776" stroke="#464040" stroke-width="0.782293"/>
<circle cx="55.9375" cy="15.9093" r="6.25834" fill="#464040"/>
<path d="M55.4944 19.2156V14.6705H54.6651V13.6613H56.6209V19.2156H55.4944Z" fill="white"/>
<path d="M14.9707 70.8503C15.6787 70.8503 16.2247 71.0273 16.6087 71.3813C16.9927 71.7293 17.1847 72.1673 17.1847 72.6953C17.1847 73.2173 17.0017 73.6613 16.6357 74.0273C16.2757 74.3873 15.7207 74.5673 14.9707 74.5673H13.8367V77.1053H12.8107V70.8503H14.9707ZM13.8367 73.7663H14.9707C15.3607 73.7663 15.6517 73.6733 15.8437 73.4873C16.0357 73.3013 16.1317 73.0433 16.1317 72.7133C16.1317 72.3773 16.0357 72.1163 15.8437 71.9303C15.6517 71.7443 15.3607 71.6513 14.9707 71.6513H13.8367V73.7663ZM19.1893 72.1463V73.0103C19.5073 72.3803 20.0023 72.0653 20.6743 72.0653V73.1273H20.4133C20.0113 73.1273 19.7053 73.2293 19.4953 73.4333C19.2913 73.6373 19.1893 73.9913 19.1893 74.4953V77.1053H18.1633V72.1463H19.1893ZM23.7054 77.1863C22.9854 77.1863 22.4004 76.9523 21.9504 76.4843C21.5004 76.0163 21.2754 75.3953 21.2754 74.6213C21.2754 73.8473 21.5034 73.2293 21.9594 72.7673C22.4154 72.2993 23.0034 72.0653 23.7234 72.0653C24.4494 72.0653 25.0374 72.2903 25.4874 72.7403C25.9374 73.1843 26.1624 73.7663 26.1624 74.4863C26.1624 74.6603 26.1504 74.8223 26.1264 74.9723H22.3284C22.3524 75.3863 22.4904 75.7163 22.7424 75.9623C23.0004 76.2023 23.3214 76.3223 23.7054 76.3223C24.2634 76.3223 24.6564 76.0913 24.8844 75.6293H25.9914C25.8414 76.0853 25.5684 76.4603 25.1724 76.7543C24.7764 77.0423 24.2874 77.1863 23.7054 77.1863ZM25.0914 74.2703C25.0854 73.8623 24.9504 73.5383 24.6864 73.2983C24.4224 73.0523 24.1014 72.9293 23.7234 72.9293C23.3454 72.9293 23.0274 73.0523 22.7694 73.2983C22.5174 73.5383 22.3734 73.8623 22.3374 74.2703H25.0914ZM30.7631 75.8363C31.0631 75.5243 31.2131 75.1133 31.2131 74.6033C31.2131 74.0933 31.0631 73.6913 30.7631 73.3973C30.4691 73.1033 30.1151 72.9563 29.7011 72.9563C29.2931 72.9563 28.9391 73.1063 28.6391 73.4063C28.3451 73.7063 28.1981 74.1113 28.1981 74.6213C28.1981 75.1313 28.3451 75.5393 28.6391 75.8453C28.9391 76.1453 29.2931 76.2953 29.7011 76.2953C30.1091 76.2953 30.4631 76.1423 30.7631 75.8363ZM29.9261 72.0653C30.5921 72.0653 31.1471 72.3023 31.5911 72.7763C32.0351 73.2443 32.2571 73.8563 32.2571 74.6123C32.2571 75.3623 32.0321 75.9803 31.5821 76.4663C31.1381 76.9463 30.5861 77.1863 29.9261 77.1863C29.5361 77.1863 29.1941 77.0963 28.9001 76.9163C28.6061 76.7303 28.3721 76.4843 28.1981 76.1783V79.4633H27.1721V72.1463H28.1981V73.0283C28.3661 72.7403 28.5971 72.5093 28.8911 72.3353C29.1911 72.1553 29.5361 72.0653 29.9261 72.0653ZM36.5387 75.8453C36.8387 75.5393 36.9887 75.1313 36.9887 74.6213C36.9887 74.1113 36.8387 73.7063 36.5387 73.4063C36.2447 73.1063 35.8937 72.9563 35.4857 72.9563C35.0777 72.9563 34.7237 73.1033 34.4237 73.3973C34.1297 73.6913 33.9827 74.0933 33.9827 74.6033C33.9827 75.1133 34.1297 75.5243 34.4237 75.8363C34.7237 76.1423 35.0777 76.2953 35.4857 76.2953C35.8937 76.2953 36.2447 76.1453 36.5387 75.8453ZM35.2697 77.1863C34.6097 77.1863 34.0547 76.9463 33.6047 76.4663C33.1547 75.9803 32.9297 75.3623 32.9297 74.6123C32.9297 73.8563 33.1517 73.2443 33.5957 72.7763C34.0457 72.3023 34.6037 72.0653 35.2697 72.0653C35.6597 72.0653 36.0017 72.1553 36.2957 72.3353C36.5957 72.5093 36.8267 72.7403 36.9887 73.0283V72.1463H38.0237V77.1053H36.9887V76.1783C36.8207 76.4843 36.5897 76.7303 36.2957 76.9163C36.0017 77.0963 35.6597 77.1863 35.2697 77.1863ZM40.3973 72.1463V73.0103C40.7153 72.3803 41.2103 72.0653 41.8823 72.0653V73.1273H41.6213C41.2193 73.1273 40.9133 73.2293 40.7033 73.4333C40.4993 73.6373 40.3973 73.9913 40.3973 74.4953V77.1053H39.3713V72.1463H40.3973ZM44.9134 77.1863C44.1934 77.1863 43.6084 76.9523 43.1584 76.4843C42.7084 76.0163 42.4834 75.3953 42.4834 74.6213C42.4834 73.8473 42.7114 73.2293 43.1674 72.7673C43.6234 72.2993 44.2114 72.0653 44.9314 72.0653C45.6574 72.0653 46.2454 72.2903 46.6954 72.7403C47.1454 73.1843 47.3704 73.7663 47.3704 74.4863C47.3704 74.6603 47.3584 74.8223 47.3344 74.9723H43.5364C43.5604 75.3863 43.6984 75.7163 43.9504 75.9623C44.2084 76.2023 44.5294 76.3223 44.9134 76.3223C45.4714 76.3223 45.8644 76.0913 46.0924 75.6293H47.1994C47.0494 76.0853 46.7764 76.4603 46.3804 76.7543C45.9844 77.0423 45.4954 77.1863 44.9134 77.1863ZM46.2994 74.2703C46.2934 73.8623 46.1584 73.5383 45.8944 73.2983C45.6304 73.0523 45.3094 72.9293 44.9314 72.9293C44.5534 72.9293 44.2354 73.0523 43.9774 73.2983C43.7254 73.5383 43.5814 73.8623 43.5454 74.2703H46.2994ZM52.1043 76.3223H53.1213C53.8473 76.3223 54.4053 76.1153 54.7953 75.7013C55.1913 75.2873 55.3893 74.7203 55.3893 74.0003C55.3893 73.2743 55.1913 72.7073 54.7953 72.2993C54.4053 71.8853 53.8473 71.6783 53.1213 71.6783H52.1043V76.3223ZM53.1213 70.8503C54.1293 70.8503 54.9333 71.1353 55.5333 71.7053C56.1393 72.2693 56.4423 73.0343 56.4423 74.0003C56.4423 74.9603 56.1393 75.7193 55.5333 76.2773C54.9333 76.8293 54.1293 77.1053 53.1213 77.1053H51.0783V70.8503H53.1213ZM60.6812 75.8723C60.9812 75.5723 61.1312 75.1553 61.1312 74.6213C61.1312 74.0873 60.9842 73.6733 60.6902 73.3793C60.4022 73.0793 60.0512 72.9293 59.6372 72.9293C59.2232 72.9293 58.8752 73.0793 58.5932 73.3793C58.3112 73.6733 58.1702 74.0903 58.1702 74.6303C58.1702 75.1643 58.3082 75.5813 58.5842 75.8813C58.8602 76.1753 59.2022 76.3223 59.6102 76.3223C60.0242 76.3223 60.3812 76.1723 60.6812 75.8723ZM59.6102 77.1863C58.8902 77.1863 58.2962 76.9523 57.8282 76.4843C57.3602 76.0103 57.1262 75.3923 57.1262 74.6303C57.1262 73.8623 57.3662 73.2443 57.8462 72.7763C58.3322 72.3023 58.9352 72.0653 59.6552 72.0653C60.3752 72.0653 60.9752 72.3023 61.4552 72.7763C61.9412 73.2443 62.1842 73.8593 62.1842 74.6213C62.1842 75.3833 61.9352 76.0013 61.4372 76.4753C60.9452 76.9493 60.3362 77.1863 59.6102 77.1863ZM65.2864 77.1863C64.5664 77.1863 63.9814 76.9523 63.5314 76.4843C63.0814 76.0163 62.8564 75.3983 62.8564 74.6303C62.8564 73.8563 63.0814 73.2353 63.5314 72.7673C63.9874 72.2993 64.5724 72.0653 65.2864 72.0653C65.8864 72.0653 66.3814 72.2093 66.7714 72.4973C67.1674 72.7793 67.4344 73.1843 67.5724 73.7123H66.4654C66.2794 73.1903 65.8864 72.9293 65.2864 72.9293C64.8664 72.9293 64.5304 73.0793 64.2784 73.3793C64.0324 73.6733 63.9094 74.0873 63.9094 74.6213C63.9094 75.1553 64.0324 75.5723 64.2784 75.8723C64.5304 76.1723 64.8664 76.3223 65.2864 76.3223C65.8804 76.3223 66.2734 76.0613 66.4654 75.5393H67.5724C67.4284 76.0433 67.1584 76.4453 66.7624 76.7453C66.3664 77.0393 65.8744 77.1863 65.2864 77.1863ZM72.0599 72.1463H73.0859V77.1053H72.0599V76.3223C71.7359 76.8923 71.2079 77.1773 70.4759 77.1773C69.9179 77.1773 69.4559 76.9943 69.0899 76.6283C68.7299 76.2563 68.5499 75.7373 68.5499 75.0713V72.1463H69.5669V74.9183C69.5669 75.3623 69.6779 75.7043 69.8999 75.9443C70.1219 76.1783 70.4249 76.2953 70.8089 76.2953C71.1929 76.2953 71.4959 76.1783 71.7179 75.9443C71.9459 75.7043 72.0599 75.3623 72.0599 74.9183V72.1463ZM75.4656 72.1463V72.9293C75.7956 72.3533 76.3236 72.0653 77.0496 72.0653C77.4336 72.0653 77.7756 72.1553 78.0756 72.3353C78.3756 72.5153 78.6036 72.7763 78.7596 73.1183C78.9336 72.7883 79.1736 72.5303 79.4796 72.3443C79.7916 72.1583 80.1426 72.0653 80.5326 72.0653C81.1026 72.0653 81.5706 72.2513 81.9366 72.6233C82.3026 72.9893 82.4856 73.5083 82.4856 74.1803V77.1053H81.4596V74.3333C81.4596 73.8893 81.3486 73.5503 81.1266 73.3163C80.9046 73.0763 80.6016 72.9563 80.2176 72.9563C79.8336 72.9563 79.5306 73.0763 79.3086 73.3163C79.0866 73.5503 78.9756 73.8893 78.9756 74.3333V77.1053H77.9586V74.3333C77.9586 73.8893 77.8476 73.5503 77.6256 73.3163C77.4036 73.0763 77.1006 72.9563 76.7166 72.9563C76.3326 72.9563 76.0266 73.0763 75.7986 73.3163C75.5766 73.5503 75.4656 73.8893 75.4656 74.3333V77.1053H74.4396V72.1463H75.4656ZM85.8792 77.1863C85.1592 77.1863 84.5742 76.9523 84.1242 76.4843C83.6742 76.0163 83.4492 75.3953 83.4492 74.6213C83.4492 73.8473 83.6772 73.2293 84.1332 72.7673C84.5892 72.2993 85.1772 72.0653 85.8972 72.0653C86.6232 72.0653 87.2112 72.2903 87.6612 72.7403C88.1112 73.1843 88.3362 73.7663 88.3362 74.4863C88.3362 74.6603 88.3242 74.8223 88.3002 74.9723H84.5022C84.5262 75.3863 84.6642 75.7163 84.9162 75.9623C85.1742 76.2023 85.4952 76.3223 85.8792 76.3223C86.4372 76.3223 86.8302 76.0913 87.0582 75.6293H88.1652C88.0152 76.0853 87.7422 76.4603 87.3462 76.7543C86.9502 77.0423 86.4612 77.1863 85.8792 77.1863ZM87.2652 74.2703C87.2592 73.8623 87.1242 73.5383 86.8602 73.2983C86.5962 73.0523 86.2752 72.9293 85.8972 72.9293C85.5192 72.9293 85.2012 73.0523 84.9432 73.2983C84.6912 73.5383 84.5472 73.8623 84.5112 74.2703H87.2652ZM90.3719 72.1463V72.9293C90.7019 72.3533 91.2299 72.0653 91.9559 72.0653C92.5139 72.0653 92.9729 72.2513 93.3329 72.6233C93.6989 72.9953 93.8819 73.5143 93.8819 74.1803V77.1053H92.8649V74.3333C92.8649 73.8893 92.7539 73.5503 92.5319 73.3163C92.3099 73.0763 92.0069 72.9563 91.6229 72.9563C91.2389 72.9563 90.9329 73.0763 90.7049 73.3163C90.4829 73.5503 90.3719 73.8893 90.3719 74.3333V77.1053H89.3459V72.1463H90.3719ZM97.5936 72.9833H96.3876V75.7283C96.3876 75.9143 96.4296 76.0493 96.5136 76.1333C96.6036 76.2113 96.7536 76.2503 96.9636 76.2503H97.5936V77.1053H96.7836C95.8296 77.1053 95.3526 76.6463 95.3526 75.7283V72.9833H94.7676V72.1463H95.3526V70.9133H96.3876V72.1463H97.5936V72.9833Z" fill="black"/>
<g clip-path="url(#clip1_13_2)">
<path d="M231.17 24.1254V25.3781L226.496 25.6946L221.534 25.3781V24.1254C221.534 23.9083 221.71 23.7323 221.927 23.7323H230.777C230.994 23.7323 231.17 23.9083 231.17 24.1254Z" fill="#7CA1B1"/>
<path d="M231.171 24.1252V25.3781L229.156 25.504V24.1252C229.156 23.908 228.98 23.7323 228.762 23.7323H230.777C230.994 23.7323 231.171 23.908 231.171 24.1252Z" fill="#678D98"/>
<path d="M236.61 27.2839V52.6208C236.61 53.6735 235.757 54.5266 234.704 54.5266H218C216.948 54.5266 216.094 53.6735 216.094 52.6208V27.2839C216.094 26.2312 216.948 25.3781 218 25.3781H219.006L226.353 25.8625L233.529 25.3781H234.704C235.757 25.3781 236.61 26.2312 236.61 27.2839Z" fill="#5986CB"/>
<path d="M236.61 27.2839V52.6207C236.61 53.6735 235.757 54.5266 234.705 54.5266H233.529C234.582 54.5266 235.435 53.6735 235.435 52.6207V27.2839C235.435 25.3115 233.748 25.3781 233.748 25.3781H234.705C235.757 25.3781 236.61 26.2312 236.61 27.2839Z" fill="#4278C3"/>
<path d="M234.704 26.3351V50.3718C234.704 50.9007 234.276 51.3288 233.747 51.3288H218.957C218.428 51.3288 218 50.9007 218 50.3718V26.3351C218 25.8068 218.428 25.3781 218.957 25.3781H233.747C234.276 25.3781 234.704 25.8068 234.704 26.3351Z" fill="#C8EFFE"/>
<path d="M234.705 26.3351V50.3718C234.705 50.9007 234.276 51.3288 233.748 51.3288H232.059C232.588 51.3288 233.016 50.9007 233.016 50.3718V26.3351C233.016 25.8068 232.588 25.3781 232.059 25.3781H233.748C234.276 25.3781 234.705 25.8068 234.705 26.3351Z" fill="#99E6FC"/>
<path d="M232.155 31.9901H220.838C220.63 31.9901 220.462 31.8219 220.462 31.6144V30.477C220.462 30.2695 220.63 30.1013 220.838 30.1013H232.155C232.363 30.1013 232.531 30.2695 232.531 30.477V31.6144C232.531 31.8219 232.363 31.9901 232.155 31.9901Z" fill="#7CA1B1"/>
<path d="M229.426 25.3781V26.2627C229.426 26.8614 228.939 27.3488 228.34 27.3488H224.365C223.766 27.3488 223.279 26.8614 223.279 26.2627V25.3781H222.335V26.2627C222.335 27.3821 223.245 28.2932 224.365 28.2932H228.34C229.46 28.2932 230.37 27.3821 230.37 26.2627V25.3781H229.426Z" fill="#EAF6FF"/>
<path d="M223.567 35.5783H220.934C220.673 35.5783 220.462 35.3669 220.462 35.1061C220.462 34.8453 220.673 34.6339 220.934 34.6339H223.567C223.828 34.6339 224.04 34.8453 224.04 35.1061C224.04 35.3669 223.828 35.5783 223.567 35.5783Z" fill="#7CA1B1"/>
<path d="M229.338 38.6943H220.934C220.673 38.6943 220.462 38.4829 220.462 38.2221C220.462 37.9613 220.673 37.7499 220.934 37.7499H229.338C229.598 37.7499 229.81 37.9613 229.81 38.2221C229.81 38.4829 229.598 38.6943 229.338 38.6943Z" fill="#7CA1B1"/>
<path d="M228.503 41.8103H220.934C220.673 41.8103 220.462 41.5988 220.462 41.3381C220.462 41.0773 220.673 40.8658 220.934 40.8658H228.503C228.763 40.8658 228.975 41.0773 228.975 41.3381C228.975 41.5988 228.763 41.8103 228.503 41.8103Z" fill="#7CA1B1"/>
<path d="M227.668 44.9263H220.934C220.673 44.9263 220.462 44.7148 220.462 44.4541C220.462 44.1933 220.673 43.9818 220.934 43.9818H227.668C227.929 43.9818 228.14 44.1933 228.14 44.4541C228.14 44.7148 227.929 44.9263 227.668 44.9263Z" fill="#7CA1B1"/>
<path d="M223.567 48.0423H220.934C220.673 48.0423 220.462 47.8309 220.462 47.5701C220.462 47.3093 220.673 47.0979 220.934 47.0979H223.567C223.828 47.0979 224.04 47.3093 224.04 47.5701C224.04 47.8309 223.828 48.0423 223.567 48.0423Z" fill="#7CA1B1"/>
<path d="M245.761 35.798L233.361 32.4755C233.01 32.3814 232.649 32.5899 232.555 32.941L227.75 50.8727C227.656 51.2239 227.864 51.5849 228.216 51.679L240.615 55.0014C240.966 55.0956 241.327 54.8871 241.421 54.536L246.226 36.6043C246.32 36.2531 246.112 35.8921 245.761 35.798Z" fill="#99E6FC"/>
<path d="M244.673 33.914L239.868 51.8455C239.774 52.1964 239.413 52.4054 239.062 52.3114L226.662 48.9889C226.311 48.8949 226.103 48.5332 226.197 48.1823L231.001 30.2507C231.096 29.8992 231.457 29.691 231.808 29.7851L244.208 33.1076C244.559 33.2016 244.767 33.5625 244.673 33.914Z" fill="#EAF6FF"/>
<path d="M244.672 33.9137L239.868 51.8457C239.774 52.1964 239.413 52.4054 239.062 52.3116L237.075 51.779C237.426 51.8728 237.788 51.6644 237.881 51.313L242.686 33.3817C242.78 33.0323 242.574 32.6728 242.226 32.5771L244.207 33.1078C244.559 33.2016 244.767 33.5624 244.672 33.9137Z" fill="#C8EFFE"/>
<path d="M234.624 48.7165C237.187 48.7165 239.265 46.6386 239.265 44.0754C239.265 41.5122 237.187 39.4344 234.624 39.4344C232.061 39.4344 229.983 41.5122 229.983 44.0754C229.983 46.6386 232.061 48.7165 234.624 48.7165Z" fill="#46CC8D"/>
<path d="M240.574 38.4233L232.297 36.2055C232.107 36.1545 231.994 35.9589 232.045 35.7687L232.824 32.8608C232.875 32.6705 233.07 32.5577 233.261 32.6087L241.538 34.8265C241.728 34.8775 241.841 35.073 241.79 35.2632L241.011 38.1711C240.96 38.3614 240.764 38.4742 240.574 38.4233Z" fill="#80B4FB"/>
<path d="M234.368 45.5032C234.205 45.5032 234.046 45.4185 233.959 45.267L232.432 42.6233C232.302 42.3974 232.379 42.1086 232.605 41.9782C232.831 41.8478 233.12 41.9252 233.25 42.1511L234.541 44.3859L238.711 41.9782C238.937 41.8478 239.225 41.9252 239.356 42.1511C239.486 42.3769 239.409 42.6657 239.183 42.7961L234.604 45.4398C234.53 45.4828 234.448 45.5032 234.368 45.5032Z" fill="#B0E7C9"/>
</g>
<circle cx="229.607" cy="39.3781" r="23.0776" stroke="#464040" stroke-width="0.782293"/>
<circle cx="229.606" cy="15.9093" r="6.25834" fill="#464040"/>
<path d="M227.656 19.1374V18.3316C227.791 18.2117 228 18.0317 228.282 17.7918C228.563 17.5467 228.774 17.3616 228.915 17.2364C229.056 17.1112 229.228 16.947 229.432 16.7436C229.64 16.535 229.794 16.3602 229.893 16.2194C230.149 15.8544 230.276 15.531 230.276 15.2494C230.276 14.6966 230.021 14.4202 229.51 14.4202C229.26 14.4202 229.064 14.5036 228.923 14.6705C228.782 14.8374 228.709 15.0668 228.704 15.3589H227.64C227.645 14.7487 227.823 14.2846 228.172 13.9664C228.527 13.6483 228.988 13.4892 229.557 13.4892C230.125 13.4892 230.571 13.6509 230.895 13.9742C231.218 14.2976 231.38 14.7044 231.38 15.1946C231.38 15.5597 231.286 15.8987 231.098 16.2116C231.004 16.3785 230.913 16.5271 230.824 16.6575C230.735 16.7827 230.608 16.9287 230.441 17.0956C230.279 17.2625 230.151 17.3929 230.057 17.4867C229.964 17.5806 229.82 17.7136 229.627 17.8857C229.439 18.0526 229.309 18.1699 229.236 18.2377H231.513V19.1374H227.656Z" fill="white"/>
<path d="M185.845 70.8503H188.23C188.872 70.8503 189.37 71.0063 189.724 71.3183C190.078 71.6303 190.255 72.0263 190.255 72.5063C190.255 73.2083 189.85 73.6703 189.04 73.8923C189.448 73.9583 189.775 74.1413 190.021 74.4413C190.273 74.7353 190.399 75.0743 190.399 75.4583C190.399 75.9383 190.213 76.3343 189.841 76.6463C189.469 76.9523 188.971 77.1053 188.347 77.1053H185.845V70.8503ZM186.871 71.6513V73.5053H188.14C188.476 73.5053 188.737 73.4243 188.923 73.2623C189.115 73.1003 189.211 72.8753 189.211 72.5873C189.211 72.2933 189.115 72.0653 188.923 71.9033C188.737 71.7353 188.476 71.6513 188.14 71.6513H186.871ZM186.871 76.3043H188.257C188.605 76.3043 188.878 76.2173 189.076 76.0433C189.274 75.8693 189.373 75.6293 189.373 75.3233C189.373 75.0113 189.268 74.7653 189.058 74.5853C188.848 74.3993 188.569 74.3063 188.221 74.3063H186.871V76.3043ZM194.979 72.1463H196.005V77.1053H194.979V76.3223C194.655 76.8923 194.127 77.1773 193.395 77.1773C192.837 77.1773 192.375 76.9943 192.009 76.6283C191.649 76.2563 191.469 75.7373 191.469 75.0713V72.1463H192.486V74.9183C192.486 75.3623 192.597 75.7043 192.819 75.9443C193.041 76.1783 193.344 76.2953 193.728 76.2953C194.112 76.2953 194.415 76.1783 194.637 75.9443C194.865 75.7043 194.979 75.3623 194.979 74.9183V72.1463ZM197.134 73.5683C197.134 73.1483 197.311 72.7943 197.665 72.5063C198.019 72.2123 198.484 72.0653 199.06 72.0653C199.636 72.0653 200.092 72.2093 200.428 72.4973C200.77 72.7793 200.953 73.1663 200.977 73.6583H199.924C199.906 73.4123 199.819 73.2203 199.663 73.0823C199.513 72.9443 199.3 72.8753 199.024 72.8753C198.748 72.8753 198.532 72.9383 198.376 73.0643C198.22 73.1843 198.142 73.3463 198.142 73.5503C198.142 73.7483 198.241 73.9043 198.439 74.0183C198.637 74.1323 198.877 74.2163 199.159 74.2703C199.447 74.3243 199.732 74.3903 200.014 74.4683C200.302 74.5463 200.545 74.6903 200.743 74.9003C200.941 75.1043 201.04 75.3803 201.04 75.7283C201.04 76.1603 200.857 76.5113 200.491 76.7813C200.131 77.0513 199.666 77.1863 199.096 77.1863C198.526 77.1863 198.064 77.0483 197.71 76.7723C197.356 76.4963 197.161 76.1033 197.125 75.5933H198.187C198.205 75.8393 198.295 76.0313 198.457 76.1693C198.619 76.3073 198.838 76.3763 199.114 76.3763C199.396 76.3763 199.618 76.3163 199.78 76.1963C199.948 76.0703 200.032 75.9053 200.032 75.7013C200.032 75.4973 199.933 75.3383 199.735 75.2243C199.537 75.1103 199.294 75.0263 199.006 74.9723C198.724 74.9123 198.439 74.8463 198.151 74.7743C197.869 74.6963 197.629 74.5583 197.431 74.3603C197.233 74.1623 197.134 73.8983 197.134 73.5683ZM203.336 70.8323C203.336 71.0183 203.273 71.1743 203.147 71.3003C203.021 71.4263 202.865 71.4893 202.679 71.4893C202.499 71.4893 202.346 71.4263 202.22 71.3003C202.094 71.1743 202.031 71.0183 202.031 70.8323C202.031 70.6463 202.094 70.4903 202.22 70.3643C202.346 70.2383 202.499 70.1753 202.679 70.1753C202.865 70.1753 203.021 70.2383 203.147 70.3643C203.273 70.4903 203.336 70.6463 203.336 70.8323ZM202.166 77.1053V72.1463H203.192V77.1053H202.166ZM205.566 72.1463V72.9293C205.896 72.3533 206.424 72.0653 207.15 72.0653C207.708 72.0653 208.167 72.2513 208.527 72.6233C208.893 72.9953 209.076 73.5143 209.076 74.1803V77.1053H208.059V74.3333C208.059 73.8893 207.948 73.5503 207.726 73.3163C207.504 73.0763 207.201 72.9563 206.817 72.9563C206.433 72.9563 206.127 73.0763 205.899 73.3163C205.677 73.5503 205.566 73.8893 205.566 74.3333V77.1053H204.54V72.1463H205.566ZM212.472 77.1863C211.752 77.1863 211.167 76.9523 210.717 76.4843C210.267 76.0163 210.042 75.3953 210.042 74.6213C210.042 73.8473 210.27 73.2293 210.726 72.7673C211.182 72.2993 211.77 72.0653 212.49 72.0653C213.216 72.0653 213.804 72.2903 214.254 72.7403C214.704 73.1843 214.929 73.7663 214.929 74.4863C214.929 74.6603 214.917 74.8223 214.893 74.9723H211.095C211.119 75.3863 211.257 75.7163 211.509 75.9623C211.767 76.2023 212.088 76.3223 212.472 76.3223C213.03 76.3223 213.423 76.0913 213.651 75.6293H214.758C214.608 76.0853 214.335 76.4603 213.939 76.7543C213.543 77.0423 213.054 77.1863 212.472 77.1863ZM213.858 74.2703C213.852 73.8623 213.717 73.5383 213.453 73.2983C213.189 73.0523 212.868 72.9293 212.49 72.9293C212.112 72.9293 211.794 73.0523 211.536 73.2983C211.284 73.5383 211.14 73.8623 211.104 74.2703H213.858ZM215.714 73.5683C215.714 73.1483 215.891 72.7943 216.245 72.5063C216.599 72.2123 217.064 72.0653 217.64 72.0653C218.216 72.0653 218.672 72.2093 219.008 72.4973C219.35 72.7793 219.533 73.1663 219.557 73.6583H218.504C218.486 73.4123 218.399 73.2203 218.243 73.0823C218.093 72.9443 217.88 72.8753 217.604 72.8753C217.328 72.8753 217.112 72.9383 216.956 73.0643C216.8 73.1843 216.722 73.3463 216.722 73.5503C216.722 73.7483 216.821 73.9043 217.019 74.0183C217.217 74.1323 217.457 74.2163 217.739 74.2703C218.027 74.3243 218.312 74.3903 218.594 74.4683C218.882 74.5463 219.125 74.6903 219.323 74.9003C219.521 75.1043 219.62 75.3803 219.62 75.7283C219.62 76.1603 219.437 76.5113 219.071 76.7813C218.711 77.0513 218.246 77.1863 217.676 77.1863C217.106 77.1863 216.644 77.0483 216.29 76.7723C215.936 76.4963 215.741 76.1033 215.705 75.5933H216.767C216.785 75.8393 216.875 76.0313 217.037 76.1693C217.199 76.3073 217.418 76.3763 217.694 76.3763C217.976 76.3763 218.198 76.3163 218.36 76.1963C218.528 76.0703 218.612 75.9053 218.612 75.7013C218.612 75.4973 218.513 75.3383 218.315 75.2243C218.117 75.1103 217.874 75.0263 217.586 74.9723C217.304 74.9123 217.019 74.8463 216.731 74.7743C216.449 74.6963 216.209 74.5583 216.011 74.3603C215.813 74.1623 215.714 73.8983 215.714 73.5683ZM220.522 73.5683C220.522 73.1483 220.699 72.7943 221.053 72.5063C221.407 72.2123 221.872 72.0653 222.448 72.0653C223.024 72.0653 223.48 72.2093 223.816 72.4973C224.158 72.7793 224.341 73.1663 224.365 73.6583H223.312C223.294 73.4123 223.207 73.2203 223.051 73.0823C222.901 72.9443 222.688 72.8753 222.412 72.8753C222.136 72.8753 221.92 72.9383 221.764 73.0643C221.608 73.1843 221.53 73.3463 221.53 73.5503C221.53 73.7483 221.629 73.9043 221.827 74.0183C222.025 74.1323 222.265 74.2163 222.547 74.2703C222.835 74.3243 223.12 74.3903 223.402 74.4683C223.69 74.5463 223.933 74.6903 224.131 74.9003C224.329 75.1043 224.428 75.3803 224.428 75.7283C224.428 76.1603 224.245 76.5113 223.879 76.7813C223.519 77.0513 223.054 77.1863 222.484 77.1863C221.914 77.1863 221.452 77.0483 221.098 76.7723C220.744 76.4963 220.549 76.1033 220.513 75.5933H221.575C221.593 75.8393 221.683 76.0313 221.845 76.1693C222.007 76.3073 222.226 76.3763 222.502 76.3763C222.784 76.3763 223.006 76.3163 223.168 76.1963C223.336 76.0703 223.42 75.9053 223.42 75.7013C223.42 75.4973 223.321 75.3383 223.123 75.2243C222.925 75.1103 222.682 75.0263 222.394 74.9723C222.112 74.9123 221.827 74.8463 221.539 74.7743C221.257 74.6963 221.017 74.5583 220.819 74.3603C220.621 74.1623 220.522 73.8983 220.522 73.5683ZM229.278 76.3223H230.295C231.021 76.3223 231.579 76.1153 231.969 75.7013C232.365 75.2873 232.563 74.7203 232.563 74.0003C232.563 73.2743 232.365 72.7073 231.969 72.2993C231.579 71.8853 231.021 71.6783 230.295 71.6783H229.278V76.3223ZM230.295 70.8503C231.303 70.8503 232.107 71.1353 232.707 71.7053C233.313 72.2693 233.616 73.0343 233.616 74.0003C233.616 74.9603 233.313 75.7193 232.707 76.2773C232.107 76.8293 231.303 77.1053 230.295 77.1053H228.252V70.8503H230.295ZM237.855 75.8723C238.155 75.5723 238.305 75.1553 238.305 74.6213C238.305 74.0873 238.158 73.6733 237.864 73.3793C237.576 73.0793 237.225 72.9293 236.811 72.9293C236.397 72.9293 236.049 73.0793 235.767 73.3793C235.485 73.6733 235.344 74.0903 235.344 74.6303C235.344 75.1643 235.482 75.5813 235.758 75.8813C236.034 76.1753 236.376 76.3223 236.784 76.3223C237.198 76.3223 237.555 76.1723 237.855 75.8723ZM236.784 77.1863C236.064 77.1863 235.47 76.9523 235.002 76.4843C234.534 76.0103 234.3 75.3923 234.3 74.6303C234.3 73.8623 234.54 73.2443 235.02 72.7763C235.506 72.3023 236.109 72.0653 236.829 72.0653C237.549 72.0653 238.149 72.3023 238.629 72.7763C239.115 73.2443 239.358 73.8593 239.358 74.6213C239.358 75.3833 239.109 76.0013 238.611 76.4753C238.119 76.9493 237.51 77.1863 236.784 77.1863ZM242.461 77.1863C241.741 77.1863 241.156 76.9523 240.706 76.4843C240.256 76.0163 240.031 75.3983 240.031 74.6303C240.031 73.8563 240.256 73.2353 240.706 72.7673C241.162 72.2993 241.747 72.0653 242.461 72.0653C243.061 72.0653 243.556 72.2093 243.946 72.4973C244.342 72.7793 244.609 73.1843 244.747 73.7123H243.64C243.454 73.1903 243.061 72.9293 242.461 72.9293C242.041 72.9293 241.705 73.0793 241.453 73.3793C241.207 73.6733 241.084 74.0873 241.084 74.6213C241.084 75.1553 241.207 75.5723 241.453 75.8723C241.705 76.1723 242.041 76.3223 242.461 76.3223C243.055 76.3223 243.448 76.0613 243.64 75.5393H244.747C244.603 76.0433 244.333 76.4453 243.937 76.7453C243.541 77.0393 243.049 77.1863 242.461 77.1863ZM249.234 72.1463H250.26V77.1053H249.234V76.3223C248.91 76.8923 248.382 77.1773 247.65 77.1773C247.092 77.1773 246.63 76.9943 246.264 76.6283C245.904 76.2563 245.724 75.7373 245.724 75.0713V72.1463H246.741V74.9183C246.741 75.3623 246.852 75.7043 247.074 75.9443C247.296 76.1783 247.599 76.2953 247.983 76.2953C248.367 76.2953 248.67 76.1783 248.892 75.9443C249.12 75.7043 249.234 75.3623 249.234 74.9183V72.1463ZM252.64 72.1463V72.9293C252.97 72.3533 253.498 72.0653 254.224 72.0653C254.608 72.0653 254.95 72.1553 255.25 72.3353C255.55 72.5153 255.778 72.7763 255.934 73.1183C256.108 72.7883 256.348 72.5303 256.654 72.3443C256.966 72.1583 257.317 72.0653 257.707 72.0653C258.277 72.0653 258.745 72.2513 259.111 72.6233C259.477 72.9893 259.66 73.5083 259.66 74.1803V77.1053H258.634V74.3333C258.634 73.8893 258.523 73.5503 258.301 73.3163C258.079 73.0763 257.776 72.9563 257.392 72.9563C257.008 72.9563 256.705 73.0763 256.483 73.3163C256.261 73.5503 256.15 73.8893 256.15 74.3333V77.1053H255.133V74.3333C255.133 73.8893 255.022 73.5503 254.8 73.3163C254.578 73.0763 254.275 72.9563 253.891 72.9563C253.507 72.9563 253.201 73.0763 252.973 73.3163C252.751 73.5503 252.64 73.8893 252.64 74.3333V77.1053H251.614V72.1463H252.64ZM263.053 77.1863C262.333 77.1863 261.748 76.9523 261.298 76.4843C260.848 76.0163 260.623 75.3953 260.623 74.6213C260.623 73.8473 260.851 73.2293 261.307 72.7673C261.763 72.2993 262.351 72.0653 263.071 72.0653C263.797 72.0653 264.385 72.2903 264.835 72.7403C265.285 73.1843 265.51 73.7663 265.51 74.4863C265.51 74.6603 265.498 74.8223 265.474 74.9723H261.676C261.7 75.3863 261.838 75.7163 262.09 75.9623C262.348 76.2023 262.669 76.3223 263.053 76.3223C263.611 76.3223 264.004 76.0913 264.232 75.6293H265.339C265.189 76.0853 264.916 76.4603 264.52 76.7543C264.124 77.0423 263.635 77.1863 263.053 77.1863ZM264.439 74.2703C264.433 73.8623 264.298 73.5383 264.034 73.2983C263.77 73.0523 263.449 72.9293 263.071 72.9293C262.693 72.9293 262.375 73.0523 262.117 73.2983C261.865 73.5383 261.721 73.8623 261.685 74.2703H264.439ZM267.546 72.1463V72.9293C267.876 72.3533 268.404 72.0653 269.13 72.0653C269.688 72.0653 270.147 72.2513 270.507 72.6233C270.873 72.9953 271.056 73.5143 271.056 74.1803V77.1053H270.039V74.3333C270.039 73.8893 269.928 73.5503 269.706 73.3163C269.484 73.0763 269.181 72.9563 268.797 72.9563C268.413 72.9563 268.107 73.0763 267.879 73.3163C267.657 73.5503 267.546 73.8893 267.546 74.3333V77.1053H266.52V72.1463H267.546ZM274.768 72.9833H273.562V75.7283C273.562 75.9143 273.604 76.0493 273.688 76.1333C273.778 76.2113 273.928 76.2503 274.138 76.2503H274.768V77.1053H273.958C273.004 77.1053 272.527 76.6463 272.527 75.7283V72.9833H271.942V72.1463H272.527V70.9133H273.562V72.1463H274.768V72.9833Z" fill="black"/>
<g clip-path="url(#clip2_13_2)">
<path d="M397.242 26.043H395.842V53.6912H397.242C398.453 53.6912 399.436 52.6402 399.436 51.3438V28.3903C399.436 27.0939 398.453 26.043 397.242 26.043Z" fill="url(#paint0_linear_13_2)"/>
<path d="M397.242 26.043H395.842V53.6912H397.242C398.453 53.6912 399.436 52.6402 399.436 51.3438V28.3903C399.436 27.0939 398.453 26.043 397.242 26.043Z" fill="url(#paint1_linear_13_2)"/>
<path d="M396.987 26.5667H395.842V53.1676H396.987C397.979 53.1676 398.782 52.1565 398.782 50.9092V28.8251C398.782 27.5778 397.979 26.5667 396.987 26.5667Z" fill="url(#paint2_linear_13_2)"/>
<path d="M390.983 55.024H382.657C382.277 55.024 381.969 54.7157 381.969 54.3354V24.4209C381.969 24.0406 382.277 23.7323 382.657 23.7323H390.983C391.363 23.7323 391.671 24.0406 391.671 24.4209V54.3355C391.671 54.7157 391.363 55.024 390.983 55.024Z" fill="url(#paint3_linear_13_2)"/>
<path d="M393.263 26.2599H388.976V25.4767C388.976 25.1674 389.226 24.9167 389.536 24.9167H392.703C393.013 24.9167 393.263 25.1674 393.263 25.4767V26.2599H393.263Z" fill="url(#paint4_linear_13_2)"/>
<path d="M397.305 26.7726C396.929 26.377 396.416 26.1126 395.842 26.0552V53.6913H397.242C398.453 53.6913 399.436 52.6404 399.436 51.344V28.9028L397.305 26.7726Z" fill="url(#paint5_linear_13_2)"/>
<path d="M395.606 53.6912H380.095C379.464 53.6912 378.953 53.1797 378.953 52.5487V27.1855C378.953 26.5545 379.464 26.043 380.095 26.043H395.606C396.902 26.043 397.953 27.0939 397.953 28.3903V51.3438C397.953 52.6402 396.902 53.6912 395.606 53.6912Z" fill="url(#paint6_linear_13_2)"/>
<path d="M397.953 38.4237L391.749 32.2202C390.942 31.336 389.786 30.8377 388.5 30.8242C388.484 30.8235 388.421 30.8235 388.405 30.8242C385.982 30.8497 384.077 32.7543 384.052 35.1777C384.051 35.1937 384.051 35.2566 384.052 35.2726C384.065 36.5581 384.564 37.7148 385.448 38.5215L397.953 51.0266V38.4237H397.953Z" fill="url(#paint7_linear_13_2)"/>
<path d="M392.915 35.2726C392.916 35.2566 392.916 35.2408 392.916 35.2252C392.916 35.2096 392.916 35.1938 392.915 35.1777C392.89 32.7542 390.924 30.7883 388.5 30.7629C388.484 30.7621 388.468 30.7616 388.453 30.7616C388.437 30.7616 388.421 30.7621 388.405 30.7629C385.982 30.7883 384.016 32.7543 383.99 35.1777C383.99 35.1938 383.989 35.2096 383.989 35.2252C383.989 35.2408 383.99 35.2566 383.99 35.2726C384.016 37.6961 385.982 39.662 388.405 39.6875C388.421 39.6882 388.437 39.6887 388.453 39.6887C388.468 39.6887 388.484 39.6882 388.5 39.6875C390.924 39.662 392.89 37.6961 392.915 35.2726ZM390.353 36.1497C390.378 35.849 390.391 35.5396 390.391 35.2252C390.391 34.9107 390.378 34.6014 390.353 34.3007C391.486 34.543 392.087 34.9675 392.087 35.2252C392.087 35.4829 391.486 35.9073 390.353 36.1497ZM388.453 38.8593C388.195 38.8593 387.771 38.2581 387.528 37.125C387.829 37.1504 388.138 37.1638 388.453 37.1638C388.767 37.1638 389.077 37.1504 389.377 37.125C389.135 38.2582 388.71 38.8593 388.453 38.8593ZM388.453 36.3345C388.072 36.3345 387.72 36.3151 387.397 36.2813C387.363 35.9577 387.343 35.6056 387.343 35.2252C387.343 34.8447 387.363 34.4926 387.397 34.169C387.72 34.1353 388.072 34.1159 388.453 34.1159C388.833 34.1159 389.185 34.1353 389.509 34.169C389.543 34.4926 389.562 34.8447 389.562 35.2252C389.562 35.6056 389.543 35.9577 389.509 36.2813C389.185 36.315 388.833 36.3345 388.453 36.3345ZM384.819 35.2252C384.819 34.9675 385.42 34.543 386.553 34.3007C386.528 34.6014 386.514 34.9107 386.514 35.2252C386.514 35.5396 386.528 35.849 386.553 36.1497C385.42 35.9073 384.819 35.4829 384.819 35.2252ZM388.453 31.591C388.71 31.591 389.135 32.1921 389.377 33.3253C389.077 33.2999 388.767 33.2865 388.453 33.2865C388.138 33.2865 387.829 33.2999 387.528 33.3253C387.771 32.1921 388.195 31.591 388.453 31.591ZM391.845 33.9234C391.729 33.8672 391.602 33.8123 391.462 33.7595C391.101 33.6235 390.688 33.5151 390.242 33.4363C390.163 32.9899 390.054 32.5772 389.918 32.2161C389.866 32.0757 389.811 31.9487 389.754 31.833C390.713 32.202 391.476 32.9652 391.845 33.9234ZM387.151 31.833C387.095 31.9487 387.04 32.0757 386.987 32.2161C386.851 32.5773 386.743 32.9899 386.664 33.4363C386.217 33.5151 385.805 33.6235 385.444 33.7595C385.303 33.8124 385.176 33.8672 385.061 33.9234C385.43 32.9652 386.193 32.202 387.151 31.833ZM385.061 36.5269C385.176 36.5832 385.303 36.638 385.444 36.6909C385.805 36.8268 386.218 36.9353 386.664 37.0141C386.743 37.4604 386.851 37.8731 386.987 38.2342C387.04 38.3747 387.095 38.5017 387.151 38.6173C386.193 38.2484 385.43 37.485 385.061 36.5269ZM389.754 38.6173C389.811 38.5017 389.866 38.3747 389.918 38.2342C390.054 37.8731 390.163 37.4604 390.242 37.0141C390.688 36.9353 391.101 36.8268 391.462 36.6909C391.602 36.638 391.729 36.5831 391.845 36.5269C391.476 37.485 390.713 38.2484 389.754 38.6173Z" fill="url(#paint8_linear_13_2)"/>
<path d="M393.653 46.0867H383.253C383.002 46.0867 382.798 45.8832 382.798 45.6322V44.8448C382.798 44.5938 383.002 44.3903 383.253 44.3903H393.653C393.904 44.3903 394.108 44.5938 394.108 44.8448V45.6322C394.108 45.8832 393.904 46.0867 393.653 46.0867Z" fill="#F35227"/>
<path d="M391.217 48.9726H385.689C385.438 48.9726 385.235 48.7692 385.235 48.5182V47.7307C385.235 47.4797 385.438 47.2762 385.689 47.2762H391.217C391.468 47.2762 391.671 47.4797 391.671 47.7307V48.5182C391.671 48.7692 391.468 48.9726 391.217 48.9726Z" fill="#F35227"/>
<path d="M381.064 26.043H380.095C379.464 26.043 378.953 26.5546 378.953 27.1855V52.5487C378.953 53.1797 379.464 53.6912 380.095 53.6912H381.064V26.043Z" fill="url(#paint9_linear_13_2)"/>
</g>
<circle cx="389.194" cy="39.3781" r="23.0776" stroke="#464040" stroke-width="0.782293"/>
<circle cx="389.194" cy="15.9093" r="6.25834" fill="#464040"/>
<path d="M387.226 15.0069C387.242 14.4958 387.422 14.0994 387.766 13.8178C388.115 13.5309 388.569 13.3875 389.127 13.3875C389.69 13.3875 390.131 13.5309 390.449 13.8178C390.767 14.0994 390.926 14.4567 390.926 14.8895C390.926 15.2233 390.84 15.5049 390.668 15.7344C390.496 15.9587 390.303 16.1073 390.089 16.1803V16.2116C390.715 16.4254 391.028 16.8974 391.028 17.6276C391.028 18.1126 390.861 18.5037 390.527 18.801C390.194 19.0983 389.735 19.2469 389.151 19.2469C388.567 19.2469 388.089 19.0983 387.719 18.801C387.349 18.5037 387.156 18.0682 387.14 17.4946H388.204C388.214 17.7501 388.301 17.9561 388.462 18.1126C388.629 18.2638 388.851 18.3394 389.127 18.3394C389.404 18.3394 389.612 18.2664 389.753 18.1204C389.899 17.9692 389.972 17.7553 389.972 17.4789C389.972 17.2025 389.873 16.9991 389.675 16.8687C389.482 16.7331 389.174 16.6653 388.752 16.6653H388.525V15.7657H388.752C389.492 15.7657 389.863 15.518 389.863 15.0225C389.863 14.8087 389.795 14.6392 389.659 14.514C389.524 14.3889 389.331 14.3263 389.08 14.3263C388.83 14.3263 388.642 14.3967 388.517 14.5375C388.392 14.6783 388.319 14.8348 388.298 15.0069H387.226Z" fill="white"/>
<path d="M362.762 77.1053L360.404 70.8503H361.502L363.347 76.0433L365.21 70.8503H366.299L363.95 77.1053H362.762ZM368.327 70.8323C368.327 71.0183 368.264 71.1743 368.138 71.3003C368.012 71.4263 367.856 71.4893 367.67 71.4893C367.49 71.4893 367.337 71.4263 367.211 71.3003C367.085 71.1743 367.022 71.0183 367.022 70.8323C367.022 70.6463 367.085 70.4903 367.211 70.3643C367.337 70.2383 367.49 70.1753 367.67 70.1753C367.856 70.1753 368.012 70.2383 368.138 70.3643C368.264 70.4903 368.327 70.6463 368.327 70.8323ZM367.157 77.1053V72.1463H368.183V77.1053H367.157ZM369.305 73.5683C369.305 73.1483 369.482 72.7943 369.836 72.5063C370.19 72.2123 370.655 72.0653 371.231 72.0653C371.807 72.0653 372.263 72.2093 372.599 72.4973C372.941 72.7793 373.124 73.1663 373.148 73.6583H372.095C372.077 73.4123 371.99 73.2203 371.834 73.0823C371.684 72.9443 371.471 72.8753 371.195 72.8753C370.919 72.8753 370.703 72.9383 370.547 73.0643C370.391 73.1843 370.313 73.3463 370.313 73.5503C370.313 73.7483 370.412 73.9043 370.61 74.0183C370.808 74.1323 371.048 74.2163 371.33 74.2703C371.618 74.3243 371.903 74.3903 372.185 74.4683C372.473 74.5463 372.716 74.6903 372.914 74.9003C373.112 75.1043 373.211 75.3803 373.211 75.7283C373.211 76.1603 373.028 76.5113 372.662 76.7813C372.302 77.0513 371.837 77.1863 371.267 77.1863C370.697 77.1863 370.235 77.0483 369.881 76.7723C369.527 76.4963 369.332 76.1033 369.296 75.5933H370.358C370.376 75.8393 370.466 76.0313 370.628 76.1693C370.79 76.3073 371.009 76.3763 371.285 76.3763C371.567 76.3763 371.789 76.3163 371.951 76.1963C372.119 76.0703 372.203 75.9053 372.203 75.7013C372.203 75.4973 372.104 75.3383 371.906 75.2243C371.708 75.1103 371.465 75.0263 371.177 74.9723C370.895 74.9123 370.61 74.8463 370.322 74.7743C370.04 74.6963 369.8 74.5583 369.602 74.3603C369.404 74.1623 369.305 73.8983 369.305 73.5683ZM377.604 75.8453C377.904 75.5393 378.054 75.1313 378.054 74.6213C378.054 74.1113 377.904 73.7063 377.604 73.4063C377.31 73.1063 376.959 72.9563 376.551 72.9563C376.143 72.9563 375.789 73.1033 375.489 73.3973C375.195 73.6913 375.048 74.0933 375.048 74.6033C375.048 75.1133 375.195 75.5243 375.489 75.8363C375.789 76.1423 376.143 76.2953 376.551 76.2953C376.959 76.2953 377.31 76.1453 377.604 75.8453ZM376.335 77.1863C375.675 77.1863 375.12 76.9463 374.67 76.4663C374.22 75.9803 373.995 75.3623 373.995 74.6123C373.995 73.8563 374.217 73.2443 374.661 72.7763C375.111 72.3023 375.669 72.0653 376.335 72.0653C376.725 72.0653 377.067 72.1553 377.361 72.3353C377.661 72.5093 377.892 72.7403 378.054 73.0283V72.1463H379.089V77.1053H378.054V76.1783C377.886 76.4843 377.655 76.7303 377.361 76.9163C377.067 77.0963 376.725 77.1863 376.335 77.1863ZM385.295 70.8503C386.003 70.8503 386.549 71.0273 386.933 71.3813C387.317 71.7293 387.509 72.1673 387.509 72.6953C387.509 73.2173 387.326 73.6613 386.96 74.0273C386.6 74.3873 386.045 74.5673 385.295 74.5673H384.161V77.1053H383.135V70.8503H385.295ZM384.161 73.7663H385.295C385.685 73.7663 385.976 73.6733 386.168 73.4873C386.36 73.3013 386.456 73.0433 386.456 72.7133C386.456 72.3773 386.36 72.1163 386.168 71.9303C385.976 71.7443 385.685 71.6513 385.295 71.6513H384.161V73.7663ZM389.514 72.1463V73.0103C389.832 72.3803 390.327 72.0653 390.999 72.0653V73.1273H390.738C390.336 73.1273 390.03 73.2293 389.82 73.4333C389.616 73.6373 389.514 73.9913 389.514 74.4953V77.1053H388.488V72.1463H389.514ZM395.164 75.8723C395.464 75.5723 395.614 75.1553 395.614 74.6213C395.614 74.0873 395.467 73.6733 395.173 73.3793C394.885 73.0793 394.534 72.9293 394.12 72.9293C393.706 72.9293 393.358 73.0793 393.076 73.3793C392.794 73.6733 392.653 74.0903 392.653 74.6303C392.653 75.1643 392.791 75.5813 393.067 75.8813C393.343 76.1753 393.685 76.3223 394.093 76.3223C394.507 76.3223 394.864 76.1723 395.164 75.8723ZM394.093 77.1863C393.373 77.1863 392.779 76.9523 392.311 76.4843C391.843 76.0103 391.609 75.3923 391.609 74.6303C391.609 73.8623 391.849 73.2443 392.329 72.7763C392.815 72.3023 393.418 72.0653 394.138 72.0653C394.858 72.0653 395.458 72.3023 395.938 72.7763C396.424 73.2443 396.667 73.8593 396.667 74.6213C396.667 75.3833 396.418 76.0013 395.92 76.4753C395.428 76.9493 394.819 77.1863 394.093 77.1863ZM399.769 77.1863C399.049 77.1863 398.464 76.9523 398.014 76.4843C397.564 76.0163 397.339 75.3983 397.339 74.6303C397.339 73.8563 397.564 73.2353 398.014 72.7673C398.47 72.2993 399.055 72.0653 399.769 72.0653C400.369 72.0653 400.864 72.2093 401.254 72.4973C401.65 72.7793 401.917 73.1843 402.055 73.7123H400.948C400.762 73.1903 400.369 72.9293 399.769 72.9293C399.349 72.9293 399.013 73.0793 398.761 73.3793C398.515 73.6733 398.392 74.0873 398.392 74.6213C398.392 75.1553 398.515 75.5723 398.761 75.8723C399.013 76.1723 399.349 76.3223 399.769 76.3223C400.363 76.3223 400.756 76.0613 400.948 75.5393H402.055C401.911 76.0433 401.641 76.4453 401.245 76.7453C400.849 77.0393 400.357 77.1863 399.769 77.1863ZM405.166 77.1863C404.446 77.1863 403.861 76.9523 403.411 76.4843C402.961 76.0163 402.736 75.3953 402.736 74.6213C402.736 73.8473 402.964 73.2293 403.42 72.7673C403.876 72.2993 404.464 72.0653 405.184 72.0653C405.91 72.0653 406.498 72.2903 406.948 72.7403C407.398 73.1843 407.623 73.7663 407.623 74.4863C407.623 74.6603 407.611 74.8223 407.587 74.9723H403.789C403.813 75.3863 403.951 75.7163 404.203 75.9623C404.461 76.2023 404.782 76.3223 405.166 76.3223C405.724 76.3223 406.117 76.0913 406.345 75.6293H407.452C407.302 76.0853 407.029 76.4603 406.633 76.7543C406.237 77.0423 405.748 77.1863 405.166 77.1863ZM406.552 74.2703C406.546 73.8623 406.411 73.5383 406.147 73.2983C405.883 73.0523 405.562 72.9293 405.184 72.9293C404.806 72.9293 404.488 73.0523 404.23 73.2983C403.978 73.5383 403.834 73.8623 403.798 74.2703H406.552ZM408.407 73.5683C408.407 73.1483 408.584 72.7943 408.938 72.5063C409.292 72.2123 409.757 72.0653 410.333 72.0653C410.909 72.0653 411.365 72.2093 411.701 72.4973C412.043 72.7793 412.226 73.1663 412.25 73.6583H411.197C411.179 73.4123 411.092 73.2203 410.936 73.0823C410.786 72.9443 410.573 72.8753 410.297 72.8753C410.021 72.8753 409.805 72.9383 409.649 73.0643C409.493 73.1843 409.415 73.3463 409.415 73.5503C409.415 73.7483 409.514 73.9043 409.712 74.0183C409.91 74.1323 410.15 74.2163 410.432 74.2703C410.72 74.3243 411.005 74.3903 411.287 74.4683C411.575 74.5463 411.818 74.6903 412.016 74.9003C412.214 75.1043 412.313 75.3803 412.313 75.7283C412.313 76.1603 412.13 76.5113 411.764 76.7813C411.404 77.0513 410.939 77.1863 410.369 77.1863C409.799 77.1863 409.337 77.0483 408.983 76.7723C408.629 76.4963 408.434 76.1033 408.398 75.5933H409.46C409.478 75.8393 409.568 76.0313 409.73 76.1693C409.892 76.3073 410.111 76.3763 410.387 76.3763C410.669 76.3763 410.891 76.3163 411.053 76.1963C411.221 76.0703 411.305 75.9053 411.305 75.7013C411.305 75.4973 411.206 75.3383 411.008 75.2243C410.81 75.1103 410.567 75.0263 410.279 74.9723C409.997 74.9123 409.712 74.8463 409.424 74.7743C409.142 74.6963 408.902 74.5583 408.704 74.3603C408.506 74.1623 408.407 73.8983 408.407 73.5683ZM413.215 73.5683C413.215 73.1483 413.392 72.7943 413.746 72.5063C414.1 72.2123 414.565 72.0653 415.141 72.0653C415.717 72.0653 416.173 72.2093 416.509 72.4973C416.851 72.7793 417.034 73.1663 417.058 73.6583H416.005C415.987 73.4123 415.9 73.2203 415.744 73.0823C415.594 72.9443 415.381 72.8753 415.105 72.8753C414.829 72.8753 414.613 72.9383 414.457 73.0643C414.301 73.1843 414.223 73.3463 414.223 73.5503C414.223 73.7483 414.322 73.9043 414.52 74.0183C414.718 74.1323 414.958 74.2163 415.24 74.2703C415.528 74.3243 415.813 74.3903 416.095 74.4683C416.383 74.5463 416.626 74.6903 416.824 74.9003C417.022 75.1043 417.121 75.3803 417.121 75.7283C417.121 76.1603 416.938 76.5113 416.572 76.7813C416.212 77.0513 415.747 77.1863 415.177 77.1863C414.607 77.1863 414.145 77.0483 413.791 76.7723C413.437 76.4963 413.242 76.1033 413.206 75.5933H414.268C414.286 75.8393 414.376 76.0313 414.538 76.1693C414.7 76.3073 414.919 76.3763 415.195 76.3763C415.477 76.3763 415.699 76.3163 415.861 76.1963C416.029 76.0703 416.113 75.9053 416.113 75.7013C416.113 75.4973 416.014 75.3383 415.816 75.2243C415.618 75.1103 415.375 75.0263 415.087 74.9723C414.805 74.9123 414.52 74.8463 414.232 74.7743C413.95 74.6963 413.71 74.5583 413.512 74.3603C413.314 74.1623 413.215 73.8983 413.215 73.5683Z" fill="black"/>
<g clip-path="url(#clip3_13_2)">
<path d="M556.605 39.3383C556.622 46.096 552.354 51.8593 546.366 54.0647C545.761 54.2875 545.119 53.8405 545.119 53.1959C545.119 50.9315 543.283 49.0958 541.019 49.0958H529.663C529.037 49.0958 528.447 48.7944 528.091 48.2803C526.339 45.7533 525.313 42.6856 525.313 39.3782C525.313 30.7478 532.301 23.7494 540.927 23.7325C549.537 23.7155 556.583 30.7288 556.605 39.3383Z" fill="#5F55AF"/>
<path d="M555.871 39.2559C555.871 46.5468 549.961 52.4571 542.67 52.4571C535.379 52.4571 529.469 46.5468 529.469 39.2559C529.469 31.9651 535.379 26.0547 542.67 26.0547C549.961 26.0547 555.871 31.9651 555.871 39.2559Z" fill="#6A61B4"/>
<path d="M546.398 33.2053V54.0525C544.704 54.6807 542.872 55.024 540.959 55.024C536.556 55.024 532.578 53.2055 529.735 50.2786C528.654 49.1658 528.063 47.6665 528.063 46.115V33.2053C528.063 32.8678 528.337 32.5942 528.675 32.5942H545.787C546.125 32.5942 546.398 32.8678 546.398 33.2053Z" fill="#A7D0FC"/>
<path d="M530.576 32.5942C530.238 32.5942 529.965 32.8678 529.965 33.2053V50.5098C529.262 49.816 528.625 49.0562 528.063 48.2405V33.2053C528.063 32.8678 528.337 32.5942 528.675 32.5942H530.576Z" fill="#86BEFB"/>
<path d="M529.591 38.7058C529.591 38.5371 529.728 38.4002 529.897 38.4002H532.953C533.121 38.4002 533.258 38.5371 533.258 38.7058C533.258 38.8746 533.121 39.0114 532.953 39.0114H529.897C529.728 39.0114 529.591 38.8746 529.591 38.7058ZM529.897 41.4561H539.064C539.233 41.4561 539.37 41.3192 539.37 41.1505C539.37 40.9817 539.233 40.8449 539.064 40.8449H529.897C529.728 40.8449 529.591 40.9817 529.591 41.1505C529.591 41.3192 529.728 41.4561 529.897 41.4561ZM529.897 37.7891H534.786C534.955 37.7891 535.092 37.6522 535.092 37.4835C535.092 37.3147 534.955 37.1779 534.786 37.1779H529.897C529.728 37.1779 529.591 37.3147 529.591 37.4835C529.591 37.6522 529.728 37.7891 529.897 37.7891ZM529.897 36.5667H534.175C534.344 36.5667 534.481 36.4299 534.481 36.2612C534.481 36.0924 534.344 35.9556 534.175 35.9556H529.897C529.728 35.9556 529.591 36.0924 529.591 36.2612C529.591 36.4299 529.728 36.5667 529.897 36.5667ZM529.897 34.7332H531.119C531.288 34.7332 531.425 34.5964 531.425 34.4277C531.425 34.2589 531.288 34.1221 531.119 34.1221H529.897C529.728 34.1221 529.591 34.2589 529.591 34.4277C529.591 34.5964 529.728 34.7332 529.897 34.7332ZM529.897 43.9007H536.62C536.788 43.9007 536.925 43.7639 536.925 43.5951C536.925 43.4264 536.788 43.2896 536.62 43.2896H529.897C529.728 43.2896 529.591 43.4264 529.591 43.5951C529.591 43.7639 529.728 43.9007 529.897 43.9007ZM540.287 42.0672H529.897C529.728 42.0672 529.591 42.2041 529.591 42.3728C529.591 42.5416 529.728 42.6784 529.897 42.6784H540.287C540.455 42.6784 540.592 42.5416 540.592 42.3728C540.592 42.2041 540.455 42.0672 540.287 42.0672ZM544.565 52.4571H543.343C543.174 52.4571 543.037 52.5939 543.037 52.7626C543.037 52.9314 543.174 53.0682 543.343 53.0682H544.565C544.734 53.0682 544.87 52.9314 544.87 52.7626C544.87 52.5939 544.734 52.4571 544.565 52.4571ZM529.897 45.1231H539.064C539.233 45.1231 539.37 44.9862 539.37 44.8175C539.37 44.6487 539.233 44.5119 539.064 44.5119H529.897C529.728 44.5119 529.591 44.6487 529.591 44.8175C529.591 44.9862 529.728 45.1231 529.897 45.1231ZM540.287 45.7342H529.897C529.728 45.7342 529.591 45.8711 529.591 46.0398C529.591 46.2086 529.728 46.3454 529.897 46.3454H540.287C540.455 46.3454 540.592 46.2086 540.592 46.0398C540.592 45.8711 540.455 45.7342 540.287 45.7342Z" fill="#76B6FA"/>
<path d="M536.925 26.7881V50.0124C536.925 50.3499 536.652 50.6236 536.314 50.6236H535.092C534.754 50.6236 534.48 50.3499 534.48 50.0124V26.7881C534.48 26.4505 534.754 26.1769 535.092 26.1769H536.314C536.652 26.1769 536.925 26.4505 536.925 26.7881Z" fill="#C8E2FD"/>
<path d="M552.816 26.7881V50.0124C552.816 50.3499 552.542 50.6236 552.204 50.6236H536.314C535.976 50.6236 535.703 50.3499 535.703 50.0124V26.7881C535.703 26.4505 535.976 26.1769 536.314 26.1769H552.204C552.542 26.1769 552.816 26.4505 552.816 26.7881Z" fill="#E9F3FE"/>
<path d="M550.982 37.4835V46.0399C550.982 46.2086 550.845 46.3454 550.677 46.3454H536.62C536.451 46.3454 536.314 46.2086 536.314 46.0399V37.4835C536.314 37.3148 536.451 37.1779 536.62 37.1779H550.677C550.845 37.1779 550.982 37.3148 550.982 37.4835Z" fill="#A7D0FC"/>
<path d="M536.314 28.316C536.314 28.1473 536.451 28.0104 536.62 28.0104H537.842C538.011 28.0104 538.148 28.1473 538.148 28.316C538.148 28.4848 538.011 28.6216 537.842 28.6216H536.62C536.451 28.6216 536.314 28.4848 536.314 28.316ZM537.842 35.3444H536.62C536.451 35.3444 536.314 35.4813 536.314 35.65C536.314 35.8188 536.451 35.9556 536.62 35.9556H537.842C538.011 35.9556 538.148 35.8188 538.148 35.65C538.148 35.4813 538.011 35.3444 537.842 35.3444ZM536.62 30.4551H540.898C541.067 30.4551 541.204 30.3183 541.204 30.1495C541.204 29.9808 541.067 29.8439 540.898 29.8439H536.62C536.451 29.8439 536.314 29.9808 536.314 30.1495C536.314 30.3183 536.451 30.4551 536.62 30.4551ZM550.677 48.1789H549.454C549.286 48.1789 549.149 48.3158 549.149 48.4845C549.149 48.6532 549.286 48.7901 549.454 48.7901H550.677C550.845 48.7901 550.982 48.6532 550.982 48.4845C550.982 48.3158 550.845 48.1789 550.677 48.1789ZM539.676 32.2886H536.62C536.451 32.2886 536.314 32.4254 536.314 32.5942C536.314 32.7629 536.451 32.8998 536.62 32.8998H539.676C539.844 32.8998 539.981 32.7629 539.981 32.5942C539.981 32.4254 539.844 32.2886 539.676 32.2886ZM541.509 31.0663H536.62C536.451 31.0663 536.314 31.2031 536.314 31.3719C536.314 31.5406 536.451 31.6774 536.62 31.6774H541.509C541.678 31.6774 541.815 31.5406 541.815 31.3719C541.815 31.2031 541.678 31.0663 541.509 31.0663Z" fill="#8C96DD"/>
<path d="M550.982 39.0114V39.6226H536.314V39.0114H550.982ZM536.314 42.0672H550.982V41.4561H536.314V42.0672ZM536.314 44.5119H550.982V43.9007H536.314V44.5119Z" fill="#76B6FA"/>
<path d="M550.982 41.8533V42.4645H550.472L546.275 45.5823C546.222 45.6218 546.158 45.6426 546.093 45.6426C546.072 45.6426 546.051 45.6405 546.031 45.6362C545.946 45.6185 545.872 45.5652 545.828 45.4897L544.083 42.4645H542.426C542.319 42.4645 542.219 42.4082 542.164 42.3161L540.036 38.7695L537.795 42.322C537.739 42.4107 537.641 42.4645 537.537 42.4645H536.314V41.8533H537.368L539.784 38.0233C539.84 37.9346 539.938 37.8808 540.042 37.8808H540.046C540.152 37.882 540.25 37.9381 540.304 38.0292L542.599 41.8533H544.259C544.369 41.8533 544.469 41.9116 544.524 42.0062L546.186 44.8871L550.189 41.9137C550.241 41.8745 550.305 41.8534 550.371 41.8534H550.982V41.8533Z" fill="#5766CE"/>
<path d="M549.324 32.2458L547.02 40.8449L545.822 39.6917L544.208 40.0916L546.513 31.4926L549.324 32.2458Z" fill="#84B017"/>
<path d="M555.145 40.0916L553.531 39.6917L552.334 40.8449L550.03 32.2458L552.841 31.4926L555.145 40.0916Z" fill="#9BCF1B"/>
<path d="M555.37 26.0505V31.3001C555.37 34.2448 552.922 36.6986 549.676 37.2441C546.431 36.6986 543.983 34.2448 543.983 31.3001V26.0505L549.676 24.0961L555.37 26.0505Z" fill="#FFF36C"/>
<path d="M547.381 25.6457C547.381 25.3728 547.555 25.13 547.813 25.0414L549.579 24.4352L555.022 26.3036V30.5216C555.022 30.8745 554.736 31.1606 554.383 31.1606H554.383C554.03 31.1606 553.744 30.8745 553.744 30.5216V27.2161L549.676 25.8227L548.325 26.2865C547.91 26.429 547.381 26.0843 547.381 25.6457Z" fill="#FFF68E"/>
<path d="M555.488 25.7064L549.795 23.752C549.718 23.7258 549.635 23.7258 549.559 23.752L543.865 25.7065C543.718 25.7569 543.619 25.8952 543.619 26.0506V31.3001C543.619 34.3681 546.141 37.0187 549.616 37.603C549.636 37.6063 549.656 37.608 549.677 37.608C549.697 37.608 549.717 37.6063 549.737 37.603C553.212 37.0187 555.734 34.3681 555.734 31.3001V26.0506C555.734 25.8952 555.635 25.7569 555.488 25.7064ZM555.007 31.3001C555.007 33.9938 552.769 36.33 549.677 36.875C546.585 36.33 544.347 33.9938 544.347 31.3001V26.3103L549.677 24.4807L555.007 26.3103V31.3001Z" fill="#E9CC5A"/>
<path d="M553.755 27.2039V31.3001C553.755 33.3227 552.055 35.0965 549.676 35.6004C547.297 35.0965 545.598 33.3227 545.598 31.3001V27.2039L549.676 25.8039L553.755 27.2039Z" fill="#E1B91E"/>
<path d="M553.755 27.2038V31.3001C553.755 32.9482 552.627 34.4311 550.922 35.1963C549.719 33.206 549.026 30.8725 549.026 28.3771C549.026 27.5482 549.103 26.7372 549.249 25.9507L549.677 25.8039L553.755 27.2038Z" fill="#EAC23F"/>
<path d="M549.435 27.6137C549.435 27.9151 549.191 28.1594 548.889 28.1594C548.588 28.1594 548.344 27.9151 548.344 27.6137C548.344 27.3123 548.588 27.068 548.889 27.068C549.191 27.068 549.435 27.3123 549.435 27.6137Z" fill="#FFF36C"/>
<path d="M550.581 26.8861C550.581 27.087 550.419 27.2499 550.218 27.2499C550.017 27.2499 549.854 27.087 549.854 26.8861C549.854 26.6852 550.017 26.5223 550.218 26.5223C550.419 26.5223 550.581 26.6852 550.581 26.8861Z" fill="#FFF68E"/>
<path d="M551.583 33.7548H547.63C547.219 33.7548 546.944 33.3308 547.112 32.9555L548.884 29.0041H550.328L552.1 32.9555C552.269 33.3308 551.994 33.7548 551.583 33.7548Z" fill="#C8E2FD"/>
<path d="M548.847 33.7548H547.63C547.219 33.7548 546.944 33.3308 547.112 32.9555L548.884 29.0041H550.101L548.329 32.9555C548.161 33.3308 548.436 33.7548 548.847 33.7548Z" fill="#A7D0FC"/>
<path d="M550.7 28.9458V29.0622C550.7 29.231 550.563 29.3678 550.395 29.3678H548.818C548.65 29.3678 548.513 29.231 548.513 29.0622V28.9458C548.513 28.7771 548.65 28.6402 548.818 28.6402H550.395C550.563 28.6402 550.7 28.777 550.7 28.9458Z" fill="#E9F3FE"/>
<path d="M551.263 32.9682C551.249 32.9906 551.206 33.0429 551.126 33.0429H548.087C548.007 33.0429 547.964 32.9907 547.95 32.9682C547.935 32.9458 547.905 32.8856 547.938 32.8123L548.921 30.6202H550.292L551.275 32.8123C551.308 32.8856 551.278 32.9457 551.263 32.9682Z" fill="#5766CE"/>
<path d="M549.324 33.0428H548.086C548.006 33.0428 547.964 32.9906 547.949 32.9681C547.935 32.9457 547.904 32.8856 547.937 32.8123L548.92 30.6201H549.324V33.0428H549.324Z" fill="#3D4EC6"/>
</g>
<circle cx="540.959" cy="39.3781" r="23.0776" stroke="#464040" stroke-width="0.782293"/>
<circle cx="540.959" cy="15.9093" r="6.25834" fill="#464040"/>
<path d="M540.984 17.1504V14.7722L539.42 17.1504H540.984ZM540.914 19.2156V18.1048H538.184V17.2442L540.734 13.5831H542.009V17.1504H542.698V18.1048H542.009V19.2156H540.914Z" fill="white"/>
<path d="M503.627 70.8503H506.012C506.654 70.8503 507.152 71.0063 507.506 71.3183C507.86 71.6303 508.037 72.0263 508.037 72.5063C508.037 73.2083 507.632 73.6703 506.822 73.8923C507.23 73.9583 507.557 74.1413 507.803 74.4413C508.055 74.7353 508.181 75.0743 508.181 75.4583C508.181 75.9383 507.995 76.3343 507.623 76.6463C507.251 76.9523 506.753 77.1053 506.129 77.1053H503.627V70.8503ZM504.653 71.6513V73.5053H505.922C506.258 73.5053 506.519 73.4243 506.705 73.2623C506.897 73.1003 506.993 72.8753 506.993 72.5873C506.993 72.2933 506.897 72.0653 506.705 71.9033C506.519 71.7353 506.258 71.6513 505.922 71.6513H504.653ZM504.653 76.3043H506.039C506.387 76.3043 506.66 76.2173 506.858 76.0433C507.056 75.8693 507.155 75.6293 507.155 75.3233C507.155 75.0113 507.05 74.7653 506.84 74.5853C506.63 74.3993 506.351 74.3063 506.003 74.3063H504.653V76.3043ZM512.761 72.1463H513.787V77.1053H512.761V76.3223C512.437 76.8923 511.909 77.1773 511.177 77.1773C510.619 77.1773 510.157 76.9943 509.791 76.6283C509.431 76.2563 509.251 75.7373 509.251 75.0713V72.1463H510.268V74.9183C510.268 75.3623 510.379 75.7043 510.601 75.9443C510.823 76.1783 511.126 76.2953 511.51 76.2953C511.894 76.2953 512.197 76.1783 512.419 75.9443C512.647 75.7043 512.761 75.3623 512.761 74.9183V72.1463ZM514.916 73.5683C514.916 73.1483 515.093 72.7943 515.447 72.5063C515.801 72.2123 516.266 72.0653 516.842 72.0653C517.418 72.0653 517.874 72.2093 518.21 72.4973C518.552 72.7793 518.735 73.1663 518.759 73.6583H517.706C517.688 73.4123 517.601 73.2203 517.445 73.0823C517.295 72.9443 517.082 72.8753 516.806 72.8753C516.53 72.8753 516.314 72.9383 516.158 73.0643C516.002 73.1843 515.924 73.3463 515.924 73.5503C515.924 73.7483 516.023 73.9043 516.221 74.0183C516.419 74.1323 516.659 74.2163 516.941 74.2703C517.229 74.3243 517.514 74.3903 517.796 74.4683C518.084 74.5463 518.327 74.6903 518.525 74.9003C518.723 75.1043 518.822 75.3803 518.822 75.7283C518.822 76.1603 518.639 76.5113 518.273 76.7813C517.913 77.0513 517.448 77.1863 516.878 77.1863C516.308 77.1863 515.846 77.0483 515.492 76.7723C515.138 76.4963 514.943 76.1033 514.907 75.5933H515.969C515.987 75.8393 516.077 76.0313 516.239 76.1693C516.401 76.3073 516.62 76.3763 516.896 76.3763C517.178 76.3763 517.4 76.3163 517.562 76.1963C517.73 76.0703 517.814 75.9053 517.814 75.7013C517.814 75.4973 517.715 75.3383 517.517 75.2243C517.319 75.1103 517.076 75.0263 516.788 74.9723C516.506 74.9123 516.221 74.8463 515.933 74.7743C515.651 74.6963 515.411 74.5583 515.213 74.3603C515.015 74.1623 514.916 73.8983 514.916 73.5683ZM521.118 70.8323C521.118 71.0183 521.055 71.1743 520.929 71.3003C520.803 71.4263 520.647 71.4893 520.461 71.4893C520.281 71.4893 520.128 71.4263 520.002 71.3003C519.876 71.1743 519.813 71.0183 519.813 70.8323C519.813 70.6463 519.876 70.4903 520.002 70.3643C520.128 70.2383 520.281 70.1753 520.461 70.1753C520.647 70.1753 520.803 70.2383 520.929 70.3643C521.055 70.4903 521.118 70.6463 521.118 70.8323ZM519.948 77.1053V72.1463H520.974V77.1053H519.948ZM523.347 72.1463V72.9293C523.677 72.3533 524.205 72.0653 524.931 72.0653C525.489 72.0653 525.948 72.2513 526.308 72.6233C526.674 72.9953 526.857 73.5143 526.857 74.1803V77.1053H525.84V74.3333C525.84 73.8893 525.729 73.5503 525.507 73.3163C525.285 73.0763 524.982 72.9563 524.598 72.9563C524.214 72.9563 523.908 73.0763 523.68 73.3163C523.458 73.5503 523.347 73.8893 523.347 74.3333V77.1053H522.321V72.1463H523.347ZM530.254 77.1863C529.534 77.1863 528.949 76.9523 528.499 76.4843C528.049 76.0163 527.824 75.3953 527.824 74.6213C527.824 73.8473 528.052 73.2293 528.508 72.7673C528.964 72.2993 529.552 72.0653 530.272 72.0653C530.998 72.0653 531.586 72.2903 532.036 72.7403C532.486 73.1843 532.711 73.7663 532.711 74.4863C532.711 74.6603 532.699 74.8223 532.675 74.9723H528.877C528.901 75.3863 529.039 75.7163 529.291 75.9623C529.549 76.2023 529.87 76.3223 530.254 76.3223C530.812 76.3223 531.205 76.0913 531.433 75.6293H532.54C532.39 76.0853 532.117 76.4603 531.721 76.7543C531.325 77.0423 530.836 77.1863 530.254 77.1863ZM531.64 74.2703C531.634 73.8623 531.499 73.5383 531.235 73.2983C530.971 73.0523 530.65 72.9293 530.272 72.9293C529.894 72.9293 529.576 73.0523 529.318 73.2983C529.066 73.5383 528.922 73.8623 528.886 74.2703H531.64ZM533.496 73.5683C533.496 73.1483 533.673 72.7943 534.027 72.5063C534.381 72.2123 534.846 72.0653 535.422 72.0653C535.998 72.0653 536.454 72.2093 536.79 72.4973C537.132 72.7793 537.315 73.1663 537.339 73.6583H536.286C536.268 73.4123 536.181 73.2203 536.025 73.0823C535.875 72.9443 535.662 72.8753 535.386 72.8753C535.11 72.8753 534.894 72.9383 534.738 73.0643C534.582 73.1843 534.504 73.3463 534.504 73.5503C534.504 73.7483 534.603 73.9043 534.801 74.0183C534.999 74.1323 535.239 74.2163 535.521 74.2703C535.809 74.3243 536.094 74.3903 536.376 74.4683C536.664 74.5463 536.907 74.6903 537.105 74.9003C537.303 75.1043 537.402 75.3803 537.402 75.7283C537.402 76.1603 537.219 76.5113 536.853 76.7813C536.493 77.0513 536.028 77.1863 535.458 77.1863C534.888 77.1863 534.426 77.0483 534.072 76.7723C533.718 76.4963 533.523 76.1033 533.487 75.5933H534.549C534.567 75.8393 534.657 76.0313 534.819 76.1693C534.981 76.3073 535.2 76.3763 535.476 76.3763C535.758 76.3763 535.98 76.3163 536.142 76.1963C536.31 76.0703 536.394 75.9053 536.394 75.7013C536.394 75.4973 536.295 75.3383 536.097 75.2243C535.899 75.1103 535.656 75.0263 535.368 74.9723C535.086 74.9123 534.801 74.8463 534.513 74.7743C534.231 74.6963 533.991 74.5583 533.793 74.3603C533.595 74.1623 533.496 73.8983 533.496 73.5683ZM538.303 73.5683C538.303 73.1483 538.48 72.7943 538.834 72.5063C539.188 72.2123 539.653 72.0653 540.229 72.0653C540.805 72.0653 541.261 72.2093 541.597 72.4973C541.939 72.7793 542.122 73.1663 542.146 73.6583H541.093C541.075 73.4123 540.988 73.2203 540.832 73.0823C540.682 72.9443 540.469 72.8753 540.193 72.8753C539.917 72.8753 539.701 72.9383 539.545 73.0643C539.389 73.1843 539.311 73.3463 539.311 73.5503C539.311 73.7483 539.41 73.9043 539.608 74.0183C539.806 74.1323 540.046 74.2163 540.328 74.2703C540.616 74.3243 540.901 74.3903 541.183 74.4683C541.471 74.5463 541.714 74.6903 541.912 74.9003C542.11 75.1043 542.209 75.3803 542.209 75.7283C542.209 76.1603 542.026 76.5113 541.66 76.7813C541.3 77.0513 540.835 77.1863 540.265 77.1863C539.695 77.1863 539.233 77.0483 538.879 76.7723C538.525 76.4963 538.33 76.1033 538.294 75.5933H539.356C539.374 75.8393 539.464 76.0313 539.626 76.1693C539.788 76.3073 540.007 76.3763 540.283 76.3763C540.565 76.3763 540.787 76.3163 540.949 76.1963C541.117 76.0703 541.201 75.9053 541.201 75.7013C541.201 75.4973 541.102 75.3383 540.904 75.2243C540.706 75.1103 540.463 75.0263 540.175 74.9723C539.893 74.9123 539.608 74.8463 539.32 74.7743C539.038 74.6963 538.798 74.5583 538.6 74.3603C538.402 74.1623 538.303 73.8983 538.303 73.5683ZM546.034 70.8503H547.06V76.3223H549.175V77.1053H546.034V70.8503ZM551.203 70.8323C551.203 71.0183 551.14 71.1743 551.014 71.3003C550.888 71.4263 550.732 71.4893 550.546 71.4893C550.366 71.4893 550.213 71.4263 550.087 71.3003C549.961 71.1743 549.898 71.0183 549.898 70.8323C549.898 70.6463 549.961 70.4903 550.087 70.3643C550.213 70.2383 550.366 70.1753 550.546 70.1753C550.732 70.1753 550.888 70.2383 551.014 70.3643C551.14 70.4903 551.203 70.6463 551.203 70.8323ZM550.033 77.1053V72.1463H551.059V77.1053H550.033ZM554.494 77.1863C553.774 77.1863 553.189 76.9523 552.739 76.4843C552.289 76.0163 552.064 75.3983 552.064 74.6303C552.064 73.8563 552.289 73.2353 552.739 72.7673C553.195 72.2993 553.78 72.0653 554.494 72.0653C555.094 72.0653 555.589 72.2093 555.979 72.4973C556.375 72.7793 556.642 73.1843 556.78 73.7123H555.673C555.487 73.1903 555.094 72.9293 554.494 72.9293C554.074 72.9293 553.738 73.0793 553.486 73.3793C553.24 73.6733 553.117 74.0873 553.117 74.6213C553.117 75.1553 553.24 75.5723 553.486 75.8723C553.738 76.1723 554.074 76.3223 554.494 76.3223C555.088 76.3223 555.481 76.0613 555.673 75.5393H556.78C556.636 76.0433 556.366 76.4453 555.97 76.7453C555.574 77.0393 555.082 77.1863 554.494 77.1863ZM559.891 77.1863C559.171 77.1863 558.586 76.9523 558.136 76.4843C557.686 76.0163 557.461 75.3953 557.461 74.6213C557.461 73.8473 557.689 73.2293 558.145 72.7673C558.601 72.2993 559.189 72.0653 559.909 72.0653C560.635 72.0653 561.223 72.2903 561.673 72.7403C562.123 73.1843 562.348 73.7663 562.348 74.4863C562.348 74.6603 562.336 74.8223 562.312 74.9723H558.514C558.538 75.3863 558.676 75.7163 558.928 75.9623C559.186 76.2023 559.507 76.3223 559.891 76.3223C560.449 76.3223 560.842 76.0913 561.07 75.6293H562.177C562.027 76.0853 561.754 76.4603 561.358 76.7543C560.962 77.0423 560.473 77.1863 559.891 77.1863ZM561.277 74.2703C561.271 73.8623 561.136 73.5383 560.872 73.2983C560.608 73.0523 560.287 72.9293 559.909 72.9293C559.531 72.9293 559.213 73.0523 558.955 73.2983C558.703 73.5383 558.559 73.8623 558.523 74.2703H561.277ZM564.383 72.1463V72.9293C564.713 72.3533 565.241 72.0653 565.967 72.0653C566.525 72.0653 566.984 72.2513 567.344 72.6233C567.71 72.9953 567.893 73.5143 567.893 74.1803V77.1053H566.876V74.3333C566.876 73.8893 566.765 73.5503 566.543 73.3163C566.321 73.0763 566.018 72.9563 565.634 72.9563C565.25 72.9563 564.944 73.0763 564.716 73.3163C564.494 73.5503 564.383 73.8893 564.383 74.3333V77.1053H563.357V72.1463H564.383ZM571.29 77.1863C570.57 77.1863 569.985 76.9523 569.535 76.4843C569.085 76.0163 568.86 75.3983 568.86 74.6303C568.86 73.8563 569.085 73.2353 569.535 72.7673C569.991 72.2993 570.576 72.0653 571.29 72.0653C571.89 72.0653 572.385 72.2093 572.775 72.4973C573.171 72.7793 573.438 73.1843 573.576 73.7123H572.469C572.283 73.1903 571.89 72.9293 571.29 72.9293C570.87 72.9293 570.534 73.0793 570.282 73.3793C570.036 73.6733 569.913 74.0873 569.913 74.6213C569.913 75.1553 570.036 75.5723 570.282 75.8723C570.534 76.1723 570.87 76.3223 571.29 76.3223C571.884 76.3223 572.277 76.0613 572.469 75.5393H573.576C573.432 76.0433 573.162 76.4453 572.766 76.7453C572.37 77.0393 571.878 77.1863 571.29 77.1863ZM576.687 77.1863C575.967 77.1863 575.382 76.9523 574.932 76.4843C574.482 76.0163 574.257 75.3953 574.257 74.6213C574.257 73.8473 574.485 73.2293 574.941 72.7673C575.397 72.2993 575.985 72.0653 576.705 72.0653C577.431 72.0653 578.019 72.2903 578.469 72.7403C578.919 73.1843 579.144 73.7663 579.144 74.4863C579.144 74.6603 579.132 74.8223 579.108 74.9723H575.31C575.334 75.3863 575.472 75.7163 575.724 75.9623C575.982 76.2023 576.303 76.3223 576.687 76.3223C577.245 76.3223 577.638 76.0913 577.866 75.6293H578.973C578.823 76.0853 578.55 76.4603 578.154 76.7543C577.758 77.0423 577.269 77.1863 576.687 77.1863ZM578.073 74.2703C578.067 73.8623 577.932 73.5383 577.668 73.2983C577.404 73.0523 577.083 72.9293 576.705 72.9293C576.327 72.9293 576.009 73.0523 575.751 73.2983C575.499 73.5383 575.355 73.8623 575.319 74.2703H578.073Z" fill="black"/>
<g clip-path="url(#clip4_13_2)">
<path d="M682.896 35.4697H680.509V50.6493H682.896V35.4697Z" fill="#FEC93E"/>
<path d="M683.305 37.9484H680.1C679.863 37.9484 679.672 37.7569 679.672 37.5206V36.0676H683.733V37.5206C683.733 37.7569 683.542 37.9484 683.305 37.9484Z" fill="#F7A738"/>
<path d="M683.733 50.0859H679.672V48.633C679.672 48.3967 679.863 48.2051 680.1 48.2051H683.305C683.541 48.2051 683.733 48.3967 683.733 48.633V50.0859Z" fill="#F7A738"/>
<path d="M689.293 35.4697H686.906V50.6493H689.293V35.4697Z" fill="#FEC93E"/>
<path d="M689.702 37.9484H686.496C686.26 37.9484 686.069 37.7569 686.069 37.5206V36.0676H690.13V37.5206C690.13 37.7569 689.938 37.9484 689.702 37.9484Z" fill="#F7A738"/>
<path d="M690.13 50.0859H686.069V48.633C686.069 48.3967 686.26 48.2051 686.496 48.2051H689.702C689.938 48.2051 690.13 48.3967 690.13 48.633V50.0859Z" fill="#F7A738"/>
<path d="M695.689 35.4697H693.302V50.6493H695.689V35.4697Z" fill="#FEC93E"/>
<path d="M696.098 37.9484H692.893C692.656 37.9484 692.465 37.7569 692.465 37.5206V36.0676H696.526V37.5206C696.526 37.7569 696.334 37.9484 696.098 37.9484Z" fill="#F7A738"/>
<path d="M696.526 50.0859H692.465V48.633C692.465 48.3967 692.656 48.2051 692.893 48.2051H696.098C696.334 48.2051 696.526 48.3967 696.526 48.633V50.0859Z" fill="#F7A738"/>
<path d="M676.5 35.4697H674.113V50.6493H676.5V35.4697Z" fill="#FEC93E"/>
<path d="M676.909 37.9484H673.704C673.467 37.9484 673.276 37.7569 673.276 37.5206V36.0676H677.337V37.5206C677.337 37.7569 677.145 37.9484 676.909 37.9484Z" fill="#F7A738"/>
<path d="M677.337 50.0859H673.276V48.633C673.276 48.3967 673.467 48.2051 673.704 48.2051H676.909C677.145 48.2051 677.337 48.3967 677.337 48.633V50.0859H677.337Z" fill="#F7A738"/>
<path d="M698.255 36.0676H671.547C671.316 36.0676 671.129 35.8804 671.129 35.6493V33.8627C671.129 33.6317 671.316 33.4444 671.547 33.4444H698.255C698.486 33.4444 698.673 33.6317 698.673 33.8627V35.6493C698.673 35.8804 698.486 36.0676 698.255 36.0676Z" fill="#FEC93E"/>
<path d="M698.254 33.4444H695.367V36.0676H698.254C698.485 36.0676 698.673 35.8803 698.673 35.6493V33.8626C698.673 33.6317 698.485 33.4444 698.254 33.4444Z" fill="#EFB635"/>
<path d="M698.933 52.8236H670.869V50.7256C670.869 50.3723 671.155 50.086 671.508 50.086H698.294C698.647 50.086 698.933 50.3723 698.933 50.7256V52.8236H698.933Z" fill="#FEC93E"/>
<path d="M698.293 50.086H695.628V51.9055H698.933V50.7256C698.933 50.3723 698.647 50.086 698.293 50.086Z" fill="#EFB635"/>
<path d="M699.868 53.7251H669.934C669.813 53.7251 669.714 53.6267 669.714 53.5053V52.5451C669.714 52.1918 670 51.9055 670.354 51.9055H699.448C699.801 51.9055 700.088 52.1918 700.088 52.5451V53.5053C700.088 53.6267 699.989 53.7251 699.868 53.7251Z" fill="#F7A738"/>
<path d="M699.448 51.9055H696.797V53.7251H699.868C699.989 53.7251 700.087 53.6267 700.087 53.5053V52.5451C700.087 52.1918 699.801 51.9055 699.448 51.9055Z" fill="#E8932E"/>
<path d="M684.917 25.0835L669.885 32.9687C669.802 33.0124 669.749 33.0988 669.749 33.1929V34.0003C669.749 34.1401 669.863 34.2534 670.002 34.2534H699.799C699.939 34.2534 700.052 34.1401 700.052 34.0003V33.1907C700.052 33.0978 700.001 33.0123 699.92 32.9681L685.345 25.0862C685.212 25.0141 685.051 25.0131 684.917 25.0835Z" fill="#F7A738"/>
<path d="M699.92 32.968L685.345 25.0862C685.212 25.0141 685.051 25.0131 684.917 25.0835L682.311 26.4507L696.739 34.2535H699.799C699.939 34.2535 700.053 34.1401 700.053 34.0004V33.1907C700.053 33.0977 700.002 33.0123 699.92 32.968Z" fill="#E8932E"/>
</g>
<circle cx="684.901" cy="39.3781" r="23.0776" stroke="#464040" stroke-width="0.782293"/>
<circle cx="684.901" cy="15.9093" r="6.25834" fill="#464040"/>
<path d="M682.531 13.497H686.028V14.4593H683.532V15.7579C683.642 15.6379 683.793 15.5388 683.986 15.4606C684.179 15.3772 684.414 15.3354 684.69 15.3354C684.966 15.3354 685.227 15.3928 685.472 15.5075C685.723 15.6223 685.913 15.7761 686.043 15.9691C686.304 16.3446 686.434 16.7618 686.434 17.2208C686.434 17.8257 686.26 18.3108 685.91 18.6758C685.566 19.0357 685.086 19.2156 684.471 19.2156C683.856 19.2156 683.37 19.0722 683.016 18.7853C682.666 18.4933 682.46 18.1126 682.398 17.6432H683.477C683.524 17.8466 683.631 18.0083 683.798 18.1282C683.97 18.2482 684.197 18.3081 684.479 18.3081C684.766 18.3081 684.987 18.2117 685.144 18.0187C685.3 17.8257 685.378 17.5702 685.378 17.2521C685.378 16.9339 685.298 16.6888 685.136 16.5167C684.979 16.3446 684.768 16.2585 684.502 16.2585C684.002 16.2585 683.694 16.4593 683.579 16.8609H682.531V13.497Z" fill="white"/>
<path d="M667.279 70.8503H669.664C670.306 70.8503 670.804 71.0063 671.158 71.3183C671.512 71.6303 671.689 72.0263 671.689 72.5063C671.689 73.2083 671.284 73.6703 670.474 73.8923C670.882 73.9583 671.209 74.1413 671.455 74.4413C671.707 74.7353 671.833 75.0743 671.833 75.4583C671.833 75.9383 671.647 76.3343 671.275 76.6463C670.903 76.9523 670.405 77.1053 669.781 77.1053H667.279V70.8503ZM668.305 71.6513V73.5053H669.574C669.91 73.5053 670.171 73.4243 670.357 73.2623C670.549 73.1003 670.645 72.8753 670.645 72.5873C670.645 72.2933 670.549 72.0653 670.357 71.9033C670.171 71.7353 669.91 71.6513 669.574 71.6513H668.305ZM668.305 76.3043H669.691C670.039 76.3043 670.312 76.2173 670.51 76.0433C670.708 75.8693 670.807 75.6293 670.807 75.3233C670.807 75.0113 670.702 74.7653 670.492 74.5853C670.282 74.3993 670.003 74.3063 669.655 74.3063H668.305V76.3043ZM676.215 75.8453C676.515 75.5393 676.665 75.1313 676.665 74.6213C676.665 74.1113 676.515 73.7063 676.215 73.4063C675.921 73.1063 675.57 72.9563 675.162 72.9563C674.754 72.9563 674.4 73.1033 674.1 73.3973C673.806 73.6913 673.659 74.0933 673.659 74.6033C673.659 75.1133 673.806 75.5243 674.1 75.8363C674.4 76.1423 674.754 76.2953 675.162 76.2953C675.57 76.2953 675.921 76.1453 676.215 75.8453ZM674.946 77.1863C674.286 77.1863 673.731 76.9463 673.281 76.4663C672.831 75.9803 672.606 75.3623 672.606 74.6123C672.606 73.8563 672.828 73.2443 673.272 72.7763C673.722 72.3023 674.28 72.0653 674.946 72.0653C675.336 72.0653 675.678 72.1553 675.972 72.3353C676.272 72.5093 676.503 72.7403 676.665 73.0283V72.1463H677.7V77.1053H676.665V76.1783C676.497 76.4843 676.266 76.7303 675.972 76.9163C675.678 77.0963 675.336 77.1863 674.946 77.1863ZM680.074 72.1463V72.9293C680.404 72.3533 680.932 72.0653 681.658 72.0653C682.216 72.0653 682.675 72.2513 683.035 72.6233C683.401 72.9953 683.584 73.5143 683.584 74.1803V77.1053H682.567V74.3333C682.567 73.8893 682.456 73.5503 682.234 73.3163C682.012 73.0763 681.709 72.9563 681.325 72.9563C680.941 72.9563 680.635 73.0763 680.407 73.3163C680.185 73.5503 680.074 73.8893 680.074 74.3333V77.1053H679.048V72.1463H680.074ZM685.919 77.1053H684.893V70.4453H685.919V74.3153L687.719 72.1463H689.141L686.855 74.6303L689.141 77.1053H687.755L685.919 74.9723V77.1053ZM691.046 70.8323C691.046 71.0183 690.983 71.1743 690.857 71.3003C690.731 71.4263 690.575 71.4893 690.389 71.4893C690.209 71.4893 690.056 71.4263 689.93 71.3003C689.804 71.1743 689.741 71.0183 689.741 70.8323C689.741 70.6463 689.804 70.4903 689.93 70.3643C690.056 70.2383 690.209 70.1753 690.389 70.1753C690.575 70.1753 690.731 70.2383 690.857 70.3643C690.983 70.4903 691.046 70.6463 691.046 70.8323ZM689.876 77.1053V72.1463H690.902V77.1053H689.876ZM693.275 72.1463V72.9293C693.605 72.3533 694.133 72.0653 694.859 72.0653C695.417 72.0653 695.876 72.2513 696.236 72.6233C696.602 72.9953 696.785 73.5143 696.785 74.1803V77.1053H695.768V74.3333C695.768 73.8893 695.657 73.5503 695.435 73.3163C695.213 73.0763 694.91 72.9563 694.526 72.9563C694.142 72.9563 693.836 73.0763 693.608 73.3163C693.386 73.5503 693.275 73.8893 693.275 74.3333V77.1053H692.249V72.1463H693.275ZM700.092 77.1863C699.432 77.1863 698.877 76.9463 698.427 76.4663C697.977 75.9803 697.752 75.3623 697.752 74.6123C697.752 73.8563 697.974 73.2443 698.418 72.7763C698.868 72.3023 699.426 72.0653 700.092 72.0653C700.482 72.0653 700.824 72.1553 701.118 72.3353C701.418 72.5093 701.649 72.7403 701.811 73.0283V72.1463H702.846V77.1863C702.846 77.8823 702.63 78.4493 702.198 78.8873C701.772 79.3313 701.202 79.5533 700.488 79.5533C699.774 79.5533 699.195 79.3943 698.751 79.0763C698.307 78.7643 698.055 78.3383 697.995 77.7983H699.012C699.09 78.0563 699.255 78.2633 699.507 78.4193C699.765 78.5813 700.086 78.6623 700.47 78.6623C700.854 78.6623 701.172 78.5363 701.424 78.2843C701.682 78.0323 701.811 77.6663 701.811 77.1863V76.1783C701.643 76.4843 701.412 76.7303 701.118 76.9163C700.824 77.0963 700.482 77.1863 700.092 77.1863ZM701.361 75.8453C701.661 75.5393 701.811 75.1313 701.811 74.6213C701.811 74.1113 701.661 73.7063 701.361 73.4063C701.067 73.1063 700.716 72.9563 700.308 72.9563C699.9 72.9563 699.546 73.1033 699.246 73.3973C698.952 73.6913 698.805 74.0933 698.805 74.6033C698.805 75.1133 698.952 75.5243 699.246 75.8363C699.546 76.1423 699.9 76.2953 700.308 76.2953C700.716 76.2953 701.067 76.1453 701.361 75.8453Z" fill="black"/>
<path d="M178.354 39.3536C178.549 39.1583 178.549 38.8417 178.354 38.6464L175.172 35.4645C174.976 35.2692 174.66 35.2692 174.464 35.4645C174.269 35.6597 174.269 35.9763 174.464 36.1716L177.293 39L174.464 41.8284C174.269 42.0237 174.269 42.3403 174.464 42.5355C174.66 42.7308 174.976 42.7308 175.172 42.5355L178.354 39.3536ZM98 39.5H178V38.5H98V39.5Z" fill="black"/>
<path d="M347.354 39.3536C347.549 39.1583 347.549 38.8417 347.354 38.6464L344.172 35.4645C343.976 35.2692 343.66 35.2692 343.464 35.4645C343.269 35.6597 343.269 35.9763 343.464 36.1716L346.293 39L343.464 41.8284C343.269 42.0237 343.269 42.3403 343.464 42.5355C343.66 42.7308 343.976 42.7308 344.172 42.5355L347.354 39.3536ZM267 39.5H347V38.5H267V39.5Z" fill="black"/>
<path d="M503.354 39.3536C503.549 39.1583 503.549 38.8417 503.354 38.6464L500.172 35.4645C499.976 35.2692 499.66 35.2692 499.464 35.4645C499.269 35.6597 499.269 35.9763 499.464 36.1716L502.293 39L499.464 41.8284C499.269 42.0237 499.269 42.3403 499.464 42.5355C499.66 42.7308 499.976 42.7308 500.172 42.5355L503.354 39.3536ZM423 39.5H503V38.5H423V39.5Z" fill="black"/>
<path d="M653.354 39.3536C653.549 39.1583 653.549 38.8417 653.354 38.6464L650.172 35.4645C649.976 35.2692 649.66 35.2692 649.464 35.4645C649.269 35.6597 649.269 35.9763 649.464 36.1716L652.293 39L649.464 41.8284C649.269 42.0237 649.269 42.3403 649.464 42.5355C649.66 42.7308 649.976 42.7308 650.172 42.5355L653.354 39.3536ZM573 39.5H653V38.5H573V39.5Z" fill="black"/>
<defs>
<linearGradient id="paint0_linear_13_2" x1="390.254" y1="33.1469" x2="406.055" y2="48.9471" gradientUnits="userSpaceOnUse">
<stop stop-color="#FFA936"/>
<stop offset="0.4112" stop-color="#FF8548"/>
<stop offset="0.7781" stop-color="#FF6C54"/>
<stop offset="1" stop-color="#FF6359"/>
</linearGradient>
<linearGradient id="paint1_linear_13_2" x1="399.876" y1="39.8671" x2="395.389" y2="39.8671" gradientUnits="userSpaceOnUse">
<stop stop-color="#F82814" stop-opacity="0"/>
<stop offset="1" stop-color="#C0272D"/>
</linearGradient>
<linearGradient id="paint2_linear_13_2" x1="398.494" y1="39.8671" x2="397.589" y2="39.8671" gradientUnits="userSpaceOnUse">
<stop stop-color="#F8F6FB"/>
<stop offset="1" stop-color="#EFDCFB"/>
</linearGradient>
<linearGradient id="paint3_linear_13_2" x1="376.917" y1="31.1741" x2="395.624" y2="46.6721" gradientUnits="userSpaceOnUse">
<stop stop-color="#18CEFB"/>
<stop offset="0.2969" stop-color="#2BB9F9"/>
<stop offset="0.7345" stop-color="#42A0F7"/>
<stop offset="1" stop-color="#4A97F6"/>
</linearGradient>
<linearGradient id="paint4_linear_13_2" x1="391.119" y1="24.8632" x2="391.119" y2="26.4724" gradientUnits="userSpaceOnUse">
<stop stop-color="#CDEC7A"/>
<stop offset="0.2157" stop-color="#B0E995"/>
<stop offset="0.5613" stop-color="#87E4BB"/>
<stop offset="0.8347" stop-color="#6EE1D2"/>
<stop offset="1" stop-color="#65E0DB"/>
</linearGradient>
<linearGradient id="paint5_linear_13_2" x1="398.606" y1="39.8732" x2="397.048" y2="39.8732" gradientUnits="userSpaceOnUse">
<stop stop-color="#EFDCFB" stop-opacity="0"/>
<stop offset="0.0287" stop-color="#E9D6F7" stop-opacity="0.029"/>
<stop offset="0.2203" stop-color="#C5B5DE" stop-opacity="0.22"/>
<stop offset="0.4138" stop-color="#AA9BCB" stop-opacity="0.414"/>
<stop offset="0.6078" stop-color="#9688BD" stop-opacity="0.608"/>
<stop offset="0.8028" stop-color="#8A7DB5" stop-opacity="0.803"/>
<stop offset="1" stop-color="#8679B2"/>
</linearGradient>
<linearGradient id="paint6_linear_13_2" x1="378.079" y1="29.8467" x2="401.639" y2="53.406" gradientUnits="userSpaceOnUse">
<stop stop-color="#FFA936"/>
<stop offset="0.4112" stop-color="#FF8548"/>
<stop offset="0.7781" stop-color="#FF6C54"/>
<stop offset="1" stop-color="#FF6359"/>
</linearGradient>
<linearGradient id="paint7_linear_13_2" x1="394.857" y1="41.6297" x2="378.139" y2="24.9114" gradientUnits="userSpaceOnUse">
<stop stop-color="#F82814" stop-opacity="0"/>
<stop offset="1" stop-color="#C0272D"/>
</linearGradient>
<linearGradient id="paint8_linear_13_2" x1="385.851" y1="32.6232" x2="391.282" y2="38.0543" gradientUnits="userSpaceOnUse">
<stop stop-color="#F8F6FB"/>
<stop offset="1" stop-color="#EFDCFB"/>
</linearGradient>
<linearGradient id="paint9_linear_13_2" x1="379.933" y1="39.8671" x2="385.984" y2="39.8671" gradientUnits="userSpaceOnUse">
<stop stop-color="#F82814" stop-opacity="0"/>
<stop offset="1" stop-color="#C0272D"/>
</linearGradient>
<clipPath id="clip0_13_2">
<rect width="31.2917" height="31.2917" fill="white" transform="translate(40.2917 23.7323)"/>
</clipPath>
<clipPath id="clip1_13_2">
<rect width="31.2917" height="31.2917" fill="white" transform="translate(215.525 23.7323)"/>
</clipPath>
<clipPath id="clip2_13_2">
<rect width="31.2917" height="31.2917" fill="white" transform="translate(373.548 23.7323)"/>
</clipPath>
<clipPath id="clip3_13_2">
<rect width="31.2917" height="31.2917" fill="white" transform="translate(525.313 23.7323)"/>
</clipPath>
<clipPath id="clip4_13_2">
<rect width="31.2917" height="31.2917" fill="white" transform="translate(669.255 23.7323)"/>
</clipPath>
</defs>
</svg>
